<svg width="24" height="18" viewBox="0 0 24 18" fill="none" xmlns="http://www.w3.org/2000/svg">
<rect width="24" height="18" fill="#E4E6F0"/>
<rect x="-3766" y="-1177" width="6240" height="4359" rx="40" fill="white"/>
<g clip-path="url(#clip0_2411_87286)">
<rect x="-3486" y="-650" width="5750" height="3622" rx="5" fill="white"/>
<g filter="url(#filter0_d_2411_87286)">
<rect x="-536" y="-600" width="1301" height="758" rx="10" fill="white"/>
<g filter="url(#filter1_d_2411_87286)">
<g clip-path="url(#clip1_2411_87286)">
<mask id="mask0_2411_87286" style="mask-type:luminance" maskUnits="userSpaceOnUse" x="0" y="0" width="25" height="18">
<rect width="24.7059" height="18" fill="white"/>
</mask>
<g mask="url(#mask0_2411_87286)">
<path fill-rule="evenodd" clip-rule="evenodd" d="M-0.237488 0V18H24.4684V0H-0.237488Z" fill="#E31D1C"/>
<mask id="mask1_2411_87286" style="mask-type:luminance" maskUnits="userSpaceOnUse" x="-1" y="0" width="26" height="18">
<path fill-rule="evenodd" clip-rule="evenodd" d="M-0.237488 0V18H24.4684V0H-0.237488Z" fill="white"/>
</mask>
<g mask="url(#mask1_2411_87286)">
<path fill-rule="evenodd" clip-rule="evenodd" d="M12.1353 12.0852C10.4821 11.6896 9.18723 10.3453 9.20225 8.37481C9.21632 6.53025 10.366 4.97111 12.1833 4.54904C14.0007 4.12697 15.6008 5.02293 15.6008 5.02293C15.0985 3.87107 13.3535 3.06185 11.9229 3.06418C9.25987 3.06851 6.42111 5.16645 6.39664 8.37481C6.37127 11.701 9.43653 13.5954 12.1324 13.591C14.2936 13.5875 15.3187 12.1511 15.5311 11.5401C15.5311 11.5401 13.7885 12.4808 12.1353 12.0852ZM15.901 7.74516L14.2538 8.33291L16.1123 8.96981L16.0806 10.8728L17.3052 9.44514L19.3281 9.58793L17.7251 8.24937L18.7775 6.82152L17.0639 7.38175L15.8391 6.05906L15.901 7.74516Z" fill="#F7FCFF"/>
</g>
</g>
<rect width="24.7059" height="18" fill="url(#paint0_linear_2411_87286)" style="mix-blend-mode:overlay"/>
</g>
<rect x="0.541667" y="0.541667" width="22.9167" height="16.9167" rx="1.625" stroke="black" stroke-opacity="0.1" stroke-width="1.08333" style="mix-blend-mode:multiply"/>
</g>
<path d="M74 51H-50V53H74V51Z" fill="#E9EFF7" mask="url(#path-6-inside-1_2411_87286)"/>
<rect x="-536.5" y="-600.5" width="1302" height="759" rx="10.5" stroke="#E9EFF7"/>
</g>
</g>
<rect x="-3485.5" y="-649.5" width="5749" height="3621" rx="4.5" stroke="#9747FF" stroke-dasharray="10 5"/>
<defs>
<filter id="filter0_d_2411_87286" x="-575" y="-615" width="1379" height="836" filterUnits="userSpaceOnUse" color-interpolation-filters="sRGB">
<feFlood flood-opacity="0" result="BackgroundImageFix"/>
<feColorMatrix in="SourceAlpha" type="matrix" values="0 0 0 0 0 0 0 0 0 0 0 0 0 0 0 0 0 0 127 0" result="hardAlpha"/>
<feMorphology radius="12" operator="erode" in="SourceAlpha" result="effect1_dropShadow_2411_87286"/>
<feOffset dy="24"/>
<feGaussianBlur stdDeviation="25"/>
<feColorMatrix type="matrix" values="0 0 0 0 0.176471 0 0 0 0 0.211765 0 0 0 0 0.262745 0 0 0 0.12 0"/>
<feBlend mode="normal" in2="BackgroundImageFix" result="effect1_dropShadow_2411_87286"/>
<feBlend mode="normal" in="SourceGraphic" in2="effect1_dropShadow_2411_87286" result="shape"/>
</filter>
<filter id="filter1_d_2411_87286" x="-3.25" y="-1.08333" width="30.5" height="24.5" filterUnits="userSpaceOnUse" color-interpolation-filters="sRGB">
<feFlood flood-opacity="0" result="BackgroundImageFix"/>
<feColorMatrix in="SourceAlpha" type="matrix" values="0 0 0 0 0 0 0 0 0 0 0 0 0 0 0 0 0 0 127 0" result="hardAlpha"/>
<feOffset dy="2.16667"/>
<feGaussianBlur stdDeviation="1.625"/>
<feColorMatrix type="matrix" values="0 0 0 0 0 0 0 0 0 0 0 0 0 0 0 0 0 0 0.1 0"/>
<feBlend mode="normal" in2="BackgroundImageFix" result="effect1_dropShadow_2411_87286"/>
<feBlend mode="normal" in="SourceGraphic" in2="effect1_dropShadow_2411_87286" result="shape"/>
</filter>
<linearGradient id="paint0_linear_2411_87286" x1="12.3529" y1="0" x2="12.3529" y2="18" gradientUnits="userSpaceOnUse">
<stop stop-color="white" stop-opacity="0.7"/>
<stop offset="1" stop-opacity="0.3"/>
</linearGradient>
<clipPath id="clip0_2411_87286">
<rect x="-3486" y="-650" width="5750" height="3622" rx="5" fill="white"/>
</clipPath>
<clipPath id="clip1_2411_87286">
<rect width="24" height="18" rx="2.16667" fill="white"/>
</clipPath>
</defs>
</svg>
