<svg width="24" height="18" viewBox="0 0 24 18" fill="none" xmlns="http://www.w3.org/2000/svg">
<rect width="24" height="18" fill="#E4E6F0"/>
<rect x="-3766" y="-747" width="6240" height="4359" rx="40" fill="white"/>
<g clip-path="url(#clip0_2411_87286)">
<rect x="-3486" y="-220" width="5750" height="3622" rx="5" fill="white"/>
<g filter="url(#filter0_d_2411_87286)">
<rect x="-536" y="-170" width="1301" height="758" rx="10" fill="white"/>
<g filter="url(#filter1_d_2411_87286)">
<g clip-path="url(#clip1_2411_87286)">
<mask id="mask0_2411_87286" style="mask-type:luminance" maskUnits="userSpaceOnUse" x="0" y="0" width="24" height="18">
<rect width="24" height="18" fill="white"/>
</mask>
<g mask="url(#mask0_2411_87286)">
<path fill-rule="evenodd" clip-rule="evenodd" d="M-0.0356445 0.146973H24.0357V17.8533H-0.0356445V0.146973Z" fill="#F7FCFF"/>
<path fill-rule="evenodd" clip-rule="evenodd" d="M-0.0356445 10.9674V12.4429H24.0357V10.9674H-0.0356445Z" fill="#E31D1C"/>
<path fill-rule="evenodd" clip-rule="evenodd" d="M-0.0356445 13.6724V15.1479H24.0357V13.6724H-0.0356445Z" fill="#E31D1C"/>
<path fill-rule="evenodd" clip-rule="evenodd" d="M-0.0356445 5.55701V7.03253H24.0357V5.55701H-0.0356445Z" fill="#E31D1C"/>
<path fill-rule="evenodd" clip-rule="evenodd" d="M-0.0356445 16.3777V17.8532H24.0357V16.3777H-0.0356445Z" fill="#E31D1C"/>
<path fill-rule="evenodd" clip-rule="evenodd" d="M-0.0356445 8.26233V9.73785H24.0357V8.26233H-0.0356445Z" fill="#E31D1C"/>
<path fill-rule="evenodd" clip-rule="evenodd" d="M-0.0356445 0.146973V1.6225H24.0357V0.146973H-0.0356445Z" fill="#E31D1C"/>
<path fill-rule="evenodd" clip-rule="evenodd" d="M-0.0356445 2.85193V4.32745H24.0357V2.85193H-0.0356445Z" fill="#E31D1C"/>
<rect width="14.8235" height="9.69231" fill="#2E42A5"/>
<path fill-rule="evenodd" clip-rule="evenodd" d="M1.25968 2.31506L0.713651 2.6905L0.897996 2.02238L0.413022 1.59897H1.04646L1.25891 1.05371L1.50803 1.59897H2.04802L1.62374 2.02238L1.788 2.6905L1.25968 2.31506ZM4.26853 2.31508L3.72251 2.69052L3.90685 2.02239L3.42188 1.59898H4.05532L4.26777 1.05373L4.51689 1.59898H5.05688L4.63259 2.02239L4.79685 2.69052L4.26853 2.31508ZM6.73142 2.69052L7.27744 2.31508L7.80576 2.69052L7.64151 2.02239L8.06579 1.59898H7.5258L7.27668 1.05373L7.06423 1.59898H6.43079L6.91576 2.02239L6.73142 2.69052ZM10.2864 2.31508L9.74033 2.69052L9.92467 2.02239L9.4397 1.59898H10.0731L10.2856 1.05373L10.5347 1.59898H11.0747L10.6504 2.02239L10.8147 2.69052L10.2864 2.31508ZM0.713593 5.64157L1.25962 5.26613L1.78794 5.64157L1.62368 4.97344L2.04796 4.55003H1.50797L1.25886 4.00477L1.04641 4.55003H0.412964L0.897938 4.97344L0.713593 5.64157ZM4.26853 5.26613L3.72251 5.64157L3.90685 4.97344L3.42188 4.55003H4.05532L4.26777 4.00477L4.51689 4.55003H5.05688L4.63259 4.97344L4.79685 5.64157L4.26853 5.26613ZM6.73142 5.64157L7.27744 5.26613L7.80576 5.64157L7.64151 4.97344L8.06579 4.55003H7.5258L7.27668 4.00477L7.06423 4.55003H6.43079L6.91576 4.97344L6.73142 5.64157ZM10.2864 5.26613L9.74033 5.64157L9.92467 4.97344L9.4397 4.55003H10.0731L10.2856 4.00477L10.5347 4.55003H11.0747L10.6504 4.97344L10.8147 5.64157L10.2864 5.26613ZM0.713593 8.59262L1.25962 8.21718L1.78794 8.59262L1.62368 7.92449L2.04796 7.50108H1.50797L1.25886 6.95582L1.04641 7.50108H0.412964L0.897938 7.92449L0.713593 8.59262ZM4.26853 8.21718L3.72251 8.59262L3.90685 7.92449L3.42188 7.50108H4.05532L4.26777 6.95582L4.51689 7.50108H5.05688L4.63259 7.92449L4.79685 8.59262L4.26853 8.21718ZM6.73142 8.59262L7.27744 8.21718L7.80576 8.59262L7.64151 7.92449L8.06579 7.50108H7.5258L7.27668 6.95582L7.06423 7.50108H6.43079L6.91576 7.92449L6.73142 8.59262ZM10.2864 8.21718L9.74033 8.59262L9.92467 7.92449L9.4397 7.50108H10.0731L10.2856 6.95582L10.5347 7.50108H11.0747L10.6504 7.92449L10.8147 8.59262L10.2864 8.21718ZM12.7492 2.69052L13.2953 2.31508L13.8236 2.69052L13.6593 2.02239L14.0836 1.59898H13.5436L13.2945 1.05373L13.0821 1.59898H12.4486L12.9336 2.02239L12.7492 2.69052ZM13.2953 5.26613L12.7492 5.64157L12.9336 4.97344L12.4486 4.55003H13.0821L13.2945 4.00477L13.5436 4.55003H14.0836L13.6593 4.97344L13.8236 5.64157L13.2953 5.26613ZM12.7492 8.59262L13.2953 8.21718L13.8236 8.59262L13.6593 7.92449L14.0836 7.50108H13.5436L13.2945 6.95582L13.0821 7.50108H12.4486L12.9336 7.92449L12.7492 8.59262ZM2.76408 3.7906L2.21805 4.16604L2.40239 3.49792L1.91742 3.07451H2.55086L2.76331 2.52925L3.01243 3.07451H3.55242L3.12814 3.49792L3.29239 4.16604L2.76408 3.7906ZM5.22696 4.16604L5.77299 3.7906L6.30131 4.16604L6.13705 3.49792L6.56133 3.07451H6.02134L5.77223 2.52925L5.55977 3.07451H4.92633L5.41131 3.49792L5.22696 4.16604ZM8.7819 3.7906L8.23587 4.16604L8.42022 3.49792L7.93525 3.07451H8.56869L8.78114 2.52925L9.03025 3.07451H9.57025L9.14596 3.49792L9.31022 4.16604L8.7819 3.7906ZM2.21805 7.11709L2.76408 6.74165L3.29239 7.11709L3.12814 6.44897L3.55242 6.02556H3.01243L2.76331 5.4803L2.55086 6.02556H1.91742L2.40239 6.44897L2.21805 7.11709ZM5.77299 6.74165L5.22696 7.11709L5.41131 6.44897L4.92633 6.02556H5.55977L5.77223 5.4803L6.02134 6.02556H6.56133L6.13705 6.44897L6.30131 7.11709L5.77299 6.74165ZM8.23587 7.11709L8.7819 6.74165L9.31022 7.11709L9.14596 6.44897L9.57025 6.02556H9.03025L8.78114 5.4803L8.56869 6.02556H7.93525L8.42022 6.44897L8.23587 7.11709ZM11.7908 3.7906L11.2448 4.16604L11.4291 3.49792L10.9442 3.07451H11.5776L11.7901 2.52925L12.0392 3.07451H12.5792L12.1549 3.49792L12.3191 4.16604L11.7908 3.7906ZM11.2448 7.11709L11.7908 6.74165L12.3191 7.11709L12.1549 6.44897L12.5792 6.02556H12.0392L11.7901 5.4803L11.5776 6.02556H10.9442L11.4291 6.44897L11.2448 7.11709Z" fill="#F7FCFF"/>
</g>
<rect width="24" height="18" fill="url(#paint0_linear_2411_87286)" style="mix-blend-mode:overlay"/>
</g>
<rect x="0.532828" y="0.532828" width="22.9343" height="16.9343" rx="1.59848" stroke="black" stroke-opacity="0.1" stroke-width="1.06566" style="mix-blend-mode:multiply"/>
</g>
<path d="M74 51H-50V53H74V51Z" fill="#E9EFF7" mask="url(#path-6-inside-1_2411_87286)"/>
<rect x="-536.5" y="-170.5" width="1302" height="759" rx="10.5" stroke="#E9EFF7"/>
</g>
</g>
<rect x="-3485.5" y="-219.5" width="5749" height="3621" rx="4.5" stroke="#9747FF" stroke-dasharray="10 5"/>
<defs>
<filter id="filter0_d_2411_87286" x="-575" y="-185" width="1379" height="836" filterUnits="userSpaceOnUse" color-interpolation-filters="sRGB">
<feFlood flood-opacity="0" result="BackgroundImageFix"/>
<feColorMatrix in="SourceAlpha" type="matrix" values="0 0 0 0 0 0 0 0 0 0 0 0 0 0 0 0 0 0 127 0" result="hardAlpha"/>
<feMorphology radius="12" operator="erode" in="SourceAlpha" result="effect1_dropShadow_2411_87286"/>
<feOffset dy="24"/>
<feGaussianBlur stdDeviation="25"/>
<feColorMatrix type="matrix" values="0 0 0 0 0.176471 0 0 0 0 0.211765 0 0 0 0 0.262745 0 0 0 0.12 0"/>
<feBlend mode="normal" in2="BackgroundImageFix" result="effect1_dropShadow_2411_87286"/>
<feBlend mode="normal" in="SourceGraphic" in2="effect1_dropShadow_2411_87286" result="shape"/>
</filter>
<filter id="filter1_d_2411_87286" x="-3.19697" y="-1.06566" width="30.3939" height="24.3939" filterUnits="userSpaceOnUse" color-interpolation-filters="sRGB">
<feFlood flood-opacity="0" result="BackgroundImageFix"/>
<feColorMatrix in="SourceAlpha" type="matrix" values="0 0 0 0 0 0 0 0 0 0 0 0 0 0 0 0 0 0 127 0" result="hardAlpha"/>
<feOffset dy="2.13131"/>
<feGaussianBlur stdDeviation="1.59848"/>
<feColorMatrix type="matrix" values="0 0 0 0 0 0 0 0 0 0 0 0 0 0 0 0 0 0 0.1 0"/>
<feBlend mode="normal" in2="BackgroundImageFix" result="effect1_dropShadow_2411_87286"/>
<feBlend mode="normal" in="SourceGraphic" in2="effect1_dropShadow_2411_87286" result="shape"/>
</filter>
<linearGradient id="paint0_linear_2411_87286" x1="12" y1="0" x2="12" y2="18" gradientUnits="userSpaceOnUse">
<stop stop-color="white" stop-opacity="0.7"/>
<stop offset="1" stop-opacity="0.3"/>
</linearGradient>
<clipPath id="clip0_2411_87286">
<rect x="-3486" y="-220" width="5750" height="3622" rx="5" fill="white"/>
</clipPath>
<clipPath id="clip1_2411_87286">
<rect width="24" height="18" rx="2.13131" fill="white"/>
</clipPath>
</defs>
</svg>
