<svg width="40" height="40" viewBox="0 0 40 40" fill="none" xmlns="http://www.w3.org/2000/svg">
<path d="M35.8425 7.92373V23.4571C35.8425 24.4347 35.05 25.2271 34.0724 25.2271H5.9274C4.95003 25.2271 4.15747 24.4347 4.15747 23.4571V4.5897C4.15747 3.61213 4.95003 2.81976 5.9274 2.81976H16.2135C17.4682 2.81976 18.6403 3.44481 19.3395 4.48687C20.0386 5.52856 21.2108 6.15398 22.4655 6.15398H34.0724C35.05 6.15398 35.8425 6.94635 35.8425 7.92392V7.92373Z" fill="url(#paint0_linear_15147_9282)"/>
<path d="M35.8425 7.92373V23.4571C35.8425 24.4347 35.05 25.2271 34.0724 25.2271H5.9274C4.95003 25.2271 4.15747 24.4347 4.15747 23.4571V4.5897C4.15747 3.61213 4.95003 2.81976 5.9274 2.81976H16.2135C17.4682 2.81976 18.6403 3.44481 19.3395 4.48687C20.0386 5.52856 21.2108 6.15398 22.4655 6.15398H34.0724C35.05 6.15398 35.8425 6.94635 35.8425 7.92392V7.92373Z" fill="url(#paint1_linear_15147_9282)"/>
<g style="mix-blend-mode:multiply">
<path d="M8.95546 7.33942H33.0938C33.9466 7.33942 34.6391 8.03191 34.6391 8.88472V15.4533H7.41016V8.88472C7.41016 8.03191 8.10265 7.33942 8.95546 7.33942Z" fill="#E6E6E6"/>
</g>
<path d="M8.30407 7.76453H32.8948C33.6229 7.76453 34.2138 8.35567 34.2138 9.08355V15.4533H6.98486V9.08355C6.98486 8.35549 7.57601 7.76453 8.30388 7.76453H8.30407Z" fill="#E6E6E6"/>
<g style="mix-blend-mode:multiply">
<path d="M7.65785 8.63687H31.7962C32.649 8.63687 33.3415 9.32937 33.3415 10.1822V16.3258H6.11255V10.1822C6.11255 9.32937 6.80504 8.63687 7.65785 8.63687Z" fill="#E6E6E6"/>
</g>
<path d="M7.0067 9.06198H31.5975C32.3255 9.06198 32.9165 9.65313 32.9165 10.381V16.7507H5.6875V10.381C5.6875 9.65294 6.27865 9.06198 7.00652 9.06198H7.0067Z" fill="white"/>
<path d="M38.7453 17.3506L37.4344 35.5375C37.4309 35.5876 37.4252 35.6372 37.4175 35.686C37.2839 36.539 36.547 37.1803 35.6693 37.1803H4.36478C3.43015 37.1803 2.65657 36.4535 2.59816 35.5207L1.25352 13.9996C1.18977 12.9805 1.99909 12.1194 3.01996 12.1194H15.8763C17.131 12.1194 18.3031 12.7445 19.0022 13.7866C19.7014 14.8286 20.8737 15.4537 22.1282 15.4537H36.9798C38.0075 15.4537 38.8191 16.3258 38.7453 17.3509V17.3506Z" fill="url(#paint2_linear_15147_9282)"/>
<g style="mix-blend-mode:screen" opacity="0.3">
<path d="M38.7453 17.3505L37.4344 35.5375C37.4309 35.5876 37.4252 35.6372 37.4174 35.686C32.143 32.9549 27.356 29.4136 23.2206 25.2271C19.4048 21.3642 16.1445 16.952 13.568 12.1192C11.994 9.16665 10.6751 6.05687 9.64136 2.81976H16.2132C17.4679 2.81976 18.6401 3.44481 19.3392 4.48687C20.0384 5.52856 21.2105 6.15398 22.4652 6.15398H34.0722C35.0497 6.15398 35.8423 6.94635 35.8423 7.92392V15.4535H36.9796C38.0073 15.4535 38.819 16.3254 38.7453 17.3505Z" fill="#333333"/>
</g>
<defs>
<linearGradient id="paint0_linear_15147_9282" x1="20.0001" y1="25.2271" x2="20.0001" y2="2.81976" gradientUnits="userSpaceOnUse">
<stop stop-color="#FA842A"/>
<stop offset="1" stop-color="#FAC03E"/>
</linearGradient>
<linearGradient id="paint1_linear_15147_9282" x1="20.0001" y1="25.2272" x2="20.0001" y2="2.8196" gradientUnits="userSpaceOnUse">
<stop stop-color="#1B4DFF"/>
<stop offset="1" stop-color="#5177FF"/>
</linearGradient>
<linearGradient id="paint2_linear_15147_9282" x1="20.0001" y1="37.1805" x2="20.0001" y2="12.1193" gradientUnits="userSpaceOnUse">
<stop stop-color="#1B4DFF"/>
<stop offset="1" stop-color="#5177FF"/>
</linearGradient>
</defs>
</svg>
