<svg width="16" height="16" viewBox="0 0 16 16" fill="none" xmlns="http://www.w3.org/2000/svg">
<path d="M8 0.125C3.64906 0.125 0.125 3.64906 0.125 8C0.125 11.4847 2.37922 14.428 5.50953 15.4714C5.90328 15.5403 6.05094 15.3041 6.05094 15.0973C6.05094 14.9103 6.04109 14.2902 6.04109 13.6306C4.0625 13.9948 3.55062 13.1483 3.39312 12.7053C3.30453 12.4789 2.92063 11.78 2.58594 11.593C2.31031 11.4453 1.91656 11.0811 2.57609 11.0712C3.19625 11.0614 3.63922 11.6422 3.78688 11.8784C4.49563 13.0695 5.62766 12.7348 6.08047 12.5281C6.14938 12.0163 6.35609 11.6717 6.5825 11.4748C4.83031 11.278 2.99938 10.5987 2.99938 7.58656C2.99938 6.73016 3.30453 6.02141 3.80656 5.47016C3.72781 5.27328 3.45219 4.46609 3.88531 3.38328C3.88531 3.38328 4.54484 3.17656 6.05094 4.19047C6.68094 4.01328 7.35031 3.92469 8.01969 3.92469C8.68906 3.92469 9.35844 4.01328 9.98844 4.19047C11.4945 3.16672 12.1541 3.38328 12.1541 3.38328C12.5872 4.46609 12.3116 5.27328 12.2328 5.47016C12.7348 6.02141 13.04 6.72031 13.04 7.58656C13.04 10.6086 11.1992 11.278 9.44703 11.4748C9.7325 11.7209 9.97859 12.1934 9.97859 12.9317C9.97859 13.985 9.96875 14.8316 9.96875 15.0973C9.96875 15.3041 10.1164 15.5502 10.5102 15.4714C12.0735 14.9436 13.432 13.9389 14.3943 12.5986C15.3567 11.2583 15.8746 9.65001 15.875 8C15.875 3.64906 12.3509 0.125 8 0.125Z" fill="#F9FAFB"/>
</svg>
