<svg width="24" height="24" viewBox="0 0 24 24" fill="none" xmlns="http://www.w3.org/2000/svg">
<path d="M12.0003 1.53613C6.0757 1.53613 1.27148 6.33951 1.27148 12.265C1.27148 17.0052 4.34561 21.0269 8.60852 22.4455C9.14471 22.5449 9.3416 22.2128 9.3416 21.9294C9.3416 21.6736 9.33154 20.8284 9.32702 19.932C6.34224 20.5809 5.71243 18.6661 5.71243 18.6661C5.22436 17.426 4.52112 17.0962 4.52112 17.0962C3.54774 16.4303 4.59455 16.4441 4.59455 16.4441C5.67186 16.5197 6.23915 17.5496 6.23915 17.5496C7.1961 19.1898 8.74909 18.7156 9.3613 18.4415C9.4576 17.7481 9.73563 17.2747 10.0425 17.0068C7.65945 16.7356 5.15437 15.8156 5.15437 11.7046C5.15437 10.5333 5.57346 9.57616 6.25977 8.82481C6.14837 8.55458 5.78116 7.46343 6.3637 5.98555C6.3637 5.98555 7.26466 5.69721 9.31495 7.08533C10.1707 6.84762 11.0885 6.72843 12.0003 6.72432C12.9121 6.72843 13.8307 6.84753 14.688 7.08533C16.7358 5.6973 17.6355 5.98563 17.6355 5.98563C18.2195 7.46335 17.8521 8.55466 17.7407 8.82481C18.4286 9.57616 18.8448 10.5333 18.8448 11.7046C18.8448 15.8254 16.335 16.7327 13.9459 16.9984C14.3307 17.3313 14.6736 17.9842 14.6736 18.9852C14.6736 20.4207 14.6612 21.576 14.6612 21.9294C14.6612 22.215 14.8543 22.5495 15.3981 22.444C19.6587 21.0239 22.729 17.0037 22.729 12.2651C22.729 6.33951 17.9254 1.53613 12.0003 1.53613ZM5.28982 16.8196C5.26618 16.8729 5.18228 16.8889 5.10592 16.8523C5.02806 16.8173 4.98439 16.7446 5.00953 16.6912C5.03267 16.6363 5.11674 16.6209 5.19435 16.6577C5.2723 16.6928 5.31673 16.7661 5.28982 16.8196ZM5.81754 17.2905C5.76641 17.3379 5.66633 17.3159 5.59844 17.2409C5.52828 17.1662 5.51512 17.0661 5.56701 17.018C5.61981 16.9705 5.71679 16.9927 5.78711 17.0675C5.85735 17.1432 5.87093 17.2425 5.81754 17.2905ZM6.17964 17.893C6.11384 17.9386 6.00638 17.8958 5.93992 17.8004C5.8742 17.705 5.8742 17.5906 5.94134 17.5448C6.00798 17.4989 6.11384 17.5402 6.18114 17.6349C6.24669 17.7319 6.24669 17.8463 6.17955 17.893L6.17964 17.893ZM6.79185 18.5907C6.73309 18.6556 6.60778 18.6382 6.51608 18.5497C6.42229 18.4632 6.39622 18.3405 6.45523 18.2756C6.51474 18.2105 6.64072 18.2288 6.73309 18.3167C6.82613 18.403 6.85463 18.5266 6.79185 18.5907ZM7.58326 18.8263C7.55727 18.9103 7.43658 18.9486 7.31512 18.9129C7.19375 18.8761 7.11438 18.7777 7.13885 18.6927C7.16408 18.6081 7.28528 18.5684 7.40766 18.6066C7.52886 18.6431 7.60849 18.7408 7.58326 18.8263ZM8.4838 18.9263C8.48682 19.0147 8.38381 19.088 8.25624 19.0897C8.12799 19.0926 8.02414 19.021 8.02272 18.9338C8.02272 18.8445 8.12347 18.7719 8.25179 18.7697C8.37936 18.7672 8.4838 18.8383 8.4838 18.9263ZM9.36851 18.8923C9.38376 18.9786 9.29516 19.0673 9.16843 19.091C9.04396 19.1137 8.92863 19.0604 8.91279 18.9748C8.89736 18.8863 8.98764 18.7976 9.11194 18.7747C9.23884 18.7527 9.35233 18.8046 9.36851 18.8923Z" fill="#F0F3F9"/>
</svg>
