<svg width="10" height="10" viewBox="0 0 10 10" fill="none" xmlns="http://www.w3.org/2000/svg">
<path d="M8.46337 5.96285C7.84993 6.13331 7.20223 6.1378 6.58648 5.97586C5.97074 5.81392 5.40905 5.49135 4.95884 5.04115C4.50864 4.59095 4.18607 4.02926 4.02413 3.41351C3.86218 2.79777 3.86667 2.15006 4.03712 1.53662L4.03722 1.53665C3.43217 1.70497 2.88179 2.02889 2.44089 2.47613C1.99999 2.92338 1.68398 3.47834 1.52433 4.08574C1.36468 4.69313 1.36696 5.33176 1.53095 5.93799C1.69494 6.54423 2.01492 7.09692 2.459 7.541C2.90309 7.98508 3.45578 8.30505 4.06202 8.46904C4.66826 8.63302 5.30688 8.6353 5.91428 8.47565C6.52167 8.31599 7.07663 7.99997 7.52387 7.55907C7.97111 7.11817 8.29503 6.56778 8.46334 5.96272L8.46337 5.96285Z" stroke="#1B4DFF" strokeLinecap="round" strokeLinejoin="round"/>
</svg>
