<svg width="13" height="13" viewBox="0 0 13 13" fill="none" xmlns="http://www.w3.org/2000/svg">
<path d="M11.0024 7.75166C10.2049 7.97326 9.36289 7.97909 8.56243 7.76857C7.76196 7.55804 7.03176 7.13871 6.44649 6.55345C5.86123 5.96818 5.44189 5.23799 5.23136 4.43752C5.02083 3.63705 5.02667 2.79503 5.24826 1.99756L5.24839 1.9976C4.46183 2.21641 3.74632 2.6375 3.17316 3.21892C2.59999 3.80034 2.18917 4.52179 1.98163 5.31141C1.77408 6.10102 1.77705 6.93123 1.99024 7.71934C2.20343 8.50745 2.6194 9.22595 3.19671 9.80325C3.77402 10.3806 4.49251 10.7965 5.28062 11.0097C6.06874 11.2229 6.89895 11.2258 7.68856 11.0183C8.47817 10.8107 9.19962 10.3999 9.78103 9.82674C10.3624 9.25357 10.7835 8.53806 11.0023 7.75149L11.0024 7.75166Z" stroke="#1B4DFF" strokeLinecap="round" strokeLinejoin="round"/>
</svg>
