<svg width="12" height="12" viewBox="0 0 12 12" fill="none" xmlns="http://www.w3.org/2000/svg">
<path d="M10.156 7.15523C9.41992 7.35978 8.64267 7.36517 7.90378 7.17084C7.16488 6.9765 6.49085 6.58943 5.95061 6.04918C5.41036 5.50894 5.02328 4.83491 4.82895 4.09602C4.63462 3.35713 4.64 2.57988 4.84455 1.84375L4.84467 1.84379C4.11861 2.04577 3.45814 2.43447 2.92907 2.97116C2.39999 3.50786 2.02077 4.17381 1.82919 4.90269C1.63761 5.63156 1.64035 6.39791 1.83714 7.1254C2.03393 7.85288 2.4179 8.51611 2.95081 9.049C3.48371 9.5819 4.14694 9.96587 4.87442 10.1626C5.60191 10.3594 6.36826 10.3622 7.09713 10.1706C7.82601 9.97899 8.49196 9.59977 9.02865 9.07069C9.56534 8.54161 9.95403 7.88114 10.156 7.15507L10.156 7.15523Z" stroke="#4A72FF" strokeLinecap="round" strokeLinejoin="round"/>
</svg>
