<svg width="85" height="36" viewBox="0 0 85 36" fill="none" xmlns="http://www.w3.org/2000/svg">
<g id="Series">
<path id="Gradient overlay " opacity="0.2" d="M1.91052 26.087H0V36H85V17.2174H83.5783C81.8877 17.2174 80.3115 16.363 79.3888 14.9464L76.3979 10.3549C73.9448 6.58905 68.1555 7.71982 67.2998 12.132L66.1111 18.2609L64.1942 23.8281C63.0957 27.0182 59.2178 28.227 56.5013 26.226L40.9727 14.7881C38.8455 13.2212 35.8665 13.5797 34.1717 15.6064L20.1213 32.4086C18.4316 34.4292 15.4643 34.7925 13.3371 33.2393L4.85902 27.0488C4.00298 26.4238 2.97046 26.087 1.91052 26.087Z" fill="url(#paint0_linear_19444_10366)"/>
<path id="Line" d="M0 25.3623H1.94739C2.98452 25.3623 3.99598 25.6848 4.84169 26.2852L13.4035 32.3631C15.5086 33.8574 18.4052 33.5036 20.0885 31.5464L34.2047 15.1346C35.8932 13.1714 38.8012 12.8223 40.9065 14.3299L56.5743 25.5498C59.2798 27.4872 63.0876 26.2906 64.1985 23.1539L65.9912 18.0923C66.071 17.8668 66.1346 17.6359 66.1814 17.4013L67.2973 11.8075C68.1679 7.44332 73.8775 6.30552 76.3545 10.0026L79.3827 14.5222C80.311 15.9077 81.8689 16.7391 83.5366 16.7391H85" stroke="#1B54FF" stroke-width="1.5"/>
</g>
<defs>
<linearGradient id="paint0_linear_19444_10366" x1="42.5" y1="15" x2="42.5" y2="35" gradientUnits="userSpaceOnUse">
<stop stop-color="#1B4DFF"/>
<stop offset="1" stop-color="#1B4DFF" stop-opacity="0"/>
</linearGradient>
</defs>
</svg>
