<svg width="85" height="31" viewBox="0 0 85 31" fill="none" xmlns="http://www.w3.org/2000/svg">
<path opacity="0.2" d="M2.75757 17.28H0V31.3714H85V17.28H82.741C81.188 17.28 79.7231 18.0017 78.7767 19.233L78.5198 19.5673C76.4641 22.2419 72.404 22.1551 70.4645 19.3951L60.6814 5.47327C59.3889 3.63382 56.607 3.81725 55.5671 5.81049L49.5833 17.28L47.0578 23.4412C45.2946 27.7426 39.1289 27.5201 37.6803 23.1028L35.3084 15.8697C33.7618 11.1537 27.0311 11.3286 25.7317 16.1187L23.4168 24.6523C22.4321 28.2824 17.9426 29.5663 15.1874 27.0058L6.16135 18.6174C5.23635 17.7578 4.02035 17.28 2.75757 17.28Z" fill="url(#paint0_linear_19444_10359)"/>
<path d="M0 16.8H2.79796C4.03652 16.8 5.23101 17.2597 6.15001 18.09L15.2538 26.3156C18.0101 28.806 22.4235 27.5275 23.4219 23.9494L25.7402 15.6405C27.0632 10.8989 33.7206 10.7217 35.294 15.3862L37.6918 22.4952C39.1631 26.8571 45.2484 27.0814 47.0368 22.8397L49.5833 16.8L55.5805 5.62402C56.6281 3.67187 59.3576 3.48961 60.6554 5.28516L70.5013 18.9073C72.4444 21.5957 76.4188 21.6813 78.476 19.0792L78.7764 18.6992C79.7247 17.4997 81.1697 16.8 82.6987 16.8H85" stroke="#E32D2D" stroke-width="1.5"/>
<defs>
<linearGradient id="paint0_linear_19444_10359" x1="42.5" y1="15" x2="42.5" y2="35" gradientUnits="userSpaceOnUse">
<stop stop-color="#FF3838"/>
<stop offset="1" stop-color="#FF3838" stop-opacity="0"/>
</linearGradient>
</defs>
</svg>
