<svg width="85" height="36" viewBox="0 0 85 36" fill="none" xmlns="http://www.w3.org/2000/svg">
<path opacity="0.3" d="M17.8204 16.3608L2.95139 35.4193H85V18C83.2014 18 81.5676 19.0477 80.8172 20.6822L78.5884 25.5369C76.7638 29.5111 71.0766 29.3934 69.418 25.3472L63.235 10.2636C61.6012 6.27785 56.0282 6.08573 54.1238 9.94948L51.4374 15.3997C50.4863 17.3293 47.9922 17.8807 46.3163 16.5319C44.6537 15.1937 42.1809 15.7245 41.2138 17.6271L38.4614 23.0422C36.6535 26.599 31.6126 26.7095 29.6505 23.2354L26.1162 16.9775C24.3623 13.8721 20.0142 13.5488 17.8204 16.3608Z" fill="url(#paint0_linear_19444_10352)"/>
<path d="M0 34.4355H0.55288C2.06917 34.4355 3.50354 33.7474 4.45253 32.5648L17.8687 15.8461C20.0663 13.1076 24.3281 13.4277 26.0918 16.4639L29.6822 22.6445C31.6596 26.0485 36.6127 25.9382 38.4366 22.4496L41.1925 17.1782C42.1798 15.2898 44.6379 14.7594 46.3161 16.0725V16.0725C48.008 17.3964 50.4878 16.845 51.4592 14.9288L54.151 9.61943C56.0762 5.82202 61.5637 6.01471 63.2178 9.93781L69.436 24.6858C71.1157 28.6697 76.7182 28.7879 78.5644 24.8783L80.7884 20.1688C81.5578 18.5394 83.1981 17.5 85 17.5V17.5" stroke="#EBC12D" stroke-width="1.5"/>
<defs>
<linearGradient id="paint0_linear_19444_10352" x1="42.5" y1="15" x2="42.5" y2="35" gradientUnits="userSpaceOnUse">
<stop stop-color="#FFC700"/>
<stop offset="1" stop-color="#FFC700" stop-opacity="0"/>
</linearGradient>
</defs>
</svg>
