<svg width="85" height="36" viewBox="0 0 85 36" fill="none" xmlns="http://www.w3.org/2000/svg">
<g clip-path="url(#clip0_19444_10344)">
<path opacity="0.2" d="M16.3613 19.0342L0 36.2368H85V21.4211H83.4226C81.4487 21.4211 79.6596 22.5823 78.8559 24.3852L77.0515 28.4327C75.2674 32.4345 69.5645 32.3692 67.8726 28.3276L61.6828 13.542C59.9991 9.52011 54.3335 9.42977 52.5224 13.3959L50.4806 17.8673C49.3264 20.3949 46.1236 21.1958 43.9155 19.509C41.7672 17.8678 38.6569 18.5757 37.4304 20.985L35.6616 24.4597C33.8348 28.0482 28.7321 28.1156 26.8113 24.5765L24.3788 20.0949C22.7594 17.1112 18.7009 16.5743 16.3613 19.0342Z" fill="url(#paint0_linear_19444_10344)"/>
<path d="M0 35.2368L16.3635 18.8075C18.7251 16.4364 22.7042 17.0095 24.3006 19.9508L26.8113 24.5765C28.7321 28.1156 33.8348 28.0482 35.6616 24.4597L37.4304 20.985C38.6569 18.5757 41.7672 17.8678 43.9155 19.509V19.509C46.1236 21.1958 49.3264 20.3949 50.4806 17.8673L52.5871 13.2541C54.3882 9.30986 60.0129 9.37105 61.7277 13.3536L67.9605 27.8283C69.663 31.7821 75.2336 31.8795 77.0733 27.9876L78.8239 24.2843C79.6503 22.536 81.4106 21.4211 83.3443 21.4211H85" stroke="#26BA70" stroke-width="1.5"/>
</g>
<defs>
<linearGradient id="paint0_linear_19444_10344" x1="42.5" y1="18" x2="42.5" y2="38" gradientUnits="userSpaceOnUse">
<stop stop-color="#11A75C"/>
<stop offset="1" stop-color="#11A75C" stop-opacity="0"/>
</linearGradient>
<clipPath id="clip0_19444_10344">
<rect width="85" height="36" fill="white"/>
</clipPath>
</defs>
</svg>
