<svg width="85" height="36" viewBox="0 0 85 36" fill="none" xmlns="http://www.w3.org/2000/svg">
<g id="Series">
<path id="Gradient overlay " opacity="0.2" d="M1.80233 24.7869H0V36H85V15.3443H83.6618C81.9256 15.3443 80.3137 14.4436 79.4037 12.9651L76.5677 8.35756C74.4262 4.87831 69.2422 5.2967 67.6864 9.07435L67.5193 9.48001C67.3681 9.84722 67.2611 10.2311 67.2008 10.6236L66.2303 16.9301C66.1513 17.4435 65.9928 17.9415 65.7605 18.4061L63.0857 23.7545C62.4075 25.1106 61.0214 25.9672 59.5052 25.9672C58.4436 25.9672 57.4255 25.5455 56.6747 24.7949L53.6052 21.726C52.9072 21.0281 52.0183 20.5525 51.0504 20.3589L48.203 19.7896C47.1812 19.5852 46.2488 19.0668 45.536 18.3067L42.2411 14.7928C39.9904 12.3925 36.0749 12.7831 34.3427 15.5807L30.9159 21.1153C30.387 21.9694 29.6132 22.6444 28.6951 23.0523L26.1782 24.1708C25.2742 24.5725 24.5097 25.2333 23.9814 26.0696L20.6783 31.2985C19.0916 33.8103 15.6775 34.3926 13.3479 32.5487L4.90548 25.8664C4.02223 25.1673 2.92878 24.7869 1.80233 24.7869Z" fill="url(#paint0_linear_19444_10373)"/>
<path id="Line" d="M0 24.0984H1.84054C2.94358 24.0984 4.01566 24.4631 4.88983 25.1358L13.4168 31.6975C15.7296 33.4773 19.0687 32.9063 20.6587 30.4592L23.9686 25.3651C24.5053 24.539 25.2741 23.8899 26.1784 23.4993L28.6946 22.4122C29.6131 22.0154 30.3915 21.3521 30.929 20.5081L34.368 15.1081C36.1059 12.3793 39.9384 11.9943 42.1843 14.3229L45.5364 17.7985C46.2494 18.5378 47.1728 19.0396 48.1811 19.2356L51.0722 19.7976C52.0265 19.9832 52.906 20.4428 53.6031 21.1204L56.6635 24.0953C57.4226 24.8331 58.4394 25.2459 59.498 25.2459V25.2459C61.0215 25.2459 62.4172 24.3943 63.1141 23.0395L65.7442 17.9264C65.9873 17.4539 66.1534 16.9457 66.2365 16.4209L67.1959 10.3589C67.2595 9.9572 67.3719 9.56475 67.5305 9.19026L67.7006 8.7887C69.274 5.07453 74.3715 4.65636 76.5291 8.06446L79.3958 12.5926C80.3125 14.0404 81.9067 14.918 83.6204 14.918H85" stroke="#5E718D" stroke-width="1.5"/>
</g>
<defs>
<linearGradient id="paint0_linear_19444_10373" x1="42.5" y1="15" x2="42.5" y2="35" gradientUnits="userSpaceOnUse">
<stop stop-color="#5E718D"/>
<stop offset="1" stop-color="#5E718D" stop-opacity="0"/>
</linearGradient>
</defs>
</svg>
