<svg width="109" height="40" viewBox="0 0 292 120" fill="none" xmlns="http://www.w3.org/2000/svg">
<rect width="120" height="120" rx="40" fill="#161819"/>
<path d="M62.6995 89.1918L46.2602 69.3904L62.6186 50.3973H73.2272L54.4394 71.7342L54.8443 66.6425L74.037 89.1918H62.6995ZM38 89.1918V31H46.908V89.1918H38Z" fill="white"/>
<path d="M84.0883 90C82.3607 90 80.93 89.4342 79.7963 88.3027C78.7165 87.1173 78.1766 85.6895 78.1766 84.0192C78.1766 82.295 78.7165 80.8671 79.7963 79.7356C80.93 78.6041 82.3607 78.0384 84.0883 78.0384C85.8159 78.0384 87.2196 78.6041 88.2994 79.7356C89.4331 80.8671 90 82.295 90 84.0192C90 85.6895 89.4331 87.1173 88.2994 88.3027C87.2196 89.4342 85.8159 90 84.0883 90Z" fill="white"/>
<path d="M272.935 89.8001C270.002 89.8001 267.388 89.1867 265.095 87.96C262.802 86.68 260.988 84.9467 259.655 82.7601C258.375 80.5734 257.735 78.0934 257.735 75.32V64.28C257.735 61.5067 258.402 59.0267 259.735 56.84C261.068 54.6534 262.882 52.9467 265.175 51.72C267.468 50.44 270.055 49.8 272.935 49.8C276.402 49.8 279.522 50.7067 282.295 52.52C285.122 54.28 287.335 56.68 288.935 59.72C290.588 62.7067 291.415 66.0934 291.415 69.8801C291.415 73.6134 290.588 77 288.935 80.0401C287.335 83.0267 285.122 85.4001 282.295 87.1601C279.522 88.9201 276.402 89.8001 272.935 89.8001ZM271.495 81.4801C273.628 81.4801 275.495 81 277.095 80.0401C278.748 79.0267 280.028 77.64 280.935 75.88C281.895 74.12 282.375 72.0934 282.375 69.8C282.375 67.5067 281.895 65.48 280.935 63.72C280.028 61.96 278.748 60.6 277.095 59.64C275.495 58.6267 273.628 58.12 271.495 58.12C269.362 58.12 267.468 58.6267 265.815 59.64C264.162 60.6 262.882 61.96 261.975 63.72C261.068 65.48 260.615 67.5067 260.615 69.8C260.615 72.0934 261.068 74.12 261.975 75.88C262.882 77.64 264.162 79.0267 265.815 80.0401C267.468 81 269.362 81.4801 271.495 81.4801ZM252.375 105V50.6H261.175V60.92L259.655 70.28L261.175 79.56V105H252.375Z" fill="#161819"/>
<path d="M231.481 89.8001C227.641 89.8001 224.174 88.9467 221.081 87.24C218.041 85.48 215.614 83.0801 213.801 80.0401C212.041 77 211.161 73.5867 211.161 69.8C211.161 66.0134 212.041 62.6267 213.801 59.64C215.561 56.6 217.934 54.2 220.921 52.44C223.961 50.68 227.321 49.8 231.001 49.8C234.574 49.8 237.721 50.6267 240.441 52.28C243.214 53.9334 245.374 56.2 246.921 59.08C248.521 61.96 249.321 65.24 249.321 68.92C249.321 69.56 249.267 70.2267 249.161 70.92C249.107 71.56 249.001 72.2801 248.841 73.0801H217.321V65.8801H244.281L241.001 68.76C240.894 66.4134 240.441 64.44 239.641 62.84C238.841 61.24 237.694 60.0134 236.201 59.16C234.761 58.3067 232.974 57.88 230.841 57.88C228.601 57.88 226.654 58.36 225.001 59.32C223.347 60.28 222.067 61.64 221.161 63.4C220.254 65.1067 219.801 67.16 219.801 69.56C219.801 71.96 220.281 74.0667 221.241 75.88C222.201 77.6934 223.561 79.1067 225.321 80.1201C227.081 81.0801 229.107 81.56 231.401 81.56C233.374 81.56 235.187 81.2134 236.841 80.52C238.547 79.8267 239.987 78.8134 241.161 77.48L246.761 83.16C244.894 85.3467 242.627 87.0001 239.961 88.1201C237.294 89.2401 234.467 89.8001 231.481 89.8001Z" fill="#161819"/>
<path d="M192.746 89.8001C188.906 89.8001 185.44 88.9467 182.346 87.24C179.306 85.48 176.88 83.0801 175.066 80.0401C173.306 77 172.426 73.5867 172.426 69.8C172.426 66.0134 173.306 62.6267 175.066 59.64C176.826 56.6 179.2 54.2 182.186 52.44C185.226 50.68 188.586 49.8 192.266 49.8C195.84 49.8 198.986 50.6267 201.706 52.28C204.48 53.9334 206.64 56.2 208.186 59.08C209.786 61.96 210.586 65.24 210.586 68.92C210.586 69.56 210.533 70.2267 210.426 70.92C210.373 71.56 210.266 72.2801 210.106 73.0801H178.586V65.8801H205.546L202.266 68.76C202.16 66.4134 201.706 64.44 200.906 62.84C200.106 61.24 198.96 60.0134 197.466 59.16C196.026 58.3067 194.24 57.88 192.106 57.88C189.866 57.88 187.92 58.36 186.266 59.32C184.613 60.28 183.333 61.64 182.426 63.4C181.52 65.1067 181.066 67.16 181.066 69.56C181.066 71.96 181.546 74.0667 182.506 75.88C183.466 77.6934 184.826 79.1067 186.586 80.1201C188.346 81.0801 190.373 81.56 192.666 81.56C194.64 81.56 196.453 81.2134 198.106 80.52C199.813 79.8267 201.253 78.8134 202.426 77.48L208.026 83.16C206.16 85.3467 203.893 87.0001 201.226 88.1201C198.56 89.2401 195.733 89.8001 192.746 89.8001Z" fill="#161819"/>
<path d="M164.4 89L148.16 69.4L164.32 50.6H174.8L156.24 71.72L156.64 66.68L175.6 89H164.4ZM140 89V31.4H148.8V89H140Z" fill="#161819"/>
<rect x="213" y="16" width="78" height="29" rx="6" fill="#1D95C9"/>
<path d="M273.139 36.8153V24.3693H274.818V36.8153H273.139ZM270.957 29.5582V28.044H277V29.5582H270.957Z" fill="white"/>
<path d="M265.808 37C264.938 37 264.148 36.7969 263.439 36.3907C262.743 35.9844 262.19 35.4366 261.779 34.7472C261.381 34.0455 261.182 33.2699 261.182 32.4205C261.182 31.5587 261.381 30.7832 261.779 30.0938C262.19 29.4044 262.743 28.8627 263.439 28.4688C264.148 28.0625 264.938 27.8594 265.808 27.8594C266.492 27.8594 267.126 27.9886 267.711 28.2472C268.295 28.4934 268.799 28.8565 269.222 29.3367L268.103 30.4446C267.829 30.1245 267.493 29.8845 267.095 29.7244C266.71 29.5521 266.281 29.4659 265.808 29.4659C265.249 29.4659 264.751 29.5952 264.316 29.8537C263.881 30.0999 263.539 30.4446 263.29 30.8878C263.041 31.331 262.917 31.8419 262.917 32.4205C262.917 32.9991 263.041 33.51 263.29 33.9531C263.539 34.3963 263.881 34.7472 264.316 35.0057C264.751 35.2642 265.249 35.3935 265.808 35.3935C266.281 35.3935 266.71 35.3135 267.095 35.1534C267.493 34.9811 267.835 34.7349 268.121 34.4148L269.222 35.5227C268.811 35.9906 268.308 36.3537 267.711 36.6122C267.126 36.8708 266.492 37 265.808 37Z" fill="white"/>
<path d="M253.672 37C252.864 37 252.13 36.8031 251.471 36.4091C250.812 36.0029 250.29 35.455 249.904 34.7656C249.531 34.0762 249.345 33.3007 249.345 32.4389C249.345 31.5772 249.531 30.8016 249.904 30.1122C250.29 29.4228 250.806 28.875 251.452 28.4688C252.112 28.0625 252.851 27.8594 253.672 27.8594C254.344 27.8594 254.94 28.0009 255.463 28.2841C255.997 28.5549 256.426 28.9366 256.75 29.429C257.073 29.9091 257.253 30.4692 257.291 31.1094V33.75C257.253 34.3779 257.073 34.938 256.75 35.4304C256.439 35.9228 256.016 36.3106 255.481 36.5938C254.959 36.8646 254.356 37 253.672 37ZM253.952 35.4304C254.785 35.4304 255.457 35.1534 255.966 34.5995C256.476 34.0332 256.731 33.313 256.731 32.4389C256.731 31.8357 256.613 31.3125 256.377 30.8693C256.153 30.4138 255.83 30.063 255.407 29.8168C254.984 29.5582 254.493 29.429 253.933 29.429C253.374 29.429 252.876 29.5582 252.441 29.8168C252.018 30.0753 251.682 30.4323 251.434 30.8878C251.198 31.331 251.079 31.8419 251.079 32.4205C251.079 33.0114 251.198 33.5346 251.434 33.9901C251.682 34.4333 252.024 34.7841 252.46 35.0426C252.895 35.3012 253.392 35.4304 253.952 35.4304ZM256.619 36.8154V34.4517L256.936 32.3097L256.619 30.1861V28.044H258.317V36.8154H256.619Z" fill="white"/>
<path d="M243.008 37C242.125 37 241.329 36.8031 240.62 36.4091C239.911 36.0029 239.352 35.455 238.941 34.7656C238.531 34.0762 238.326 33.2945 238.326 32.4205C238.326 31.5587 238.525 30.7832 238.923 30.0938C239.333 29.4044 239.88 28.8627 240.564 28.4688C241.26 28.0625 242.038 27.8594 242.896 27.8594C243.716 27.8594 244.438 28.044 245.059 28.4134C245.694 28.7827 246.185 29.2936 246.533 29.946C246.894 30.5985 247.074 31.3371 247.074 32.1619C247.074 32.2851 247.068 32.4205 247.055 32.5682C247.043 32.7036 247.018 32.8637 246.981 33.0483H239.501V31.6634H246.085L245.47 32.1989C245.47 31.608 245.364 31.1094 245.153 30.7031C244.941 30.2846 244.643 29.9645 244.257 29.7429C243.872 29.509 243.406 29.3921 242.858 29.3921C242.286 29.3921 241.783 29.5152 241.348 29.7614C240.912 30.0076 240.577 30.3523 240.34 30.7955C240.104 31.2386 239.986 31.7618 239.986 32.3651C239.986 32.9806 240.11 33.5223 240.359 33.9901C240.608 34.4456 240.962 34.8026 241.422 35.0611C241.882 35.3073 242.411 35.4304 243.008 35.4304C243.505 35.4304 243.959 35.3442 244.369 35.1719C244.792 34.9995 245.153 34.741 245.451 34.3963L246.533 35.4858C246.11 35.9782 245.588 36.3537 244.966 36.6122C244.357 36.8708 243.704 37 243.008 37Z" fill="white"/>
<path d="M228.175 31.2387V29.7798H231.682C232.44 29.7798 233.025 29.589 233.435 29.2074C233.845 28.8258 234.051 28.3087 234.051 27.6563C234.051 27.0407 233.845 26.5298 233.435 26.1236C233.037 25.7173 232.459 25.5142 231.7 25.5142H228.175V24H231.756C232.577 24 233.292 24.16 233.901 24.4801C234.511 24.7879 234.977 25.2126 235.3 25.7543C235.636 26.2959 235.804 26.9176 235.804 27.6193C235.804 28.3457 235.636 28.9797 235.3 29.5213C234.977 30.063 234.511 30.4877 233.901 30.7955C233.292 31.0909 232.577 31.2387 231.756 31.2387H228.175ZM227 36.8154V24H228.753V36.8154H227ZM234.461 36.8154L229.761 31.0725L231.421 30.5L236.681 36.8154H234.461Z" fill="white"/>
</svg>
