<svg width="113" height="40" viewBox="0 0 113 40" fill="none" xmlns="http://www.w3.org/2000/svg">
<rect width="40" height="40" rx="13.5003" fill="#161819"/>
<path d="M20.9691 31.6712L14.2571 23.6164L20.936 15.8904H25.2674L17.5966 24.5699L17.7619 22.4986L25.598 31.6712H20.9691ZM10.8846 31.6712V8H14.5217V31.6712H10.8846Z" fill="white"/>
<path d="M29.7018 32C28.9964 32 28.4123 31.7699 27.9494 31.3096C27.5085 30.8274 27.2881 30.2466 27.2881 29.5671C27.2881 28.8658 27.5085 28.2849 27.9494 27.8247C28.4123 27.3644 28.9964 27.1342 29.7018 27.1342C30.4071 27.1342 30.9802 27.3644 31.4211 27.8247C31.884 28.2849 32.1154 28.8658 32.1154 29.5671C32.1154 30.2466 31.884 30.8274 31.4211 31.3096C30.9802 31.7699 30.4071 32 29.7018 32Z" fill="white"/>
<path d="M61.2439 32.5972L55.0914 24.9672L61.2136 17.6486H65.1839L58.1525 25.8703L58.304 23.9083L65.4869 32.5972H61.2439ZM52 32.5972V10.1743H55.3339V32.5972H52Z" fill="#161819"/>
<path d="M73.1951 32.9086C71.7403 32.9086 70.4269 32.5764 69.255 31.912C68.1034 31.2269 67.184 30.2926 66.497 29.1092C65.8303 27.9257 65.4969 26.597 65.4969 25.1229C65.4969 23.6488 65.8303 22.3304 66.497 21.1677C67.1638 19.9843 68.0629 19.05 69.1944 18.3649C70.3461 17.6797 71.619 17.3371 73.0132 17.3371C74.367 17.3371 75.5591 17.6589 76.5895 18.3026C77.6402 18.9462 78.4585 19.8286 79.0444 20.9497C79.6506 22.0709 79.9537 23.3477 79.9537 24.7803C79.9537 25.0294 79.9335 25.289 79.8931 25.5589C79.8729 25.808 79.8324 26.0883 79.7718 26.3997H67.8306V23.5969H78.0443L76.8017 24.718C76.7613 23.8045 76.5895 23.0363 76.2864 22.4134C75.9834 21.7906 75.549 21.3131 74.9832 20.9809C74.4377 20.6487 73.7608 20.4826 72.9526 20.4826C72.104 20.4826 71.3665 20.6694 70.7401 21.0431C70.1138 21.4169 69.6288 21.9463 69.2854 22.6314C68.9419 23.2958 68.7701 24.0952 68.7701 25.0294C68.7701 25.9637 68.952 26.7838 69.3157 27.4897C69.6794 28.1956 70.1946 28.7458 70.8614 29.1403C71.5281 29.514 72.2959 29.7009 73.1647 29.7009C73.9123 29.7009 74.5993 29.5659 75.2257 29.296C75.8722 29.0261 76.4178 28.6316 76.8623 28.1126L78.9838 30.3237C78.2766 31.175 77.4179 31.8186 76.4077 32.2546C75.3974 32.6906 74.3265 32.9086 73.1951 32.9086Z" fill="#161819"/>
<path d="M89.0817 32.9086C87.627 32.9086 86.3136 32.5764 85.1417 31.912C83.9901 31.2269 83.0707 30.2926 82.3837 29.1092C81.717 27.9257 81.3836 26.597 81.3836 25.1229C81.3836 23.6488 81.717 22.3304 82.3837 21.1677C83.0505 19.9843 83.9496 19.05 85.0811 18.3649C86.2328 17.6797 87.5057 17.3371 88.8999 17.3371C90.2536 17.3371 91.4458 17.6589 92.4762 18.3026C93.5269 18.9462 94.3452 19.8286 94.9311 20.9497C95.5373 22.0709 95.8404 23.3477 95.8404 24.7803C95.8404 25.0294 95.8202 25.289 95.7798 25.5589C95.7596 25.808 95.7191 26.0883 95.6585 26.3997H83.7173V23.5969H93.931L92.6884 24.718C92.648 23.8045 92.4762 23.0363 92.1731 22.4134C91.8701 21.7906 91.4356 21.3131 90.8699 20.9809C90.3244 20.6487 89.6475 20.4826 88.8393 20.4826C87.9907 20.4826 87.2532 20.6694 86.6268 21.0431C86.0005 21.4169 85.5155 21.9463 85.1721 22.6314C84.8286 23.2958 84.6568 24.0952 84.6568 25.0294C84.6568 25.9637 84.8387 26.7838 85.2024 27.4897C85.5661 28.1956 86.0813 28.7458 86.7481 29.1403C87.4148 29.514 88.1826 29.7009 89.0514 29.7009C89.799 29.7009 90.486 29.5659 91.1124 29.296C91.7589 29.0261 92.3045 28.6316 92.749 28.1126L94.8705 30.3237C94.1633 31.175 93.3046 31.8186 92.2944 32.2546C91.2841 32.6906 90.2132 32.9086 89.0817 32.9086Z" fill="#161819"/>
<path d="M105.999 32.9086C104.888 32.9086 103.898 32.6698 103.029 32.1923C102.16 31.694 101.473 31.0193 100.968 30.168C100.483 29.3168 100.24 28.3514 100.24 27.2717V22.974C100.24 21.8944 100.493 20.929 100.998 20.0777C101.503 19.2265 102.19 18.5621 103.059 18.0846C103.928 17.5863 104.908 17.3371 105.999 17.3371C107.312 17.3371 108.494 17.6901 109.545 18.396C110.616 19.0811 111.454 20.0154 112.06 21.1989C112.687 22.3615 113 23.6799 113 25.154C113 26.6074 112.687 27.9257 112.06 29.1092C111.454 30.2718 110.616 31.1957 109.545 31.8809C108.494 32.566 107.312 32.9086 105.999 32.9086ZM105.453 29.6697C106.262 29.6697 106.969 29.4829 107.575 29.1092C108.201 28.7147 108.686 28.1749 109.03 27.4897C109.393 26.8046 109.575 26.0156 109.575 25.1229C109.575 24.2301 109.393 23.4412 109.03 22.756C108.686 22.0709 108.201 21.5414 107.575 21.1677C106.969 20.7732 106.262 20.576 105.453 20.576C104.645 20.576 103.928 20.7732 103.302 21.1677C102.675 21.5414 102.19 22.0709 101.847 22.756C101.503 23.4412 101.332 24.2301 101.332 25.1229C101.332 26.0156 101.503 26.8046 101.847 27.4897C102.19 28.1749 102.675 28.7147 103.302 29.1092C103.928 29.4829 104.645 29.6697 105.453 29.6697ZM98.2098 38.8258V17.6486H101.544V21.666L100.968 25.3097L101.544 28.9223V38.8258H98.2098Z" fill="#161819"/>
</svg>
