
<svg width="109" height="40" viewBox="0 0 292 120" fill="none" xmlns="http://www.w3.org/2000/svg">
<rect width="120" height="120" rx="40" fill="white"/>
<path d="M62.6995 89.1918L46.2602 69.3904L62.6186 50.3973H73.2272L54.4394 71.7342L54.8443 66.6425L74.037 89.1918H62.6995ZM38 89.1918V31H46.908V89.1918H38Z" fill="#161819"/>
<path d="M84.0883 90C82.3607 90 80.93 89.4342 79.7963 88.3027C78.7165 87.1173 78.1766 85.6895 78.1766 84.0192C78.1766 82.295 78.7165 80.8671 79.7963 79.7356C80.93 78.6041 82.3607 78.0384 84.0883 78.0384C85.8159 78.0384 87.2196 78.6041 88.2994 79.7356C89.4331 80.8671 90 82.295 90 84.0192C90 85.6895 89.4331 87.1173 88.2994 88.3027C87.2196 89.4342 85.8159 90 84.0883 90Z" fill="#161819"/>
<path d="M272.935 89.7998C270.002 89.7998 267.388 89.1865 265.095 87.9598C262.802 86.6798 260.988 84.9465 259.655 82.7598C258.375 80.5731 257.735 78.0931 257.735 75.3198V64.2798C257.735 61.5065 258.402 59.0265 259.735 56.8398C261.068 54.6531 262.882 52.9465 265.175 51.7198C267.468 50.4398 270.055 49.7998 272.935 49.7998C276.402 49.7998 279.522 50.7065 282.295 52.5198C285.122 54.2798 287.335 56.6798 288.935 59.7198C290.588 62.7065 291.415 66.0931 291.415 69.8798C291.415 73.6131 290.588 76.9998 288.935 80.0398C287.335 83.0265 285.122 85.3998 282.295 87.1598C279.522 88.9198 276.402 89.7998 272.935 89.7998ZM271.495 81.4798C273.628 81.4798 275.495 80.9998 277.095 80.0398C278.748 79.0265 280.028 77.6398 280.935 75.8798C281.895 74.1198 282.375 72.0931 282.375 69.7998C282.375 67.5065 281.895 65.4798 280.935 63.7198C280.028 61.9598 278.748 60.5998 277.095 59.6398C275.495 58.6265 273.628 58.1198 271.495 58.1198C269.362 58.1198 267.468 58.6265 265.815 59.6398C264.162 60.5998 262.882 61.9598 261.975 63.7198C261.068 65.4798 260.615 67.5065 260.615 69.7998C260.615 72.0931 261.068 74.1198 261.975 75.8798C262.882 77.6398 264.162 79.0265 265.815 80.0398C267.468 80.9998 269.362 81.4798 271.495 81.4798ZM252.375 105V50.5998H261.175V60.9198L259.655 70.2798L261.175 79.5598V105H252.375Z" fill="white"/>
<path d="M231.481 89.7998C227.641 89.7998 224.174 88.9465 221.081 87.2398C218.041 85.4798 215.614 83.0798 213.801 80.0398C212.041 76.9998 211.161 73.5865 211.161 69.7998C211.161 66.0131 212.041 62.6265 213.801 59.6398C215.561 56.5998 217.934 54.1998 220.921 52.4398C223.961 50.6798 227.321 49.7998 231.001 49.7998C234.574 49.7998 237.721 50.6265 240.441 52.2798C243.214 53.9331 245.374 56.1998 246.921 59.0798C248.521 61.9598 249.321 65.2398 249.321 68.9198C249.321 69.5598 249.267 70.2265 249.161 70.9198C249.107 71.5598 249.001 72.2798 248.841 73.0798H217.321V65.8798H244.281L241.001 68.7598C240.894 66.4131 240.441 64.4398 239.641 62.8398C238.841 61.2398 237.694 60.0131 236.201 59.1598C234.761 58.3065 232.974 57.8798 230.841 57.8798C228.601 57.8798 226.654 58.3598 225.001 59.3198C223.347 60.2798 222.067 61.6398 221.161 63.3998C220.254 65.1065 219.801 67.1598 219.801 69.5598C219.801 71.9598 220.281 74.0665 221.241 75.8798C222.201 77.6931 223.561 79.1065 225.321 80.1198C227.081 81.0798 229.107 81.5598 231.401 81.5598C233.374 81.5598 235.187 81.2131 236.841 80.5198C238.547 79.8265 239.987 78.8131 241.161 77.4798L246.761 83.1598C244.894 85.3465 242.627 86.9998 239.961 88.1198C237.294 89.2398 234.467 89.7998 231.481 89.7998Z" fill="white"/>
<path d="M192.746 89.7998C188.906 89.7998 185.44 88.9465 182.346 87.2398C179.306 85.4798 176.88 83.0798 175.066 80.0398C173.306 76.9998 172.426 73.5865 172.426 69.7998C172.426 66.0131 173.306 62.6265 175.066 59.6398C176.826 56.5998 179.2 54.1998 182.186 52.4398C185.226 50.6798 188.586 49.7998 192.266 49.7998C195.84 49.7998 198.986 50.6265 201.706 52.2798C204.48 53.9331 206.64 56.1998 208.186 59.0798C209.786 61.9598 210.586 65.2398 210.586 68.9198C210.586 69.5598 210.533 70.2265 210.426 70.9198C210.373 71.5598 210.266 72.2798 210.106 73.0798H178.586V65.8798H205.546L202.266 68.7598C202.16 66.4131 201.706 64.4398 200.906 62.8398C200.106 61.2398 198.96 60.0131 197.466 59.1598C196.026 58.3065 194.24 57.8798 192.106 57.8798C189.866 57.8798 187.92 58.3598 186.266 59.3198C184.613 60.2798 183.333 61.6398 182.426 63.3998C181.52 65.1065 181.066 67.1598 181.066 69.5598C181.066 71.9598 181.546 74.0665 182.506 75.8798C183.466 77.6931 184.826 79.1065 186.586 80.1198C188.346 81.0798 190.373 81.5598 192.666 81.5598C194.64 81.5598 196.453 81.2131 198.106 80.5198C199.813 79.8265 201.253 78.8131 202.426 77.4798L208.026 83.1598C206.16 85.3465 203.893 86.9998 201.226 88.1198C198.56 89.2398 195.733 89.7998 192.746 89.7998Z" fill="white"/>
<path d="M164.4 88.9999L148.16 69.3999L164.32 50.5999H174.8L156.24 71.7199L156.64 66.6799L175.6 88.9999H164.4ZM140 88.9999V31.3999H148.8V88.9999H140Z" fill="white"/>
<rect x="213" y="16" width="78" height="29" rx="6" fill="#1D95C9"/>
<path d="M273.139 36.8152V24.3691H274.818V36.8152H273.139ZM270.957 29.5581V28.0439H277V29.5581H270.957Z" fill="white"/>
<path d="M265.808 37C264.938 37 264.148 36.7969 263.44 36.3907C262.743 35.9844 262.19 35.4366 261.78 34.7472C261.382 34.0455 261.183 33.2699 261.183 32.4205C261.183 31.5587 261.382 30.7832 261.78 30.0938C262.19 29.4044 262.743 28.8627 263.44 28.4688C264.148 28.0625 264.938 27.8594 265.808 27.8594C266.492 27.8594 267.127 27.9886 267.711 28.2472C268.295 28.4934 268.799 28.8565 269.222 29.3367L268.103 30.4446C267.829 30.1245 267.493 29.8845 267.095 29.7244C266.71 29.5521 266.281 29.4659 265.808 29.4659C265.249 29.4659 264.751 29.5952 264.316 29.8537C263.881 30.0999 263.539 30.4446 263.29 30.8878C263.042 31.331 262.917 31.8419 262.917 32.4205C262.917 32.9991 263.042 33.51 263.29 33.9531C263.539 34.3963 263.881 34.7472 264.316 35.0057C264.751 35.2642 265.249 35.3935 265.808 35.3935C266.281 35.3935 266.71 35.3135 267.095 35.1534C267.493 34.9811 267.835 34.7349 268.121 34.4148L269.222 35.5227C268.812 35.9906 268.308 36.3537 267.711 36.6122C267.127 36.8708 266.492 37 265.808 37Z" fill="white"/>
<path d="M253.672 37C252.864 37 252.13 36.8031 251.471 36.4091C250.812 36.0029 250.29 35.455 249.904 34.7656C249.531 34.0762 249.345 33.3007 249.345 32.4389C249.345 31.5772 249.531 30.8016 249.904 30.1122C250.29 29.4228 250.806 28.875 251.452 28.4688C252.112 28.0625 252.851 27.8594 253.672 27.8594C254.344 27.8594 254.94 28.0009 255.463 28.2841C255.997 28.5549 256.426 28.9366 256.75 29.429C257.073 29.9091 257.253 30.4692 257.291 31.1094V33.75C257.253 34.3779 257.073 34.938 256.75 35.4304C256.439 35.9228 256.016 36.3106 255.481 36.5938C254.959 36.8646 254.356 37 253.672 37ZM253.952 35.4304C254.785 35.4304 255.457 35.1534 255.966 34.5995C256.476 34.0332 256.731 33.313 256.731 32.4389C256.731 31.8357 256.613 31.3125 256.377 30.8693C256.153 30.4138 255.83 30.063 255.407 29.8168C254.984 29.5582 254.493 29.429 253.933 29.429C253.374 29.429 252.876 29.5582 252.441 29.8168C252.018 30.0753 251.683 30.4323 251.434 30.8878C251.198 31.331 251.079 31.8419 251.079 32.4205C251.079 33.0114 251.198 33.5346 251.434 33.9901C251.683 34.4333 252.024 34.7841 252.46 35.0426C252.895 35.3012 253.392 35.4304 253.952 35.4304ZM256.619 36.8154V34.4517L256.936 32.3097L256.619 30.1861V28.044H258.317V36.8154H256.619Z" fill="white"/>
<path d="M243.007 37C242.125 37 241.329 36.8031 240.62 36.4091C239.911 36.0029 239.352 35.455 238.941 34.7656C238.531 34.0762 238.326 33.2945 238.326 32.4205C238.326 31.5587 238.525 30.7832 238.923 30.0938C239.333 29.4044 239.88 28.8627 240.564 28.4688C241.26 28.0625 242.038 27.8594 242.896 27.8594C243.716 27.8594 244.438 28.044 245.059 28.4134C245.693 28.7827 246.185 29.2936 246.533 29.946C246.893 30.5985 247.074 31.3371 247.074 32.1619C247.074 32.2851 247.068 32.4205 247.055 32.5682C247.043 32.7036 247.018 32.8637 246.98 33.0483H239.501V31.6634H246.085L245.47 32.1989C245.47 31.608 245.364 31.1094 245.153 30.7031C244.941 30.2846 244.643 29.9645 244.257 29.7429C243.872 29.509 243.405 29.3921 242.858 29.3921C242.286 29.3921 241.783 29.5152 241.347 29.7614C240.912 30.0076 240.576 30.3523 240.34 30.7955C240.104 31.2386 239.986 31.7618 239.986 32.3651C239.986 32.9806 240.11 33.5223 240.359 33.9901C240.608 34.4456 240.962 34.8026 241.422 35.0611C241.882 35.3073 242.411 35.4304 243.007 35.4304C243.505 35.4304 243.959 35.3442 244.369 35.1719C244.792 34.9995 245.153 34.741 245.451 34.3963L246.533 35.4858C246.11 35.9782 245.588 36.3537 244.966 36.6122C244.357 36.8708 243.704 37 243.007 37Z" fill="white"/>
<path d="M228.175 31.2387V29.7798H231.682C232.44 29.7798 233.025 29.589 233.435 29.2074C233.845 28.8258 234.051 28.3087 234.051 27.6563C234.051 27.0407 233.845 26.5298 233.435 26.1236C233.037 25.7173 232.459 25.5142 231.7 25.5142H228.175V24H231.756C232.577 24 233.292 24.16 233.901 24.4801C234.511 24.7879 234.977 25.2126 235.3 25.7543C235.636 26.2959 235.804 26.9176 235.804 27.6193C235.804 28.3457 235.636 28.9797 235.3 29.5213C234.977 30.063 234.511 30.4877 233.901 30.7955C233.292 31.0909 232.577 31.2387 231.756 31.2387H228.175ZM227 36.8154V24H228.753V36.8154H227ZM234.461 36.8154L229.761 31.0725L231.421 30.5L236.681 36.8154H234.461Z" fill="white"/>
</svg>
