<svg width="290" height="120" viewBox="0 0 290 120" fill="none" xmlns="http://www.w3.org/2000/svg">
<rect width="120" height="120" rx="40" fill="#161819"/>
<path d="M62.6995 89.1918L46.2602 69.3904L62.6186 50.3973H73.2272L54.4394 71.7342L54.8443 66.6425L74.037 89.1918H62.6995ZM38 89.1918V31H46.908V89.1918H38Z" fill="white"/>
<path d="M84.0883 90C82.3607 90 80.93 89.4342 79.7963 88.3027C78.7165 87.1173 78.1766 85.6895 78.1766 84.0192C78.1766 82.295 78.7165 80.8671 79.7963 79.7356C80.93 78.6041 82.3607 78.0384 84.0883 78.0384C85.8159 78.0384 87.2196 78.6041 88.2994 79.7356C89.4331 80.8671 90 82.295 90 84.0192C90 85.6895 89.4331 87.1173 88.2994 88.3027C87.2196 89.4342 85.8159 90 84.0883 90Z" fill="white"/>
<path d="M163.084 75.28L148.062 57.15L163.01 39.76H172.704L155.536 59.296L155.906 54.634L173.444 75.28H163.084ZM140.514 75.28V22H148.654V75.28H140.514Z" fill="#161819"/>
<path d="M192.264 76.02C188.712 76.02 185.506 75.2307 182.644 73.652C179.832 72.024 177.588 69.804 175.91 66.992C174.282 64.18 173.468 61.0227 173.468 57.52C173.468 54.0173 174.282 50.8847 175.91 48.122C177.538 45.31 179.734 43.09 182.496 41.462C185.308 39.834 188.416 39.02 191.82 39.02C195.126 39.02 198.036 39.7847 200.552 41.314C203.118 42.8433 205.116 44.94 206.546 47.604C208.026 50.268 208.766 53.302 208.766 56.706C208.766 57.298 208.717 57.9147 208.618 58.556C208.569 59.148 208.47 59.814 208.322 60.554H179.166V53.894H204.104L201.07 56.558C200.972 54.3873 200.552 52.562 199.812 51.082C199.072 49.602 198.012 48.4673 196.63 47.678C195.298 46.8887 193.646 46.494 191.672 46.494C189.6 46.494 187.8 46.938 186.27 47.826C184.741 48.714 183.557 49.972 182.718 51.6C181.88 53.1787 181.46 55.078 181.46 57.298C181.46 59.518 181.904 61.4667 182.792 63.144C183.68 64.8213 184.938 66.1287 186.566 67.066C188.194 67.954 190.069 68.398 192.19 68.398C194.016 68.398 195.693 68.0773 197.222 67.436C198.801 66.7947 200.133 65.8573 201.218 64.624L206.398 69.878C204.672 71.9007 202.575 73.43 200.108 74.466C197.642 75.502 195.027 76.02 192.264 76.02Z" fill="#161819"/>
<path d="M231.054 76.02C227.502 76.02 224.295 75.2307 221.434 73.652C218.622 72.024 216.377 69.804 214.7 66.992C213.072 64.18 212.258 61.0227 212.258 57.52C212.258 54.0173 213.072 50.8847 214.7 48.122C216.328 45.31 218.523 43.09 221.286 41.462C224.098 39.834 227.206 39.02 230.61 39.02C233.915 39.02 236.826 39.7847 239.342 41.314C241.907 42.8433 243.905 44.94 245.336 47.604C246.816 50.268 247.556 53.302 247.556 56.706C247.556 57.298 247.506 57.9147 247.408 58.556C247.358 59.148 247.26 59.814 247.112 60.554H217.956V53.894H242.894L239.86 56.558C239.761 54.3873 239.342 52.562 238.602 51.082C237.862 49.602 236.801 48.4673 235.42 47.678C234.088 46.8887 232.435 46.494 230.462 46.494C228.39 46.494 226.589 46.938 225.06 47.826C223.53 48.714 222.346 49.972 221.508 51.6C220.669 53.1787 220.25 55.078 220.25 57.298C220.25 59.518 220.694 61.4667 221.582 63.144C222.47 64.8213 223.728 66.1287 225.356 67.066C226.984 67.954 228.858 68.398 230.98 68.398C232.805 68.398 234.482 68.0773 236.012 67.436C237.59 66.7947 238.922 65.8573 240.008 64.624L245.188 69.878C243.461 71.9007 241.364 73.43 238.898 74.466C236.431 75.502 233.816 76.02 231.054 76.02Z" fill="#161819"/>
<path d="M272.359 76.02C269.646 76.02 267.228 75.4527 265.107 74.318C262.986 73.134 261.308 71.5307 260.075 69.508C258.891 67.4853 258.299 65.1913 258.299 62.626V52.414C258.299 49.8487 258.916 47.5547 260.149 45.532C261.382 43.5093 263.06 41.9307 265.181 40.796C267.302 39.612 269.695 39.02 272.359 39.02C275.566 39.02 278.452 39.8587 281.017 41.536C283.632 43.164 285.679 45.384 287.159 48.196C288.688 50.9587 289.453 54.0913 289.453 57.594C289.453 61.0473 288.688 64.18 287.159 66.992C285.679 69.7547 283.632 71.95 281.017 73.578C278.452 75.206 275.566 76.02 272.359 76.02ZM271.027 68.324C273 68.324 274.727 67.88 276.207 66.992C277.736 66.0547 278.92 64.772 279.759 63.144C280.647 61.516 281.091 59.6413 281.091 57.52C281.091 55.3987 280.647 53.524 279.759 51.896C278.92 50.268 277.736 49.01 276.207 48.122C274.727 47.1847 273 46.716 271.027 46.716C269.054 46.716 267.302 47.1847 265.773 48.122C264.244 49.01 263.06 50.268 262.221 51.896C261.382 53.524 260.963 55.3987 260.963 57.52C260.963 59.6413 261.382 61.516 262.221 63.144C263.06 64.772 264.244 66.0547 265.773 66.992C267.302 67.88 269.054 68.324 271.027 68.324ZM253.341 97V39.76H261.481V49.306L260.075 57.964L261.481 66.548V97H253.341Z" fill="#161819"/>
<rect x="165.994" y="83.1629" width="67" height="27.4819" rx="7.5" transform="rotate(-16.2022 165.994 83.1629)" fill="#1D95C9" stroke="white"/>
<path d="M221.595 87.5645L218.21 75.9143L219.766 75.4623L223.151 87.1124L221.595 87.5645ZM217.599 81.3591L217.187 79.9417L222.787 78.3144L223.199 79.7318L217.599 81.3591Z" fill="white"/>
<path d="M215.779 89.4419C214.973 89.6763 214.186 89.6988 213.418 89.5093C212.662 89.3166 212.001 88.9528 211.433 88.418C210.873 87.8683 210.478 87.1959 210.247 86.4008C210.013 85.5941 209.986 84.8146 210.167 84.0621C210.36 83.3063 210.725 82.6503 211.264 82.094C211.81 81.5229 212.486 81.1201 213.293 80.8858C213.927 80.7016 214.55 80.6518 215.162 80.7365C215.77 80.8096 216.336 81.0139 216.858 81.3495L216.122 82.6879C215.782 82.462 215.405 82.3277 214.993 82.285C214.589 82.2275 214.168 82.2623 213.73 82.3896C213.211 82.5402 212.786 82.7952 212.453 83.1544C212.116 83.502 211.893 83.9167 211.783 84.3986C211.673 84.8804 211.697 85.3921 211.854 85.9337C212.012 86.4753 212.266 86.92 212.617 87.2679C212.968 87.6158 213.38 87.8521 213.854 87.9769C214.328 88.1017 214.824 88.0888 215.342 87.9381C215.78 87.8108 216.156 87.6204 216.47 87.3668C216.791 87.0983 217.041 86.7758 217.219 86.3992L218.541 87.14C218.288 87.6883 217.92 88.1639 217.437 88.5666C216.966 88.966 216.413 89.2577 215.779 89.4419Z" fill="white"/>
<path d="M205.459 92.4402C204.71 92.6579 203.977 92.671 203.259 92.4797C202.538 92.2769 201.905 91.9048 201.36 91.3633C200.827 90.8184 200.443 90.1427 200.208 89.336C199.974 88.5294 199.936 87.7532 200.094 87.0074C200.264 86.2583 200.593 85.6066 201.082 85.0522C201.582 84.4944 202.212 84.1051 202.973 83.8841C203.595 83.7033 204.187 83.6751 204.748 83.7995C205.317 83.909 205.818 84.1507 206.252 84.5246C206.682 84.887 207.002 85.3627 207.21 85.9519L207.929 88.4237C208.065 89.0214 208.05 89.5943 207.884 90.1423C207.73 90.6869 207.444 91.1637 207.025 91.5728C206.615 91.9669 206.093 92.2561 205.459 92.4402ZM205.292 90.8956C206.064 90.6713 206.611 90.2312 206.932 89.5754C207.251 88.908 207.291 88.1653 207.053 87.3471C206.889 86.7825 206.638 86.3245 206.298 85.9733C205.967 85.6072 205.572 85.3658 205.113 85.2492C204.651 85.1211 204.16 85.1323 203.642 85.283C203.123 85.4337 202.698 85.6886 202.365 86.0478C202.043 86.4036 201.829 86.8282 201.723 87.3216C201.624 87.8 201.654 88.31 201.811 88.8516C201.972 89.4048 202.223 89.8627 202.566 90.2254C202.917 90.5733 203.33 90.8097 203.803 90.9345C204.277 91.0593 204.773 91.0463 205.292 90.8956ZM208.14 91.4738L207.497 89.2613L207.208 87.1709L206.337 85.2685L205.754 83.2634L207.327 82.8063L209.713 91.0168L208.14 91.4738Z" fill="white"/>
<path d="M196.503 95.0425C195.685 95.2803 194.894 95.3102 194.13 95.1323C193.363 94.9429 192.695 94.5808 192.128 94.046C191.56 93.5111 191.157 92.8346 190.919 92.0165C190.685 91.2099 190.658 90.4303 190.84 89.6778C191.032 88.922 191.392 88.2677 191.919 87.7148C192.453 87.147 193.118 86.7476 193.914 86.5166C194.674 86.2956 195.393 86.2742 196.069 86.4525C196.757 86.6274 197.352 86.9734 197.852 87.4904C198.363 88.004 198.731 88.6469 198.956 89.4189C198.989 89.5342 199.02 89.6626 199.049 89.8042C199.074 89.9343 199.095 90.0908 199.11 90.2737L192.179 92.2878L191.802 90.9914L197.904 89.2184L197.479 89.8854C197.318 89.3323 197.085 88.8941 196.779 88.5707C196.469 88.2359 196.105 88.0166 195.688 87.913C195.267 87.7978 194.803 87.8139 194.296 87.9613C193.766 88.1153 193.333 88.3661 192.996 88.7138C192.66 89.0614 192.442 89.4745 192.344 89.953C192.246 90.4314 192.279 90.953 192.443 91.5176C192.61 92.0938 192.873 92.5673 193.23 92.9383C193.585 93.2977 194.01 93.5364 194.507 93.6545C195 93.7611 195.523 93.734 196.077 93.5733C196.537 93.4394 196.935 93.2365 197.268 92.9647C197.613 92.6895 197.877 92.3504 198.06 91.9474L199.358 92.6759C199.101 93.2507 198.719 93.7428 198.213 94.1522C197.719 94.5582 197.149 94.855 196.503 95.0425Z" fill="white"/>
<path d="M182.118 93.3744L181.721 92.0089L184.971 91.0646C185.674 90.8604 186.163 90.5244 186.44 90.0567C186.716 89.5889 186.766 89.0497 186.588 88.439C186.421 87.8628 186.092 87.4398 185.601 87.1701C185.122 86.8969 184.531 86.8625 183.828 87.0667L180.561 88.016L180.149 86.5986L183.468 85.6343C184.228 85.4133 184.934 85.3706 185.586 85.5061C186.234 85.6301 186.782 85.9021 187.229 86.3221C187.688 86.7387 188.012 87.2755 188.203 87.9323C188.401 88.6122 188.417 89.2508 188.254 89.8483C188.101 90.4423 187.785 90.9655 187.304 91.4176C186.82 91.8583 186.197 92.1891 185.437 92.4101L182.118 93.3744ZM182.546 98.9109L179.06 86.915L180.685 86.4429L184.17 98.4388L182.546 98.9109ZM189.46 96.9019L183.542 92.7919L184.925 91.8091L191.517 96.3042L189.46 96.9019Z" fill="white"/>
</svg>
