<svg xmlns="http://www.w3.org/2000/svg" width="170" height="114" viewBox="0 0 170 114" fill="none">
<g clip-path="url(#clip0_2455_90230)">
<path d="M145.714 77.566C143.842 69.9059 126.152 58.7191 116.699 65.4636C113.797 50.8705 111.083 41.7703 101.602 34.5814C92.1221 27.3925 76.3039 36.7891 73.7634 56.4708C71.2228 48.38 58.3063 37.4757 47.9302 46.6704C38.3295 55.1785 37.3667 69.4349 38.3698 77.5526H145.714V77.566Z" fill="#F2F5FF"/>
<path d="M132.874 64.0196C132.697 63.0174 132.59 62.004 132.554 60.9867C132.486 58.968 132.713 56.5691 133.809 54.8122C134.948 52.9873 136.351 51.5962 137.679 50.8138C139.029 50.0189 140.183 49.9101 140.943 50.3902L140.943 50.3905C141.703 50.8693 142.108 51.9627 141.984 53.531C141.861 55.075 141.227 56.9512 140.089 58.7763C138.981 60.5529 137.079 61.9093 135.412 62.8294C134.72 63.2106 134.008 63.5536 133.279 63.8569C133.127 63.92 132.991 63.9742 132.874 64.0196ZM121.887 56.7694L121.887 56.7692C122.723 56.4428 123.837 56.769 125.013 57.8054C126.171 58.8256 127.288 60.4571 128.064 62.4642C128.819 64.4186 128.765 66.7626 128.504 68.6565C128.395 69.4422 128.244 70.2214 128.05 70.9905C128.014 71.1322 127.977 71.2735 127.938 71.4145C127.785 71.3376 127.632 71.2588 127.48 71.1781C126.738 70.7823 126.02 70.3434 125.328 69.8635C123.678 68.714 121.901 67.0991 121.154 65.1654C120.378 63.1564 120.106 61.194 120.275 59.6552C120.447 58.0922 121.05 57.0958 121.887 56.7694ZM123.077 84.2498L123.077 84.248C123.25 83.4302 123.374 82.6026 123.448 81.7699L123.448 81.7687C123.608 79.9875 123.539 77.9277 122.831 76.1912C122.018 74.1989 120.871 72.5888 119.694 71.5909C118.498 70.5772 117.378 70.2728 116.549 70.6155L116.549 70.6157C115.72 70.9571 115.136 71.9654 114.993 73.5324C114.852 75.0748 115.16 77.0321 115.973 79.0244L123.077 84.2498ZM123.077 84.2498C123.015 84.5493 122.947 84.8474 122.871 85.1437L123.077 84.2498ZM123.077 84.2498L122.871 85.1437L123.077 84.2498ZM122.871 85.1437L122.793 85.1065C122.048 84.7459 120.656 84.0123 119.289 82.966C117.915 81.9138 116.607 80.5776 115.973 79.0244L122.871 85.1437ZM129.095 71.029C129.189 70.9173 129.302 70.7854 129.432 70.6377C129.991 70.006 130.585 69.4076 131.213 68.8454C132.715 67.5045 134.696 66.1501 136.74 65.8786C138.863 65.5965 140.822 65.7962 142.269 66.3259C143.738 66.864 144.559 67.6892 144.677 68.5833C144.795 69.4785 144.216 70.4904 142.936 71.3943C141.677 72.2842 139.836 72.9889 137.713 73.2712C135.646 73.5456 133.394 72.9376 131.626 72.2345C130.757 71.8879 129.912 71.4853 129.095 71.029ZM132.366 85.7611C130.34 86.2509 128.037 85.882 126.207 85.3675C125.447 85.1533 124.7 84.8976 123.968 84.6015C123.834 84.5469 123.699 84.4908 123.566 84.4331C123.647 84.3123 123.746 84.1694 123.861 84.0087C124.351 83.322 124.88 82.6646 125.446 82.0398C126.801 80.5489 128.632 78.9942 130.635 78.51C132.717 78.0067 134.687 77.9998 136.18 78.3752C137.698 78.7565 138.599 79.4916 138.809 80.3694C139.018 81.2474 138.547 82.3143 137.368 83.3472C136.207 84.3642 134.45 85.2581 132.366 85.7611Z" fill="white"/>
<path d="M123.077 84.2498C123.015 84.5493 122.947 84.8474 122.871 85.1437M123.077 84.2498L122.871 85.1437M132.874 64.0196C132.697 63.0174 132.59 62.004 132.554 60.9867C132.486 58.968 132.713 56.5691 133.809 54.8122C134.948 52.9873 136.351 51.5962 137.679 50.8138C139.029 50.0189 140.183 49.9101 140.943 50.3902L140.943 50.3905C141.703 50.8693 142.108 51.9627 141.984 53.531C141.861 55.075 141.227 56.9512 140.089 58.7763C138.981 60.5529 137.079 61.9093 135.412 62.8294C134.72 63.2106 134.008 63.5536 133.279 63.8569C133.127 63.92 132.991 63.9742 132.874 64.0196V64.0196ZM121.887 56.7694L121.887 56.7692C122.723 56.4428 123.837 56.769 125.013 57.8054C126.171 58.8256 127.288 60.4571 128.064 62.4642C128.819 64.4186 128.765 66.7626 128.504 68.6565C128.395 69.4422 128.244 70.2214 128.05 70.9905C128.014 71.1322 127.977 71.2735 127.938 71.4145C127.785 71.3376 127.632 71.2588 127.48 71.1781C126.738 70.7823 126.02 70.3434 125.328 69.8635C123.678 68.714 121.901 67.0991 121.154 65.1654C120.378 63.1564 120.106 61.194 120.275 59.6552C120.447 58.0922 121.05 57.0958 121.887 56.7694V56.7694ZM123.077 84.2498L123.077 84.248C123.25 83.4302 123.374 82.6026 123.448 81.7699L123.448 81.7687C123.608 79.9875 123.539 77.9277 122.831 76.1912C122.018 74.1989 120.871 72.5888 119.694 71.5909C118.498 70.5772 117.378 70.2728 116.549 70.6155L116.549 70.6157C115.72 70.9571 115.136 71.9654 114.993 73.5324C114.852 75.0748 115.16 77.0321 115.973 79.0244L123.077 84.2498V84.2498ZM122.871 85.1437L122.793 85.1065C122.048 84.7459 120.656 84.0123 119.289 82.966C117.915 81.9138 116.607 80.5776 115.973 79.0244L122.871 85.1437V85.1437ZM129.095 71.029C129.189 70.9173 129.302 70.7854 129.432 70.6377C129.991 70.006 130.585 69.4076 131.213 68.8454C132.715 67.5045 134.696 66.1501 136.74 65.8786C138.863 65.5965 140.822 65.7962 142.269 66.3259C143.738 66.864 144.559 67.6892 144.677 68.5833C144.795 69.4785 144.216 70.4904 142.936 71.3943C141.677 72.2842 139.836 72.9889 137.713 73.2712C135.646 73.5456 133.394 72.9376 131.626 72.2345C130.757 71.8879 129.912 71.4853 129.095 71.029V71.029ZM132.366 85.7611C130.34 86.2509 128.037 85.882 126.207 85.3675C125.447 85.1533 124.7 84.8976 123.968 84.6015C123.834 84.5469 123.699 84.4908 123.566 84.4331C123.647 84.3123 123.746 84.1694 123.861 84.0087C124.351 83.322 124.88 82.6646 125.446 82.0398C126.801 80.5489 128.632 78.9942 130.635 78.51C132.717 78.0067 134.687 77.9998 136.18 78.3752C137.698 78.7565 138.599 79.4916 138.809 80.3694C139.018 81.2474 138.547 82.3143 137.368 83.3472C136.207 84.3642 134.45 85.2581 132.366 85.7611V85.7611Z" stroke="#B4C4FF" stroke-width="0.890211"/>
<path d="M124.48 82.4943C124.141 83.444 123.809 84.3965 123.484 85.3517L123.27 85.3253L123.265 85.3228L123.151 85.2709C123.544 84.1124 123.93 83.0099 124.31 81.9588L124.31 81.9584C128.716 69.7161 132.077 64.4654 133.028 63.111L133.298 63.3288C132.33 64.7235 128.891 70.1682 124.48 82.4943ZM46.6958 58.5084C46.7734 58.2644 46.8745 57.9342 46.9864 57.5335C47.3223 56.3308 47.5883 55.1095 47.7832 53.8758C48.2425 50.9347 48.3455 47.346 47.0343 44.5307C45.6867 41.6422 43.87 39.334 42.0415 37.9306C40.1937 36.5122 38.444 36.0907 37.1454 36.7038L37.1449 36.704C35.8468 37.3152 35.0496 38.9384 34.9514 41.2751C34.8542 43.5873 35.4555 46.4689 36.8008 49.3572C38.1221 52.1937 40.688 54.5375 42.9631 56.1854C43.91 56.8698 44.8933 57.5016 45.9086 58.0781C46.2244 58.2575 46.4915 58.4014 46.6958 58.5084ZM64.4913 50.7724L64.4911 50.7722C63.2285 50.0908 61.4581 50.4167 59.5362 51.7319C57.6345 53.0334 55.6958 55.238 54.196 58.0475C52.7229 60.8066 52.3858 64.2753 52.4303 67.0944C52.4523 68.4973 52.5687 69.7246 52.6793 70.6005C52.7249 70.9625 52.7697 71.2641 52.8064 71.4926C53.0472 71.41 53.3708 71.2945 53.7571 71.1456C54.9167 70.6996 56.0495 70.1857 57.1495 69.6068C59.7687 68.2227 62.6922 66.164 64.1541 63.4235C65.6541 60.6118 66.4102 57.7679 66.4373 55.4547C66.4649 53.1174 65.7559 51.4538 64.4913 50.7724ZM57.571 90.8063L57.5712 90.8083C57.6278 91.4909 57.6959 92.0411 57.7468 92.4076C57.8519 92.3736 57.9723 92.3342 58.1072 92.2889C59.2642 91.8949 61.4365 91.0707 63.6316 89.7812C65.8349 88.4873 68.015 86.7515 69.2415 84.5547C70.7936 81.7741 71.6014 78.9443 71.6713 76.6309C71.7421 74.2931 71.0642 72.6155 69.8152 71.9115L69.8148 71.9112C68.5656 71.2052 66.7896 71.4969 64.8434 72.7751C62.9179 74.0399 60.938 76.2076 59.3859 78.9886C58.0228 81.4343 57.5539 84.4627 57.4707 87.1018V87.103C57.4226 88.5169 57.4838 89.8043 57.571 90.8063ZM51.8078 71.8795C51.6261 71.5936 51.4391 71.3112 51.247 71.0324C50.5408 70.0046 49.7756 69.0191 48.9553 68.081C46.9969 65.8484 44.3151 63.479 41.3233 62.7C38.2539 61.9008 35.3287 61.8361 33.0878 62.3573C30.8233 62.884 29.3832 63.9704 29.0226 65.3657C28.6621 66.7631 29.3963 68.4168 31.122 69.9833C32.8296 71.5334 35.4192 72.905 38.4887 73.7042C41.5032 74.4892 44.9347 73.9974 47.6481 73.2871C48.7761 72.9905 49.8872 72.6324 50.9766 72.2143C51.2554 72.1073 51.5325 71.9956 51.8078 71.8795ZM44.2806 92.8446C47.1969 93.9415 50.6596 93.8114 53.4311 93.3885C54.5835 93.2117 55.7254 92.9718 56.8517 92.6697C57.202 92.5757 57.4929 92.4906 57.7132 92.4235C57.5619 92.1202 57.4051 91.8198 57.243 91.5222C56.647 90.4261 55.9879 89.3659 55.2692 88.347C53.5524 85.9216 51.1308 83.2841 48.2367 82.1957C45.2674 81.0788 42.3642 80.7077 40.081 80.9913C37.7738 81.2781 36.2291 82.2082 35.727 83.5601C35.2249 84.912 35.7838 86.6335 37.3379 88.372C38.8757 90.0924 41.3091 91.7277 44.2806 92.8446Z" fill="white" stroke="#B4C4FF" stroke-width="0.890211"/>
<path d="M73.2388 92.1176H94.1411M100.769 92.1176H109.69M73.2388 97.6776H79.2557M84.7096 97.7587H109.69" stroke="#B4C4FF" stroke-width="0.890211" stroke-miterlimit="10" stroke-linecap="round" stroke-linejoin="round"/>
<path d="M28.6592 81.7704C28.6874 81.8595 28.6614 81.9571 28.5928 82.0202L26.2418 84.1771C26.2122 84.2043 26.1764 84.2235 26.1375 84.233C26.0987 84.2426 26.058 84.2421 26.0194 84.2317C25.9807 84.2213 25.9453 84.2012 25.9164 84.1734C25.8875 84.1456 25.866 84.111 25.8539 84.0726L24.89 81.0223C24.8763 80.9786 24.8753 80.9318 24.8871 80.8875C24.8989 80.8433 24.9231 80.8033 24.9568 80.7724L27.3074 78.6164C27.3369 78.5893 27.3728 78.5702 27.4116 78.5607C27.4505 78.5512 27.4911 78.5517 27.5297 78.5621C27.5683 78.5725 27.6037 78.5925 27.6327 78.6203C27.6616 78.648 27.6831 78.6826 27.6953 78.721L28.6592 81.7704V81.7704Z" stroke="#B4C4FF" stroke-width="0.764691" stroke-miterlimit="10"/>
<path d="M45.7246 58.2369C45.7778 58.3171 50.4532 66.2028 55.4079 88.1263C55.787 89.8049 56.1503 91.4871 56.4979 93.1726L56.6043 93.1502L57.3844 92.9852V92.9807H57.3888L57.4198 92.9763C57.5172 92.9451 57.8099 92.8561 58.2485 92.709C57.8612 90.8293 57.4535 88.9539 57.0254 87.0831C52.0618 65.3069 47.4705 57.6215 47.2667 57.2784L45.7246 58.2369Z" fill="#B4C4FF"/>
<path fill-rule="evenodd" clip-rule="evenodd" d="M118.867 54.6823C118.867 70.2597 106.313 82.8871 90.827 82.8871C75.3406 82.8871 62.7871 70.2597 62.7871 54.6823C62.7871 39.1049 75.3406 26.4775 90.827 26.4775C106.313 26.4775 118.867 39.1049 118.867 54.6823Z" fill="white" stroke="#1c222b" stroke-width="6.24528" stroke-linecap="round" stroke-linejoin="round"/>
<path d="M124.985 89.0409L113.004 76.9897" stroke="#1c222b" stroke-width="6.24528" stroke-linecap="round" stroke-linejoin="round"/>
<path d="M24.9302 50.749C25.1141 50.9383 25.3063 51.1192 25.5064 51.2912" stroke="#B4C4FF" stroke-width="0.254823" stroke-miterlimit="10"/>
<path d="M48.9002 32.9643C48.9001 33.1802 48.8578 33.3939 48.7756 33.5933C48.6934 33.7927 48.5729 33.9739 48.421 34.1264C48.2692 34.279 48.0889 34.4 47.8906 34.4824C47.6923 34.5649 47.4797 34.6072 47.2651 34.607C46.3618 34.607 45.6338 33.8685 45.6338 32.9643C45.6338 32.7484 45.6762 32.5347 45.7584 32.3353C45.8406 32.1359 45.9611 31.9547 46.1129 31.8021C46.2648 31.6496 46.445 31.5286 46.6434 31.4462C46.8417 31.3637 47.0543 31.3214 47.2689 31.3216C47.4833 31.3215 47.6956 31.3639 47.8937 31.4464C48.0918 31.529 48.2718 31.65 48.4233 31.8026C48.5748 31.9552 48.6949 32.1363 48.7768 32.3357C48.8586 32.535 48.9005 32.7486 48.9002 32.9643Z" stroke="#B4C4FF" stroke-width="1.40631" stroke-miterlimit="10"/>
<path d="M30.8968 28.7333C21.1899 31.2645 19.0745 44.3069 24.6517 50.4577" stroke="#B4C4FF" stroke-width="0.254823" stroke-miterlimit="10" stroke-dasharray="1.06 1.06"/>
<path d="M25.5619 49.0465C26.7933 49.1065 27.7458 50.1558 27.6859 51.3944C27.6298 52.6312 26.5832 53.5911 25.352 53.5309C24.1206 53.4709 23.1681 52.4217 23.2278 51.1831C23.2858 49.9411 24.3305 48.9863 25.5619 49.0465Z" fill="#B4C4FF"/>
<path d="M129.833 42.4213C129.816 42.464 129.788 42.501 129.751 42.528C129.714 42.555 129.67 42.5708 129.625 42.5735L125.818 42.8016C125.778 42.804 125.738 42.7963 125.702 42.7791C125.666 42.762 125.635 42.7359 125.611 42.7034C125.588 42.6708 125.573 42.6329 125.567 42.593C125.562 42.553 125.567 42.5125 125.582 42.475L126.969 38.9019C127.003 38.8146 127.084 38.7553 127.177 38.7497L130.982 38.5223C131.022 38.5199 131.062 38.5277 131.098 38.5449C131.135 38.562 131.166 38.5881 131.189 38.6206C131.213 38.6531 131.228 38.6911 131.233 38.731C131.238 38.7708 131.233 38.8114 131.219 38.8489L129.833 42.4213Z" stroke="#B4C4FF" stroke-width="0.923149" stroke-miterlimit="10"/>
<path d="M143.815 24.3713C143.962 24.1519 144.119 23.9392 144.285 23.7338" stroke="#B4C4FF" stroke-width="0.254823" stroke-miterlimit="10"/>
<path d="M119.534 27.4584L119.638 27.3337V23.5578C119.638 19.6642 122.775 16.5057 126.649 16.5057H129.57C133.441 16.5057 136.581 19.6642 136.581 23.5578C136.581 27.4517 133.441 30.6102 129.57 30.6102H116.905L119.534 27.4584Z" fill="white" stroke="#B4C4FF" stroke-width="0.890211"/>
<path d="M124.493 23.5451C124.493 23.7799 124.4 24.0051 124.235 24.1712C124.07 24.3372 123.846 24.4306 123.613 24.4307C123.379 24.4305 123.156 24.3371 122.99 24.1711C122.825 24.0051 122.733 23.7799 122.732 23.5451C122.733 23.3103 122.825 23.0851 122.99 22.9191C123.156 22.753 123.379 22.6597 123.613 22.6595C123.846 22.6596 124.07 22.7529 124.235 22.919C124.4 23.0851 124.493 23.3102 124.493 23.5451ZM128.998 23.5451C128.997 23.7799 128.905 24.0051 128.74 24.1712C128.574 24.3372 128.351 24.4306 128.117 24.4307C127.884 24.4306 127.66 24.3372 127.495 24.1712C127.33 24.0051 127.237 23.7799 127.237 23.5451C127.237 23.3102 127.33 23.0851 127.495 22.919C127.66 22.7529 127.884 22.6596 128.117 22.6595C128.351 22.6596 128.574 22.7529 128.74 22.919C128.905 23.0851 128.997 23.3102 128.998 23.5451ZM133.502 23.5451C133.502 23.7799 133.409 24.0051 133.244 24.1712C133.079 24.3372 132.855 24.4306 132.621 24.4307C132.388 24.4306 132.164 24.3372 131.999 24.1712C131.834 24.0051 131.741 23.7799 131.741 23.5451C131.741 23.3102 131.834 23.0851 131.999 22.919C132.164 22.7529 132.388 22.6596 132.621 22.6595C132.855 22.6596 133.079 22.7529 133.244 22.919C133.409 23.0851 133.502 23.3102 133.502 23.5451Z" fill="#B4C4FF" stroke="#B4C4FF" stroke-width="0.890211"/>
<path d="M56.8867 29.4391C57.6167 19.379 69.9911 14.9407 77.0093 19.3533" stroke="#B4C4FF" stroke-width="0.254823" stroke-miterlimit="10" stroke-dasharray="1.06 1.06"/>
<path d="M64.8829 31.1249C63.4532 30.4253 62.8029 28.7202 63.427 27.3195C64.0508 25.9188 65.7184 25.3535 67.1514 26.0562" fill="#B4C4FF"/>
<path d="M75.7928 20.5073C76.073 21.7151 77.2703 22.4688 78.4708 22.187C79.6704 21.9089 80.4208 20.701 80.1406 19.4932C79.8604 18.2857 78.6633 17.5317 77.4626 17.8136C76.2584 18.0945 75.5126 19.2998 75.7928 20.5073Z" fill="#B4C4FF"/>
<path d="M101.269 19.332C100.538 20.3788 99.1018 20.6316 98.061 19.8966C97.0203 19.1616 96.769 17.7171 97.4997 16.6702C98.2304 15.6234 99.6664 15.3706 100.707 16.1056C101.748 16.8406 101.999 18.2851 101.269 19.332Z" fill="#B4C4FF"/>
<path d="M91.5054 13.5814C97.7943 7.8051 108.003 12.3341 109.771 19.1768" stroke="#B4C4FF" stroke-width="0.254823" stroke-miterlimit="10" stroke-dasharray="1.06 1.06"/>
<path d="M108.35 19.1744C107.822 20.0837 108.123 21.2518 109.027 21.783C109.928 22.3158 111.092 22.0114 111.62 21.1021C112.148 20.1927 111.847 19.0246 110.943 18.4934C110.729 18.3664 110.491 18.2833 110.245 18.2488C109.998 18.2143 109.747 18.2291 109.506 18.2924C109.265 18.3556 109.039 18.4661 108.841 18.6175C108.642 18.7688 108.476 18.9581 108.35 19.1744Z" fill="#B4C4FF"/>
</g>
<defs>
<clipPath id="clip0_2455_90230">
<rect width="170" height="114" fill="white"/>
</clipPath>
</defs>
</svg>