<svg xmlns="http://www.w3.org/2000/svg" xmlns:xlink="http://www.w3.org/1999/xlink" width="910" zoomAndPan="magnify" viewBox="0 0 682.5 299.999988" height="400" preserveAspectRatio="xMidYMid meet" version="1.0"><defs><clipPath id="3404e568d0"><path d="M 0 0.109375 L 682 0.109375 L 682 299.890625 L 0 299.890625 Z M 0 0.109375 " clip-rule="nonzero"/></clipPath><clipPath id="c451fb3340"><path d="M 243.65625 119 L 268 119 L 268 161 L 243.65625 161 Z M 243.65625 119 " clip-rule="nonzero"/></clipPath><clipPath id="bfc0e7db55"><path d="M 296 202 L 366 202 L 366 247.515625 L 296 247.515625 Z M 296 202 " clip-rule="nonzero"/></clipPath></defs><g clip-path="url(#3404e568d0)"><path fill="#AFBACA" d="M 0 0.109375 L 682 0.109375 L 682 299.890625 L 0 299.890625 Z M 0 0.109375 " fill-opacity="1" fill-rule="nonzero"/><path fill="#AFBACA" d="M 0 0.109375 L 682 0.109375 L 682 299.890625 L 0 299.890625 Z M 0 0.109375 " fill-opacity="1" fill-rule="nonzero"/></g><path fill="#fff" d="M 256.695312 184.496094 L 408.304688 210.722656 L 425.300781 116.191406 L 273.691406 89.9375 Z M 411.089844 218.191406 C 410.902344 218.191406 410.710938 218.164062 410.523438 218.136719 L 252.066406 190.75 C 251.175781 190.558594 250.363281 190.046875 249.820312 189.316406 C 249.308594 188.558594 249.089844 187.609375 249.253906 186.71875 L 267.46875 85.339844 C 267.820312 83.472656 269.605469 82.226562 271.472656 82.550781 L 429.925781 109.9375 C 430.820312 110.101562 431.632812 110.617188 432.171875 111.371094 C 432.6875 112.128906 432.90625 113.078125 432.742188 113.972656 L 414.5 215.351562 C 414.230469 217.027344 412.742188 218.191406 411.089844 218.191406 " fill-opacity="1" fill-rule="nonzero"/><path fill="#fff" d="M 389.496094 129.558594 C 382.890625 129.558594 377.046875 134.296875 375.855469 141.007812 C 375.207031 144.632812 376.015625 148.3125 378.15625 151.371094 C 380.265625 154.402344 383.460938 156.433594 387.085938 157.054688 C 390.738281 157.707031 394.421875 156.894531 397.453125 154.753906 C 400.484375 152.644531 402.484375 149.449219 403.136719 145.824219 C 403.785156 142.171875 402.972656 138.492188 400.835938 135.460938 C 398.722656 132.429688 395.53125 130.425781 391.902344 129.777344 C 391.089844 129.640625 390.28125 129.558594 389.496094 129.558594 Z M 389.550781 164.199219 C 388.332031 164.199219 387.113281 164.09375 385.894531 163.875 C 380.429688 162.929688 375.664062 159.898438 372.472656 155.324219 C 369.304688 150.777344 368.0625 145.257812 369.035156 139.789062 C 371.039062 128.503906 381.808594 120.925781 393.09375 122.957031 C 398.5625 123.902344 403.324219 126.960938 406.519531 131.507812 C 409.683594 136.054688 410.929688 141.546875 409.953125 147.015625 C 409.007812 152.480469 405.976562 157.246094 401.402344 160.4375 C 397.882812 162.929688 393.742188 164.199219 389.550781 164.199219 " fill-opacity="1" fill-rule="nonzero"/><path fill="#fff" d="M 355.992188 208.664062 C 354.933594 208.664062 353.851562 208.152344 353.175781 207.203125 L 298.425781 130.480469 L 260.703125 156.378906 C 259.132812 157.460938 256.964844 157.054688 255.882812 155.484375 C 254.800781 153.917969 255.207031 151.75 256.777344 150.667969 L 297.289062 122.847656 C 298.859375 121.765625 300.972656 122.144531 302.082031 123.6875 L 358.832031 203.171875 C 359.914062 204.742188 359.5625 206.90625 358.019531 208.015625 C 357.398438 208.449219 356.695312 208.664062 355.992188 208.664062 " fill-opacity="1" fill-rule="nonzero"/><path fill="#fff" d="M 397.34375 215.808594 C 396.234375 215.808594 395.179688 215.296875 394.5 214.347656 L 362.433594 169.421875 L 340.945312 184.199219 C 339.375 185.28125 337.207031 184.875 336.125 183.308594 C 335.042969 181.738281 335.449219 179.570312 337.019531 178.488281 L 361.320312 161.792969 C 362.863281 160.710938 365.003906 161.089844 366.085938 162.628906 L 400.128906 210.316406 C 401.265625 211.886719 400.914062 214.050781 399.347656 215.160156 C 398.75 215.59375 398.019531 215.808594 397.34375 215.808594 " fill-opacity="1" fill-rule="nonzero"/><g clip-path="url(#c451fb3340)"><path fill="#fff" d="M 258.023438 160.925781 C 256.640625 160.925781 255.316406 160.058594 254.773438 158.652344 L 244.21875 130.15625 C 243.894531 129.289062 243.921875 128.316406 244.328125 127.476562 C 244.707031 126.636719 245.4375 125.988281 246.304688 125.691406 L 263.082031 119.65625 C 264.867188 119.003906 266.871094 119.925781 267.519531 121.738281 C 268.144531 123.550781 267.222656 125.527344 265.410156 126.175781 L 251.933594 131.019531 L 261.269531 156.242188 C 261.945312 158.03125 261.027344 160.03125 259.238281 160.683594 C 258.835938 160.84375 258.429688 160.925781 258.023438 160.925781 " fill-opacity="1" fill-rule="nonzero"/></g><path fill="#fff" d="M 417.75 181.222656 C 416.316406 181.222656 414.988281 180.355469 414.472656 178.921875 C 413.851562 177.136719 414.773438 175.160156 416.585938 174.511719 L 430.0625 169.667969 L 420.699219 144.445312 C 420.050781 142.632812 420.941406 140.65625 422.753906 139.980469 C 424.542969 139.300781 426.542969 140.222656 427.195312 142.007812 L 437.777344 170.53125 C 438.101562 171.398438 438.074219 172.375 437.667969 173.210938 C 437.289062 174.050781 436.558594 174.699219 435.691406 175 L 418.914062 181.035156 C 418.535156 181.167969 418.15625 181.222656 417.75 181.222656 " fill-opacity="1" fill-rule="nonzero"/><path fill="#fff" d="M 283.328125 229.179688 C 281.945312 229.179688 280.621094 228.3125 280.078125 226.90625 L 266.980469 191.5625 C 266.304688 189.773438 267.222656 187.773438 269.035156 187.097656 C 270.824219 186.417969 272.796875 187.367188 273.476562 189.152344 L 285.410156 221.304688 L 344.625 200.167969 C 346.4375 199.519531 348.414062 200.464844 349.0625 202.25 C 349.710938 204.0625 348.765625 206.039062 346.953125 206.691406 L 284.488281 228.988281 C 284.109375 229.097656 283.730469 229.179688 283.328125 229.179688 " fill-opacity="1" fill-rule="nonzero"/><path fill="#fff" d="M 411.769531 113.78125 C 410.359375 113.78125 409.035156 112.914062 408.519531 111.535156 L 396.585938 79.382812 L 337.34375 100.519531 C 335.558594 101.171875 333.582031 100.222656 332.933594 98.410156 C 332.285156 96.625 333.230469 94.648438 335.042969 94 L 397.480469 71.699219 C 399.265625 71.050781 401.242188 71.96875 401.890625 73.753906 L 415.015625 109.101562 C 415.691406 110.914062 414.773438 112.886719 412.984375 113.566406 C 412.578125 113.726562 412.175781 113.78125 411.769531 113.78125 " fill-opacity="1" fill-rule="nonzero"/><g clip-path="url(#bfc0e7db55)"><path fill="#fff" d="M 329.523438 247.339844 C 328.738281 247.339844 327.953125 247.066406 327.304688 246.554688 L 297.96875 222.386719 C 296.507812 221.167969 296.289062 218.976562 297.507812 217.515625 C 298.726562 216.027344 300.917969 215.835938 302.378906 217.027344 L 329.089844 239.03125 L 359.128906 203.929688 C 360.375 202.496094 362.566406 202.304688 364.027344 203.550781 C 365.488281 204.796875 365.652344 206.988281 364.40625 208.449219 L 332.148438 246.148438 C 331.445312 246.933594 330.46875 247.339844 329.523438 247.339844 " fill-opacity="1" fill-rule="nonzero"/></g><path fill="#fff" d="M 320.292969 97.976562 C 319.484375 97.976562 318.671875 97.679688 318.019531 97.136719 C 316.585938 95.894531 316.398438 93.699219 317.640625 92.238281 L 349.902344 54.566406 C 351.148438 53.132812 353.3125 52.945312 354.746094 54.132812 L 384.082031 78.300781 C 385.542969 79.519531 385.761719 81.710938 384.542969 83.171875 C 383.324219 84.660156 381.160156 84.851562 379.671875 83.632812 L 352.960938 61.65625 L 322.917969 96.757812 C 322.214844 97.542969 321.269531 97.976562 320.292969 97.976562 " fill-opacity="1" fill-rule="nonzero"/><path fill="#fff" d="M 378.695312 240.4375 C 378.480469 240.4375 378.289062 240.4375 378.101562 240.410156 L 340.429688 233.859375 C 338.535156 233.5625 337.261719 231.75 337.585938 229.882812 C 337.914062 227.988281 339.726562 226.714844 341.59375 227.066406 L 375.882812 232.996094 L 380.160156 209.339844 C 380.484375 207.449219 382.269531 206.203125 384.164062 206.554688 C 386.058594 206.878906 387.304688 208.691406 386.976562 210.585938 L 382.105469 237.59375 C 381.808594 239.273438 380.347656 240.4375 378.695312 240.4375 " fill-opacity="1" fill-rule="nonzero"/><path fill="#fff" d="M 298.453125 94.1875 C 298.238281 94.1875 298.046875 94.160156 297.832031 94.132812 C 295.9375 93.78125 294.691406 91.996094 295.015625 90.101562 L 299.890625 63.09375 C 300.214844 61.199219 302.027344 59.980469 303.894531 60.277344 L 341.648438 66.800781 C 343.515625 67.125 344.785156 68.9375 344.460938 70.804688 C 344.136719 72.699219 342.40625 73.972656 340.457031 73.648438 L 306.085938 67.691406 L 301.863281 91.320312 C 301.539062 92.996094 300.078125 94.1875 298.453125 94.1875 " fill-opacity="1" fill-rule="nonzero"/></svg>