<svg xmlns="http://www.w3.org/2000/svg" xmlns:xlink="http://www.w3.org/1999/xlink" width="910" zoomAndPan="magnify" viewBox="0 0 682.5 299.999988" height="400" preserveAspectRatio="xMidYMid meet" version="1.0"><defs><filter x="0%" y="0%" width="100%" height="100%" id="8142fd4052"><feColorMatrix values="0 0 0 0 1 0 0 0 0 1 0 0 0 0 1 0 0 0 1 0" color-interpolation-filters="sRGB"/></filter><clipPath id="5d79e6855c"><path d="M 0 0.109375 L 682 0.109375 L 682 299.890625 L 0 299.890625 Z M 0 0.109375 " clip-rule="nonzero"/></clipPath><mask id="0c7f250d63"><g filter="url(#8142fd4052)"><rect x="-68.25" width="819" fill="#000000" y="-29.999999" height="359.999986" fill-opacity="0.97"/></g></mask><clipPath id="7fc673786d"><path d="M 1 0.03125 L 28 0.03125 L 28 27.371094 L 1 27.371094 Z M 1 0.03125 " clip-rule="nonzero"/></clipPath><clipPath id="535561d459"><rect x="0" width="29" y="0" height="28"/></clipPath><clipPath id="d8a475b6e7"><path d="M 262 92 L 443.671875 92 L 443.671875 228.835938 L 262 228.835938 Z M 262 92 " clip-rule="nonzero"/></clipPath><clipPath id="57442bba43"><path d="M 238.320312 71.449219 L 420 71.449219 L 420 208 L 238.320312 208 Z M 238.320312 71.449219 " clip-rule="nonzero"/></clipPath></defs><g clip-path="url(#5d79e6855c)"><path fill="#ffffff" d="M 0 0.109375 L 682 0.109375 L 682 299.890625 L 0 299.890625 Z M 0 0.109375 " fill-opacity="1" fill-rule="nonzero"/><path fill="#AFBACA" d="M 0 0.109375 L 682 0.109375 L 682 299.890625 L 0 299.890625 Z M 0 0.109375 " fill-opacity="1" fill-rule="nonzero"/></g><path fill="#fff" d="M 281.769531 212.347656 L 424.035156 212.347656 C 424.035156 212.347656 384.5625 132.023438 376.765625 130.480469 C 368.972656 128.9375 334.902344 184.039062 334.902344 184.039062 C 334.902344 184.039062 316.25 148.894531 308.6875 149.78125 C 301.121094 150.667969 281.773438 212.347656 281.773438 212.347656 Z M 281.769531 212.347656 " fill-opacity="1" fill-rule="nonzero"/><g mask="url(#0c7f250d63)"><g transform="matrix(1, 0, 0, 1, 312, 108)"><g clip-path="url(#535561d459)"><g clip-path="url(#7fc673786d)"><path fill="#fff" d="M 27.792969 13.820312 C 27.792969 14.691406 27.710938 15.554688 27.539062 16.410156 C 27.367188 17.265625 27.117188 18.097656 26.78125 18.902344 C 26.449219 19.707031 26.039062 20.472656 25.554688 21.199219 C 25.070312 21.925781 24.519531 22.59375 23.902344 23.210938 C 23.285156 23.828125 22.617188 24.378906 21.890625 24.863281 C 21.164062 25.347656 20.402344 25.757812 19.59375 26.089844 C 18.789062 26.425781 17.957031 26.675781 17.101562 26.847656 C 16.246094 27.015625 15.382812 27.101562 14.511719 27.101562 C 13.640625 27.101562 12.777344 27.015625 11.921875 26.847656 C 11.066406 26.675781 10.234375 26.425781 9.429688 26.089844 C 8.625 25.757812 7.859375 25.347656 7.132812 24.863281 C 6.40625 24.378906 5.738281 23.828125 5.121094 23.210938 C 4.503906 22.59375 3.953125 21.925781 3.46875 21.199219 C 2.984375 20.472656 2.574219 19.707031 2.242188 18.902344 C 1.90625 18.097656 1.65625 17.265625 1.484375 16.410156 C 1.316406 15.554688 1.230469 14.691406 1.230469 13.820312 C 1.230469 12.949219 1.316406 12.082031 1.484375 11.226562 C 1.65625 10.371094 1.90625 9.542969 2.242188 8.738281 C 2.574219 7.929688 2.984375 7.164062 3.46875 6.441406 C 3.953125 5.714844 4.503906 5.042969 5.121094 4.425781 C 5.738281 3.8125 6.40625 3.261719 7.132812 2.777344 C 7.859375 2.292969 8.625 1.882812 9.429688 1.546875 C 10.234375 1.214844 11.066406 0.960938 11.921875 0.792969 C 12.777344 0.621094 13.640625 0.539062 14.511719 0.539062 C 15.382812 0.539062 16.246094 0.621094 17.101562 0.792969 C 17.957031 0.960938 18.789062 1.214844 19.59375 1.546875 C 20.402344 1.882812 21.164062 2.292969 21.890625 2.777344 C 22.617188 3.261719 23.285156 3.8125 23.902344 4.425781 C 24.519531 5.042969 25.070312 5.714844 25.554688 6.441406 C 26.039062 7.164062 26.449219 7.929688 26.78125 8.738281 C 27.117188 9.542969 27.367188 10.371094 27.539062 11.226562 C 27.710938 12.082031 27.792969 12.949219 27.792969 13.820312 Z M 27.792969 13.820312 " fill-opacity="1" fill-rule="nonzero"/></g></g></g></g><g clip-path="url(#d8a475b6e7)"><path fill="#fff" d="M 262.117188 92.359375 L 262.117188 228.53125 L 443.683594 228.53125 L 443.683594 92.359375 Z M 273.464844 101.4375 L 432.335938 101.4375 L 432.335938 219.453125 L 273.464844 219.453125 Z M 273.464844 101.4375 " fill-opacity="1" fill-rule="nonzero"/></g><g clip-path="url(#57442bba43)"><path fill="#fff" d="M 238.320312 71.46875 L 238.320312 207.644531 L 256.476562 207.644531 L 256.476562 198.566406 L 249.667969 198.566406 L 249.667969 80.546875 L 408.539062 80.546875 L 408.539062 87.523438 L 419.886719 87.523438 L 419.886719 71.46875 Z M 238.320312 71.46875 " fill-opacity="1" fill-rule="nonzero"/></g></svg>