<svg xmlns="http://www.w3.org/2000/svg" xmlns:xlink="http://www.w3.org/1999/xlink" width="910" zoomAndPan="magnify" viewBox="0 0 682.5 299.999988" height="400" preserveAspectRatio="xMidYMid meet" version="1.0"><defs><clipPath id="0aa75869f9"><path d="M 0 0.109375 L 682 0.109375 L 682 299.890625 L 0 299.890625 Z M 0 0.109375 " clip-rule="nonzero"/></clipPath><clipPath id="d849c579b6"><path d="M 247.441406 68.109375 L 434.804688 68.109375 L 434.804688 232.238281 L 247.441406 232.238281 Z M 247.441406 68.109375 " clip-rule="nonzero"/></clipPath></defs><g clip-path="url(#0aa75869f9)"><path fill="#AFBACA" d="M 0 0.109375 L 682 0.109375 L 682 299.890625 L 0 299.890625 Z M 0 0.109375 " fill-opacity="1" fill-rule="nonzero"/><path fill="#AFBACA" d="M 0 0.109375 L 682 0.109375 L 682 299.890625 L 0 299.890625 Z M 0 0.109375 " fill-opacity="1" fill-rule="nonzero"/></g><g clip-path="url(#d849c579b6)"><path stroke-linecap="butt" transform="matrix(0.467239, 0, 0, 0.467597, 247.442668, 68.109594)" fill-opacity="1" fill="#AFBACA" fill-rule="nonzero" stroke-linejoin="miter" d="M 0.498916 0.500765 L 400.496875 0.500765 L 400.496875 350.503247 L 0.498916 350.503247 Z M 0.498916 0.500765 " stroke="#fff" stroke-width="1" stroke-opacity="1" stroke-miterlimit="10"/></g><path fill="#AFBACA" d="M 293.355469 138.820312 C 319.789062 138.820312 323.914062 195.511719 334.597656 195.511719 C 345.28125 195.511719 350 161.625 365.109375 161.625 C 385.875 161.625 396.261719 222.910156 431.191406 222.910156 C 431.238281 222.910156 431.285156 222.910156 431.328125 222.910156 L 431.328125 71.238281 L 250.699219 71.238281 L 250.699219 211.796875 C 256.929688 188.960938 272.9375 138.820312 293.355469 138.820312 Z M 391.449219 92.636719 C 405.652344 92.636719 417.167969 104.160156 417.167969 118.375 C 417.167969 132.589844 405.652344 144.109375 391.449219 144.109375 C 377.25 144.109375 365.734375 132.589844 365.734375 118.375 C 365.734375 104.160156 377.25 92.636719 391.449219 92.636719 Z M 391.449219 92.636719 " fill-opacity="1" fill-rule="nonzero"/><path fill="#fff" d="M 431.328125 228.628906 L 431.328125 222.910156 C 431.285156 222.910156 431.238281 222.910156 431.191406 222.910156 C 396.261719 222.910156 385.875 161.625 365.105469 161.625 C 350 161.625 345.28125 195.511719 334.597656 195.511719 C 323.914062 195.511719 319.789062 138.820312 293.355469 138.820312 C 272.9375 138.820312 256.929688 188.960938 250.695312 211.796875 L 250.695312 228.628906 Z M 431.328125 228.628906 " fill-opacity="1" fill-rule="nonzero"/><path fill="#fff" d="M 417.167969 118.371094 C 417.167969 119.214844 417.125 120.058594 417.042969 120.894531 C 416.960938 121.734375 416.835938 122.566406 416.671875 123.394531 C 416.507812 124.21875 416.304688 125.039062 416.058594 125.84375 C 415.816406 126.648438 415.53125 127.441406 415.210938 128.222656 C 414.886719 129 414.527344 129.761719 414.128906 130.503906 C 413.734375 131.25 413.300781 131.96875 412.832031 132.671875 C 412.363281 133.371094 411.863281 134.046875 411.328125 134.699219 C 410.796875 135.351562 410.230469 135.976562 409.636719 136.570312 C 409.039062 137.167969 408.417969 137.734375 407.765625 138.265625 C 407.113281 138.800781 406.4375 139.304688 405.738281 139.773438 C 405.039062 140.238281 404.316406 140.671875 403.574219 141.070312 C 402.832031 141.46875 402.070312 141.828125 401.292969 142.148438 C 400.515625 142.472656 399.722656 142.757812 398.914062 143 C 398.109375 143.246094 397.292969 143.449219 396.46875 143.613281 C 395.640625 143.777344 394.808594 143.902344 393.972656 143.984375 C 393.132812 144.066406 392.292969 144.109375 391.449219 144.109375 C 390.609375 144.109375 389.769531 144.066406 388.929688 143.984375 C 388.09375 143.902344 387.261719 143.777344 386.433594 143.613281 C 385.609375 143.449219 384.792969 143.246094 383.984375 143 C 383.179688 142.757812 382.386719 142.472656 381.609375 142.148438 C 380.832031 141.828125 380.070312 141.46875 379.328125 141.070312 C 378.585938 140.671875 377.863281 140.238281 377.164062 139.773438 C 376.464844 139.304688 375.789062 138.800781 375.136719 138.265625 C 374.484375 137.734375 373.863281 137.167969 373.265625 136.570312 C 372.671875 135.976562 372.105469 135.351562 371.570312 134.699219 C 371.039062 134.046875 370.535156 133.371094 370.070312 132.671875 C 369.601562 131.96875 369.167969 131.25 368.769531 130.503906 C 368.375 129.761719 368.015625 129 367.691406 128.222656 C 367.371094 127.441406 367.085938 126.648438 366.839844 125.84375 C 366.597656 125.039062 366.394531 124.21875 366.230469 123.394531 C 366.0625 122.566406 365.941406 121.734375 365.859375 120.894531 C 365.777344 120.058594 365.734375 119.214844 365.734375 118.371094 C 365.734375 117.53125 365.777344 116.6875 365.859375 115.851562 C 365.941406 115.011719 366.0625 114.179688 366.230469 113.351562 C 366.394531 112.527344 366.597656 111.707031 366.839844 110.902344 C 367.085938 110.09375 367.371094 109.304688 367.691406 108.523438 C 368.015625 107.746094 368.375 106.984375 368.769531 106.242188 C 369.167969 105.496094 369.601562 104.777344 370.070312 104.074219 C 370.535156 103.375 371.039062 102.699219 371.570312 102.046875 C 372.105469 101.394531 372.671875 100.769531 373.265625 100.175781 C 373.863281 99.578125 374.484375 99.011719 375.136719 98.480469 C 375.789062 97.945312 376.464844 97.441406 377.164062 96.972656 C 377.863281 96.507812 378.585938 96.074219 379.328125 95.675781 C 380.070312 95.277344 380.832031 94.917969 381.609375 94.597656 C 382.386719 94.273438 383.179688 93.988281 383.984375 93.746094 C 384.792969 93.5 385.609375 93.296875 386.433594 93.132812 C 387.261719 92.96875 388.09375 92.84375 388.929688 92.761719 C 389.769531 92.679688 390.609375 92.636719 391.449219 92.636719 C 392.292969 92.636719 393.132812 92.679688 393.972656 92.761719 C 394.808594 92.84375 395.640625 92.96875 396.46875 93.132812 C 397.292969 93.296875 398.109375 93.5 398.914062 93.746094 C 399.722656 93.988281 400.515625 94.273438 401.292969 94.597656 C 402.070312 94.917969 402.832031 95.277344 403.574219 95.675781 C 404.316406 96.074219 405.039062 96.507812 405.738281 96.972656 C 406.4375 97.441406 407.113281 97.945312 407.765625 98.480469 C 408.417969 99.011719 409.039062 99.578125 409.636719 100.175781 C 410.230469 100.769531 410.796875 101.394531 411.328125 102.046875 C 411.863281 102.699219 412.363281 103.375 412.832031 104.074219 C 413.300781 104.777344 413.734375 105.496094 414.128906 106.242188 C 414.527344 106.984375 414.886719 107.746094 415.210938 108.523438 C 415.53125 109.304688 415.816406 110.09375 416.058594 110.902344 C 416.304688 111.707031 416.507812 112.527344 416.671875 113.351562 C 416.835938 114.179688 416.960938 115.011719 417.042969 115.851562 C 417.125 116.6875 417.167969 117.53125 417.167969 118.371094 Z M 417.167969 118.371094 " fill-opacity="1" fill-rule="nonzero"/></svg>