<svg xmlns="http://www.w3.org/2000/svg" xmlns:xlink="http://www.w3.org/1999/xlink" width="910" zoomAndPan="magnify" viewBox="0 0 682.5 299.999988" height="400" preserveAspectRatio="xMidYMid meet" version="1.0"><defs><clipPath id="d8b7fafb51"><path d="M 0 0.109375 L 682 0.109375 L 682 299.890625 L 0 299.890625 Z M 0 0.109375 " clip-rule="nonzero"/></clipPath><clipPath id="dd0b9641c9"><path d="M 249.679688 58.679688 L 432.546875 58.679688 L 432.546875 241.546875 L 249.679688 241.546875 Z M 249.679688 58.679688 " clip-rule="nonzero"/></clipPath></defs><g clip-path="url(#d8b7fafb51)"><path fill="#AFBACA" d="M 0 0.109375 L 682 0.109375 L 682 299.890625 L 0 299.890625 Z M 0 0.109375 " fill-opacity="1" fill-rule="nonzero"/><path fill="#AFBACA" d="M 0 0.109375 L 682 0.109375 L 682 299.890625 L 0 299.890625 Z M 0 0.109375 " fill-opacity="1" fill-rule="nonzero"/></g><g clip-path="url(#dd0b9641c9)"><path fill="#fff" d="M 422.164062 58.679688 L 259.824219 58.679688 C 259.160156 58.679688 258.5 58.742188 257.847656 58.875 C 257.191406 59.003906 256.558594 59.195312 255.941406 59.453125 C 255.328125 59.707031 254.742188 60.019531 254.1875 60.390625 C 253.632812 60.757812 253.121094 61.179688 252.652344 61.652344 C 252.179688 62.121094 251.757812 62.632812 251.390625 63.1875 C 251.019531 63.742188 250.707031 64.328125 250.453125 64.941406 C 250.195312 65.558594 250.003906 66.191406 249.875 66.847656 C 249.742188 67.5 249.679688 68.160156 249.679688 68.824219 L 249.679688 231.164062 C 249.679688 231.832031 249.742188 232.492188 249.875 233.144531 C 250.003906 233.796875 250.195312 234.433594 250.453125 235.046875 C 250.707031 235.664062 251.019531 236.246094 251.390625 236.800781 C 251.757812 237.355469 252.179688 237.867188 252.652344 238.339844 C 253.121094 238.808594 253.632812 239.230469 254.1875 239.601562 C 254.742188 239.972656 255.328125 240.285156 255.941406 240.539062 C 256.558594 240.792969 257.191406 240.984375 257.847656 241.117188 C 258.5 241.246094 259.160156 241.3125 259.824219 241.3125 L 422.164062 241.3125 C 422.832031 241.3125 423.492188 241.246094 424.144531 241.117188 C 424.796875 240.984375 425.433594 240.792969 426.046875 240.539062 C 426.664062 240.285156 427.246094 239.972656 427.800781 239.601562 C 428.355469 239.230469 428.867188 238.808594 429.339844 238.339844 C 429.808594 237.867188 430.230469 237.355469 430.601562 236.800781 C 430.972656 236.246094 431.285156 235.664062 431.539062 235.046875 C 431.792969 234.433594 431.984375 233.796875 432.117188 233.144531 C 432.246094 232.492188 432.3125 231.832031 432.3125 231.164062 L 432.3125 68.824219 C 432.3125 68.160156 432.246094 67.5 432.117188 66.847656 C 431.984375 66.191406 431.792969 65.558594 431.539062 64.941406 C 431.285156 64.328125 430.972656 63.742188 430.601562 63.1875 C 430.230469 62.632812 429.808594 62.121094 429.339844 61.652344 C 428.867188 61.179688 428.355469 60.757812 427.800781 60.390625 C 427.246094 60.019531 426.664062 59.707031 426.046875 59.453125 C 425.433594 59.195312 424.796875 59.003906 424.144531 58.875 C 423.492188 58.742188 422.832031 58.679688 422.164062 58.679688 Z M 300.410156 89.117188 C 301.074219 89.117188 301.738281 89.148438 302.398438 89.214844 C 303.0625 89.28125 303.71875 89.378906 304.367188 89.507812 C 305.019531 89.636719 305.664062 89.796875 306.300781 89.992188 C 306.9375 90.183594 307.5625 90.40625 308.175781 90.664062 C 308.789062 90.917969 309.390625 91.199219 309.976562 91.511719 C 310.5625 91.828125 311.132812 92.167969 311.683594 92.539062 C 312.238281 92.90625 312.769531 93.300781 313.285156 93.722656 C 313.796875 94.144531 314.289062 94.589844 314.757812 95.0625 C 315.230469 95.53125 315.675781 96.023438 316.097656 96.535156 C 316.519531 97.050781 316.914062 97.582031 317.28125 98.136719 C 317.652344 98.6875 317.992188 99.257812 318.304688 99.84375 C 318.621094 100.429688 318.902344 101.03125 319.15625 101.644531 C 319.414062 102.257812 319.636719 102.882812 319.828125 103.519531 C 320.023438 104.15625 320.183594 104.800781 320.3125 105.449219 C 320.441406 106.101562 320.539062 106.757812 320.605469 107.421875 C 320.671875 108.082031 320.703125 108.746094 320.703125 109.410156 C 320.703125 110.074219 320.671875 110.738281 320.605469 111.398438 C 320.539062 112.058594 320.441406 112.71875 320.3125 113.367188 C 320.183594 114.019531 320.023438 114.664062 319.828125 115.300781 C 319.636719 115.9375 319.414062 116.5625 319.15625 117.175781 C 318.902344 117.789062 318.621094 118.390625 318.304688 118.976562 C 317.992188 119.5625 317.652344 120.132812 317.28125 120.683594 C 316.914062 121.238281 316.519531 121.769531 316.097656 122.285156 C 315.675781 122.796875 315.230469 123.289062 314.757812 123.757812 C 314.289062 124.230469 313.796875 124.675781 313.285156 125.097656 C 312.769531 125.519531 312.238281 125.914062 311.683594 126.28125 C 311.132812 126.652344 310.5625 126.992188 309.976562 127.304688 C 309.390625 127.621094 308.789062 127.902344 308.175781 128.15625 C 307.5625 128.410156 306.9375 128.636719 306.300781 128.828125 C 305.664062 129.023438 305.019531 129.183594 304.367188 129.3125 C 303.71875 129.441406 303.0625 129.539062 302.398438 129.605469 C 301.738281 129.667969 301.074219 129.703125 300.410156 129.703125 C 299.746094 129.703125 299.082031 129.667969 298.421875 129.605469 C 297.757812 129.539062 297.101562 129.441406 296.453125 129.3125 C 295.800781 129.183594 295.15625 129.023438 294.519531 128.828125 C 293.882812 128.636719 293.257812 128.410156 292.644531 128.15625 C 292.03125 127.902344 291.429688 127.621094 290.84375 127.304688 C 290.257812 126.992188 289.6875 126.652344 289.136719 126.28125 C 288.582031 125.914062 288.050781 125.519531 287.535156 125.097656 C 287.023438 124.675781 286.53125 124.230469 286.0625 123.757812 C 285.589844 123.289062 285.144531 122.796875 284.722656 122.285156 C 284.300781 121.769531 283.90625 121.238281 283.539062 120.683594 C 283.167969 120.132812 282.828125 119.5625 282.515625 118.976562 C 282.199219 118.390625 281.917969 117.789062 281.664062 117.175781 C 281.40625 116.5625 281.183594 115.9375 280.992188 115.300781 C 280.796875 114.664062 280.636719 114.019531 280.507812 113.367188 C 280.378906 112.71875 280.28125 112.058594 280.214844 111.398438 C 280.148438 110.738281 280.117188 110.074219 280.117188 109.410156 C 280.117188 108.746094 280.148438 108.082031 280.214844 107.421875 C 280.28125 106.757812 280.378906 106.101562 280.507812 105.449219 C 280.636719 104.800781 280.796875 104.15625 280.992188 103.519531 C 281.183594 102.882812 281.40625 102.257812 281.664062 101.644531 C 281.917969 101.03125 282.199219 100.429688 282.515625 99.84375 C 282.828125 99.257812 283.167969 98.6875 283.539062 98.136719 C 283.90625 97.582031 284.300781 97.050781 284.722656 96.535156 C 285.144531 96.023438 285.589844 95.53125 286.0625 95.0625 C 286.53125 94.589844 287.023438 94.144531 287.535156 93.722656 C 288.050781 93.300781 288.582031 92.90625 289.136719 92.539062 C 289.6875 92.167969 290.257812 91.828125 290.84375 91.511719 C 291.429688 91.199219 292.03125 90.917969 292.644531 90.664062 C 293.257812 90.40625 293.882812 90.183594 294.519531 89.992188 C 295.15625 89.796875 295.800781 89.636719 296.453125 89.507812 C 297.101562 89.378906 297.757812 89.28125 298.421875 89.214844 C 299.082031 89.148438 299.746094 89.117188 300.410156 89.117188 Z M 412.019531 221.019531 L 269.972656 221.019531 L 269.972656 184.492188 L 300.410156 160.140625 L 330.847656 190.578125 L 381.578125 139.847656 L 412.019531 164.199219 Z M 412.019531 221.019531 " fill-opacity="1" fill-rule="nonzero"/></g></svg>