<svg width="1440" height="621" viewBox="0 0 1440 621" fill="none" xmlns="http://www.w3.org/2000/svg">
<path d="M906.185 493.563C926.891 493.563 945.6 491.746 963.376 488.015C984.664 483.567 1002.92 475.851 1017.64 465.1C1030.96 455.373 1041.85 442.805 1050.02 427.739C1063.14 403.523 1069.82 372.48 1071.04 330.059C1072.02 295.704 1076.94 261.79 1085.67 229.253C1094.15 197.388 1105.84 168.483 1120.42 143.347C1151.16 90.8622 1197.67 51.603 1258.66 26.6688C1279.37 18.1979 1302.46 11.469 1327.28 6.65411C1347.75 2.7065 1369.04 0.71027 1390.56 0.71027C1455.01 0.71027 1519.13 18.4745 1571.13 50.7282C1633.22 89.2547 1671.61 144.574 1679.22 206.502L1679.25 206.718L1680 206.651L1679.97 206.419C1676.04 174.42 1664.12 144.327 1644.52 116.97C1626.09 91.2285 1601.54 68.7466 1571.54 50.1376C1519.42 17.8016 1455.15 0 1390.55 0C1368.98 0 1347.64 2.00371 1327.13 5.95879C1302.25 10.7811 1279.11 17.5324 1258.35 26.0183C1227.7 38.549 1200.49 54.773 1177.46 74.2494C1154.54 93.6285 1135.13 116.761 1119.76 143.003C1105.14 168.192 1093.43 197.156 1084.94 229.081C1076.2 261.663 1071.27 295.629 1070.28 330.044C1068.47 393.228 1054.67 468.21 963.211 487.327C945.608 491.021 926.353 492.897 905.969 492.897C847.963 492.897 786.901 477.937 733.022 464.733L732.618 464.636C725.749 462.954 719.246 461.361 712.728 459.791C544.984 419.425 376.216 363.381 165.522 278.059C140.884 268.153 119.319 260.781 99.5857 255.518C76.2715 249.297 55.14 245.873 34.9728 245.036C31.8258 244.908 28.6639 244.841 25.5693 244.841C-16.9104 244.841 -54.6959 256.976 -89.9475 281.932C-107.17 294.126 -123.839 308.698 -139.954 322.791C-176.551 354.791 -214.374 387.86 -263.768 398.753L-264 398.805L-263.798 399.493L-263.596 399.448C-214.008 388.51 -176.11 355.382 -139.461 323.337C-123.353 309.251 -106.691 294.687 -89.4915 282.508C-54.3071 257.596 -16.5591 245.484 25.8982 245.484C76.1294 245.484 126.749 263.241 165.23 278.717C264.123 318.762 352.685 351.905 435.985 380.039C532.307 412.57 622.768 438.879 712.541 460.487C719.194 462.087 725.816 463.709 732.835 465.429C769.791 474.483 807.98 483.843 847.253 489.226C868.258 492.112 888.089 493.57 906.185 493.57V493.563Z" fill="url(#paint0_linear_1549_6750)" fill-opacity="0.5"/>
<path d="M879.664 501.002C900.497 501.002 919.416 499.05 937.498 495.043C958.592 490.393 976.83 482.497 991.698 471.574C1005.11 461.72 1016.26 449.04 1024.84 433.885C1032.42 420.495 1038.13 405.213 1042.3 387.149C1045.65 372.578 1048 356.01 1049.47 336.496C1052.02 302.665 1058.43 268.788 1068.52 235.817C1078.71 202.046 1090.99 173.949 1106.06 149.904C1137.09 100.387 1183.95 65.3224 1249.32 42.7059C1269.7 35.6555 1292.94 30.1603 1318.4 26.3847C1334.79 23.9847 1351.8 22.766 1368.95 22.766C1403.11 22.766 1437.4 27.4538 1470.88 36.7097C1504.65 46.0404 1536.01 59.5879 1564.09 76.9633C1626.54 115.624 1667.13 170.173 1678.36 230.569L1678.39 230.778L1679.13 230.673L1679.09 230.441C1673.28 199.212 1659.91 169.74 1639.35 142.839C1619.96 117.471 1594.77 95.1089 1564.49 76.3652C1529.86 54.93 1489.22 38.9377 1446.95 30.1154C1425.72 25.6819 1404.1 23.0426 1382.69 22.2651C1378.25 22.1006 1373.75 22.0184 1369.31 22.0184C1352.02 22.0184 1334.85 23.252 1318.28 25.6819C1292.77 29.4725 1269.48 34.9752 1249.06 42.0405C1216.83 53.188 1189.8 66.9373 1166.42 84.066C1154.29 92.9481 1143.07 102.862 1133.08 113.538C1122.83 124.484 1113.52 136.604 1105.41 149.553C1090.31 173.642 1078 201.799 1067.79 235.63C1057.69 268.646 1051.27 302.567 1048.72 336.451C1043.66 403.515 1026.47 474.722 937.318 494.363C919.603 498.295 900.22 500.284 879.717 500.284C816.068 500.284 751.537 481.937 694.609 465.75L691.193 464.778C515.04 414.723 355.757 349.774 165.828 270.074C141.961 260.056 120.844 252.542 101.282 247.092C78.4092 240.722 57.5693 237.11 37.5665 236.049C33.5525 235.839 29.5161 235.727 25.5918 235.727C-15.4005 235.727 -52.0574 247.122 -86.4717 270.553C-105.45 283.472 -123.741 299.263 -141.427 314.53C-176.365 344.683 -212.483 375.867 -256.794 388.009L-257.026 388.076L-256.779 388.749L-256.578 388.697C-212.102 376.51 -175.916 345.273 -140.919 315.068C-123.241 299.809 -104.965 284.033 -86.0308 271.144C-51.863 247.877 -15.2061 236.572 26.0479 236.572C77.5273 236.572 127.631 254.83 165.529 270.732C253.396 307.607 339.529 343.464 427.322 376.869C522.799 413.198 609.044 442.184 690.983 465.466L694.392 466.438C730.668 476.748 771.779 488.441 813.385 495.208C837.08 499.065 859.378 501.017 879.664 501.017V501.002Z" fill="url(#paint1_linear_1549_6750)" fill-opacity="0.5"/>
<path d="M853.188 508.463C874.096 508.463 893.209 506.37 911.62 502.064C932.519 497.219 950.736 489.137 965.76 478.034C979.26 468.06 990.674 455.26 999.689 440.008C1017.93 409.13 1024.35 371.905 1027.91 342.918C1031.94 310.044 1039.84 276.213 1051.36 242.366C1063.55 206.584 1076.37 179.28 1091.68 156.454C1123.14 109.583 1170.26 78.5259 1239.98 58.7281C1260.28 52.9637 1283.02 48.8292 1309.51 46.0928C1321.22 44.919 1333.34 44.3208 1345.53 44.3208C1416.59 44.3208 1491.79 64.6345 1551.86 100.043C1583.57 118.735 1610.33 140.985 1631.41 166.158C1653.99 193.134 1669.49 222.89 1677.49 254.62L1677.54 254.822L1678.27 254.688L1678.21 254.456C1669.79 221.036 1652.86 189.672 1627.89 161.239C1604.35 134.435 1574.6 111.191 1539.44 92.1706C1522.49 82.9969 1504.41 74.9222 1485.71 68.1709C1467.09 61.4495 1447.73 55.9992 1428.19 51.9768C1400.96 46.3769 1373.57 43.5358 1346.79 43.5358C1334.27 43.5358 1321.71 44.1638 1309.44 45.3974C1282.9 48.1413 1260.11 52.2758 1239.77 58.0552C1206.27 67.5653 1178.69 79.2885 1155.44 93.8977C1129.06 110.473 1108.01 130.809 1091.05 156.072C1075.7 178.951 1062.87 206.3 1050.65 242.15C1039.1 276.041 1031.2 309.917 1027.16 342.836C1018.93 409.87 998.754 481.137 911.44 501.368C893.299 505.615 873.632 507.768 853.002 507.768C789.689 507.768 725.174 488.15 669.673 469.757C532.262 424.225 405.002 367.778 270.267 308.01C236.466 293.02 201.536 277.521 166.15 262.075C116.92 240.587 76.877 229.469 40.1379 227.084C35.2045 226.763 30.2712 226.606 25.4648 226.606C-14.01 226.606 -49.4858 237.26 -82.9957 259.174C-104.037 272.93 -124.205 290.186 -143.714 306.874C-176.634 335.03 -210.659 364.137 -249.813 377.265L-250.044 377.34L-249.753 377.998L-249.558 377.931C-231.925 372.017 -213.821 362.38 -194.2 348.466C-176.716 336.062 -159.681 321.498 -143.214 307.405C-123.719 290.732 -103.567 273.491 -82.5621 259.757C-49.0747 237.858 -13.5615 227.212 26.0105 227.212C77.8339 227.212 127.96 246.187 165.843 262.725C201.147 278.134 236.032 293.611 269.774 308.579L269.946 308.653C404.725 368.436 531.993 424.891 669.433 470.43C706.442 482.692 746.283 495.028 786.849 502.191C810.454 506.355 832.774 508.471 853.196 508.471L853.188 508.463Z" fill="url(#paint2_linear_1549_6750)" fill-opacity="0.5"/>
<path d="M826.645 515.903C847.478 515.903 867.361 513.607 885.741 509.084C906.454 504.045 924.648 495.776 939.822 484.501C953.419 474.4 965.102 461.496 974.536 446.139C982.773 432.741 989.463 417.429 994.994 399.329C999.352 385.063 1002.96 369.183 1006.33 349.348C1011.83 317.124 1021.21 283.338 1034.21 248.923C1043.77 223.608 1057.31 190.965 1077.32 163.011C1117.9 106.309 1177.6 86.5856 1230.65 74.7652C1250.55 70.3317 1273.45 67.4083 1300.64 65.8233C1307.29 65.457 1314.13 65.2775 1320.96 65.2775C1393.23 65.2775 1471.5 85.6959 1535.73 121.299C1569.9 140.245 1599.17 162.794 1622.71 188.326C1648.07 215.825 1666.22 246.232 1676.64 278.687L1676.7 278.882L1677.43 278.71L1677.35 278.478C1666.86 245.783 1648.31 214.98 1622.24 186.921C1597.61 160.416 1567.1 137.194 1531.55 117.897C1496.94 99.1163 1459.27 84.9557 1419.58 75.8194C1386.99 68.3205 1354.29 64.5149 1322.38 64.5149C1315.11 64.5149 1307.78 64.7168 1300.6 65.1056C1273.35 66.6906 1250.41 69.6214 1230.48 74.0624C1195.05 81.9502 1167.73 91.3855 1144.5 103.737C1116.6 118.578 1094.43 137.83 1076.7 162.592C1056.65 190.621 1043.08 223.316 1033.5 248.669C1020.49 283.128 1011.1 316.96 1005.6 349.221C993.589 419.635 970.738 487.649 885.562 508.381C867.241 512.89 847.425 515.177 826.653 515.177C762.122 515.177 697.367 493.563 648.16 474.729C542.801 434.408 445.8 387.448 343.095 337.73C286.533 310.35 228.049 282.037 166.471 254.075C118.684 232.378 79.3512 220.954 42.7019 218.12C36.9612 217.679 31.198 217.455 25.5619 217.455C10.2458 217.455 -4.69641 219.1 -18.8539 222.344C-39.8657 227.167 -60.2721 235.72 -79.505 247.779C-103.036 262.531 -125.416 281.596 -147.056 300.033C-177.463 325.939 -208.903 352.72 -242.824 366.499L-243.055 366.596L-242.712 367.224L-242.525 367.15C-227.239 360.944 -211.183 351.606 -193.437 338.612C-177.605 327.016 -161.833 313.58 -146.577 300.586C-124.93 282.142 -102.573 263.091 -79.0865 248.37C-47.2211 228.393 -11.9247 218.262 25.8235 218.262C79.0447 218.262 128.775 237.746 166.157 254.718C227.728 282.672 286.204 310.986 342.751 338.358C445.486 388.091 542.502 435.059 647.883 475.387C697.15 494.243 761.995 515.88 826.66 515.888L826.645 515.903Z" fill="url(#paint3_linear_1549_6750)" fill-opacity="0.5"/>
<path d="M800.333 523.349C821.248 523.349 841.273 520.912 859.863 516.112C880.382 510.878 898.561 502.415 913.884 490.968C927.765 480.598 939.381 467.941 949.398 452.27C968.481 422.409 977.982 386.738 984.761 355.785C991.675 324.212 1002.54 290.463 1017.05 255.488C1029.16 226.27 1043.12 195.638 1062.94 169.568C1101.15 119.333 1153.88 101.748 1221.3 90.8024C1241.41 87.5351 1263.8 85.8679 1291.75 85.5539C1293.36 85.5389 1295 85.524 1296.61 85.524C1376.51 85.524 1459.42 107.789 1530.05 148.222C1600.74 188.693 1652.49 243.57 1675.78 302.762L1675.85 302.949L1676.57 302.739L1676.48 302.508C1663.9 270.531 1643.75 240.266 1616.58 212.565C1590.84 186.322 1559.57 163.093 1523.64 143.519C1488.64 124.454 1450.72 109.658 1410.94 99.5499C1372.49 89.7781 1334.01 84.8212 1296.56 84.8212C1294.95 84.8212 1293.35 84.8286 1291.75 84.8511C1263.75 85.1651 1241.33 86.8398 1221.18 90.1071C1195.87 94.2192 1163.05 100.604 1133.57 113.636C1104.17 126.63 1080.87 144.79 1062.34 169.156C1042.46 195.287 1028.49 225.97 1016.35 255.234C1001.83 290.246 990.95 324.033 984.029 355.643C968.601 426.08 942.857 494.191 859.662 515.424C840.93 520.269 820.889 522.721 800.087 522.721C749.287 522.721 692.546 508.665 626.625 479.746C542.076 442.655 464.696 401.101 382.772 357.101C314.608 320.496 244.165 282.672 166.777 246.112C145.01 235.832 125.232 227.929 106.298 221.948C84.6808 215.115 64.7079 210.943 45.2358 209.193C38.5608 208.595 31.856 208.288 25.3154 208.288C11.2029 208.288 -2.61841 209.702 -15.7667 212.475C-36.6366 216.886 -56.9159 224.946 -76.0441 236.423C-102.617 252.37 -127.606 273.716 -151.765 294.366C-180.326 318.769 -207.288 341.812 -235.865 355.785L-236.096 355.897L-235.7 356.503L-235.521 356.413C-206.855 342.395 -179.855 319.322 -151.271 294.904C-127.127 274.269 -102.161 252.938 -75.6329 237.021C-44.5 218.337 -10.3998 208.864 25.7189 208.864C79.3661 208.864 129.104 229.111 166.441 246.748C243.821 283.3 314.257 321.124 382.383 357.707C464.345 401.721 541.732 443.283 626.303 480.382C666.735 498.123 703.16 510.056 737.656 516.86C758.893 521.046 779.441 523.23 798.741 523.342C799.265 523.342 799.795 523.342 800.318 523.342L800.333 523.349Z" fill="url(#paint4_linear_1549_6750)" fill-opacity="0.5"/>
<path d="M774.044 530.811C795.004 530.811 815.171 528.224 833.985 523.125C872.728 512.77 902.261 491.596 924.282 458.393C943.664 429.16 954.443 394.888 963.196 362.215C971.605 330.836 983.61 298.074 999.898 262.045C1013.19 232.639 1027.89 201.784 1048.58 176.124C1091.19 123.265 1150.18 113.187 1211.98 106.84C1225.28 105.471 1239.86 104.806 1256.53 104.806C1264.75 104.806 1273.37 104.963 1282.88 105.284C1449.75 110.907 1618.29 206.158 1674.92 326.821L1675 327.008L1675.7 326.761L1675.6 326.537C1660.93 295.285 1639.17 265.581 1610.91 238.247C1584.08 212.296 1552.06 189.081 1515.74 169.239C1480.36 149.919 1442.2 134.488 1402.32 123.385C1362.24 112.223 1322.05 105.89 1282.9 104.574C1273.37 104.253 1264.74 104.096 1256.52 104.096C1239.81 104.096 1225.21 104.761 1211.88 106.129C1182.27 109.172 1150.97 113.389 1122.67 123.527C1091.79 134.592 1067.35 151.654 1047.98 175.691C1027.24 201.418 1012.51 232.318 999.203 261.761C982.9 297.82 970.888 330.627 962.464 362.036C944.86 427.709 918.952 499.678 833.769 522.445C815.014 527.521 794.922 530.1 774.029 530.1C738.352 530.1 680.078 522.228 605.097 484.725C534.885 449.608 471.035 411.239 403.44 370.611C330.104 326.537 254.278 280.975 167.091 238.12C122.773 216.341 83.7463 203.945 47.7772 200.221C40.1379 199.436 32.4762 199.033 25.0088 199.033C12.1072 199.033 -0.562744 200.221 -12.6646 202.561C-33.3849 206.569 -53.5374 214.128 -72.5609 225.036C-102.984 242.471 -131.089 266.8 -158.268 290.328C-182.733 311.502 -205.83 331.502 -228.891 345.042L-229.115 345.169L-228.666 345.737L-228.494 345.64C-205.375 332.055 -182.247 312.04 -157.76 290.844C-130.603 267.338 -102.528 243.039 -72.1722 225.641C-41.8093 208.236 -10.1904 199.773 24.4856 199.773C66.8533 199.773 113.384 212.52 166.74 238.748C253.89 281.588 329.7 327.143 403.021 371.202C470.639 411.837 534.504 450.214 604.746 485.346C646.201 506.078 709.23 530.796 774.029 530.796L774.044 530.811Z" fill="url(#paint5_linear_1549_6750)" fill-opacity="0.5"/>
<path d="M747.793 538.235C768.752 538.235 789.046 535.513 808.107 530.153C846.386 519.379 876.166 497.892 899.151 464.464C919.805 434.431 931.906 399.261 941.631 368.645C951.393 337.901 964.841 305.177 982.743 268.602C995.809 241.903 1012.07 208.67 1034.22 182.674C1080.6 128.23 1148.27 125.254 1202.64 122.862C1208.19 122.615 1213.77 122.503 1219.72 122.503C1235.05 122.503 1252.3 123.295 1274 125C1441.18 138.144 1609.43 233.14 1674.06 350.888L1674.16 351.068L1674.85 350.784L1674.73 350.567C1657.97 320.04 1634.61 290.897 1605.26 263.936C1577.34 238.277 1544.56 215.077 1507.85 194.965C1435.96 155.601 1352.93 130.503 1274.05 124.305C1252.33 122.6 1235.06 121.8 1219.7 121.8C1213.75 121.8 1208.15 121.92 1202.59 122.166C1171.04 123.557 1140.36 125.464 1111.78 133.456C1096.26 137.8 1082.68 143.542 1070.27 151.003C1056.42 159.34 1044.43 169.553 1033.62 182.24C1011.42 208.303 995.136 241.574 982.055 268.303C964.138 304.915 950.676 337.677 940.906 368.451C919.094 437.13 890.854 506.131 807.883 529.48C788.703 534.878 768.363 537.614 747.419 537.614C681.707 537.614 622.057 511.574 583.584 489.735C523.703 455.732 469.652 419.186 412.424 380.488C337.78 330.014 260.602 277.82 167.413 230.15C124.492 208.191 86.1831 195.474 50.3112 191.287C41.6852 190.278 33.0442 189.769 24.62 189.769C12.9517 189.769 1.44775 190.749 -9.57764 192.677C-30.1486 196.281 -50.1737 203.346 -69.0776 213.679C-104.538 233.058 -137.862 262.703 -167.26 288.863C-186.501 305.984 -204.672 322.156 -221.917 334.328L-222.126 334.477L-221.625 335.008L-221.468 334.896C-204.201 322.702 -186.015 306.522 -166.767 289.401C-137.383 263.256 -104.097 233.634 -68.7039 214.292C-39.1332 198.135 -8.67322 190.278 24.4106 190.278C67.1221 190.278 113.781 203.526 167.054 230.778C260.198 278.426 337.362 330.612 411.983 381.071C469.248 419.792 523.299 456.337 583.188 490.348C617.281 509.704 653.691 523.962 688.472 531.566C708.766 535.999 728.724 538.25 747.778 538.25L747.793 538.235Z" fill="url(#paint6_linear_1549_6750)" fill-opacity="0.5"/>
<path d="M722.423 545.704C743.106 545.629 763.228 542.758 782.229 537.173C820.045 526.056 850.079 504.277 874.051 470.587C894.816 441.406 908.166 407.403 920.059 375.075C931.136 344.959 946.026 312.272 965.588 275.158L967.083 272.317C982.309 243.406 998.044 213.5 1019.85 189.231C1038.49 168.469 1061.15 154.629 1089.12 146.914C1115.52 139.632 1143.98 138.652 1168.33 138.652C1176.31 138.652 1184.42 138.764 1192.26 138.876L1193.3 138.891C1217.69 139.235 1243.29 142.032 1265.11 144.723C1432.72 165.381 1600.53 260.056 1673.21 374.948L1673.32 375.112L1673.99 374.798L1673.86 374.581C1655 344.787 1630.02 316.197 1599.61 289.603C1570.59 264.243 1537.07 241.051 1499.96 220.677C1463.83 200.842 1425.19 184.147 1385.1 171.063C1345.05 157.986 1304.72 148.887 1265.22 144.02C1243.37 141.329 1217.75 138.525 1193.31 138.181L1192.28 138.166C1184.53 138.054 1176.51 137.942 1168.58 137.942C1148 137.942 1123.82 138.6 1100.42 143.489C1084.39 146.839 1070.36 151.796 1057.53 158.629C1043.08 166.338 1030.57 176.192 1019.27 188.76C997.416 213.096 981.652 243.032 966.41 271.988L964.915 274.83C945.346 311.98 930.441 344.69 919.349 374.828C892.985 446.49 862.644 512.777 782.005 536.478C762.511 542.212 742.007 545.113 721.07 545.113C650.978 545.113 591.366 513.525 562.072 494.699C509.957 461.204 463.336 425.594 413.979 387.882C340.456 331.711 264.452 273.641 167.742 222.135C126.204 200.012 88.62 186.98 52.8452 182.293C43.2026 181.029 33.5526 180.394 24.1567 180.394C13.7367 180.394 3.42896 181.179 -6.48279 182.734C-26.9116 185.926 -46.7948 192.498 -65.5792 202.262C-108.193 224.408 -146.375 260.213 -180.064 291.809C-192.458 303.427 -204.126 314.373 -214.92 323.561L-215.114 323.726L-214.561 324.212L-214.412 324.085C-203.588 314.866 -191.905 303.906 -179.534 292.31C-145.882 260.751 -107.738 224.984 -65.213 202.883C-37.384 188.423 -7.37231 181.089 23.9998 181.089C67.8474 181.089 114.752 194.719 167.383 222.748C264.041 274.231 340.023 332.279 413.501 388.413C462.895 426.147 509.531 461.773 561.661 495.282C593.571 515.79 628.927 530.878 663.902 538.923C683.434 543.409 702.831 545.689 721.548 545.689H722.43L722.423 545.704Z" fill="url(#paint7_linear_1549_6750)" fill-opacity="0.5"/>
<path d="M696.986 553.195C717.415 553.038 737.387 550.01 756.351 544.194C793.703 532.74 823.999 510.669 848.965 476.718C871.375 446.244 886.407 410.349 898.486 381.512C911.014 351.598 926.883 319.891 948.433 281.715C949.726 279.428 951.02 277.117 952.328 274.792L952.417 274.628C967.883 247.107 983.879 218.643 1005.48 195.78C1024.8 175.332 1055.8 151.856 1124.5 151.856C1141.88 151.856 1159.7 153.157 1176.95 154.413C1179.3 154.585 1181.63 154.757 1183.97 154.921C1207.69 156.618 1232.73 160.499 1256.25 164.446C1424.34 192.648 1591.56 286.912 1672.35 399.007L1672.47 399.164L1673.12 398.813L1672.97 398.603C1631.85 341.535 1569.28 288.908 1492.06 246.404C1455.55 226.314 1416.67 208.984 1376.48 194.905C1336.45 180.88 1296.04 170.39 1256.37 163.736C1232.83 159.788 1207.77 155.9 1184.01 154.203C1181.68 154.039 1179.35 153.867 1177 153.695C1160.01 152.454 1142.44 151.175 1125.12 151.175C1110.77 151.175 1098.16 152.058 1086.55 153.859C1070.55 156.349 1056.51 160.588 1043.61 166.809C1029.25 173.732 1016.23 183.317 1004.91 195.302C983.251 218.232 967.24 246.725 951.752 274.284C950.414 276.661 949.084 279.024 947.768 281.371C926.21 319.569 910.326 351.299 897.791 381.235C872.354 441.982 840.698 517.577 756.12 543.513C736.767 549.45 716.196 552.455 694.975 552.455C642.24 552.455 587.396 533.719 540.551 499.708C494.476 466.251 453.708 430.932 410.541 393.534C339.776 332.219 266.604 268.826 168.063 214.165C149.249 203.728 130.704 195.085 112.936 188.461C93.2395 181.119 73.8646 176.035 55.3568 173.351C44.6752 171.796 33.9862 171.011 23.5961 171.011C14.4393 171.011 5.34973 171.624 -3.41833 172.827C-23.6902 175.616 -43.4388 181.694 -62.1036 190.898C-116.625 217.776 -164.651 267.779 -199.709 304.287L-199.798 304.377C-202.601 307.3 -205.322 310.126 -207.946 312.848L-208.125 313.035L-207.527 313.468L-207.393 313.326C-204.807 310.65 -202.123 307.853 -199.357 304.975L-199.155 304.758C-164.128 268.288 -116.154 218.337 -61.7521 191.519C-35.3059 178.487 -6.67725 171.878 23.3568 171.878C67.8099 171.878 116.374 186.307 167.682 214.771C266.156 269.394 339.298 332.758 410.025 394.043C453.215 431.463 493.99 466.797 540.095 500.269C569.98 521.966 604.282 537.898 639.295 546.354C658.109 550.893 676.953 553.195 695.304 553.195C695.865 553.195 696.425 553.195 696.986 553.195Z" fill="url(#paint8_linear_1549_6750)" fill-opacity="0.5"/>
<path d="M669.082 560.702C669.904 560.702 670.719 560.702 671.541 560.687C691.716 560.448 711.547 557.263 730.481 551.214C767.01 539.543 797.306 517.525 823.109 483.888C845.586 454.58 861.695 420.323 875.912 390.095L876.929 387.934C890.705 358.649 907.979 326.978 931.286 288.265C933.371 284.811 935.502 281.229 937.565 277.768C953.307 251.353 969.58 224.049 991.122 202.33C1017.37 175.863 1050.61 163.541 1095.73 163.541C1118.51 163.541 1141.35 166.562 1163.43 169.478C1167.12 169.964 1170.93 170.472 1174.64 170.943C1198.89 174.053 1223.87 179.175 1247.38 184.162C1416.06 219.944 1582.54 313.715 1671.5 423.067L1671.63 423.216L1672.26 422.827L1672.1 422.625C1626.89 367.052 1561.9 315.016 1484.17 272.13C1447.28 251.787 1408.15 233.828 1367.87 218.756C1327.86 203.788 1287.37 191.907 1247.53 183.459C1224 178.472 1199.01 173.336 1174.73 170.225C1171.03 169.754 1167.22 169.246 1163.54 168.76C1141.23 165.814 1118.19 162.771 1095.49 162.771C1087.68 162.771 1080.47 163.123 1073.45 163.841C1039.6 167.31 1012.49 179.743 990.569 201.836C968.974 223.608 952.672 250.957 936.915 277.401C934.844 280.871 932.714 284.452 930.636 287.906C907.314 326.634 890.032 358.32 876.248 387.635L875.232 389.796C847.029 449.78 811.927 524.441 730.249 550.534C710.553 556.829 689.982 560.014 669.097 560.014C641.171 560.014 612.953 554.436 585.221 543.431C561.242 533.921 538.361 520.523 519.046 504.695C477.859 470.939 441.89 435.455 403.813 397.886C336.846 331.808 267.614 263.503 168.392 206.173C130.113 184.057 92.9331 169.994 57.8759 164.379C46.1254 162.495 34.3823 161.545 22.9681 161.545C15.097 161.545 7.2561 162.001 -0.330933 162.898C-20.4534 165.284 -40.0599 170.876 -58.6051 179.519C-85.2605 191.945 -112.836 211.144 -140.575 236.587C-166.864 260.699 -187.921 285.536 -200.957 302.126L-201.114 302.328L-200.471 302.702L-200.351 302.545C-174.354 269.454 -121.327 209.552 -58.2688 180.154C-32.7272 168.244 -5.33923 162.211 23.1177 162.211C68.0717 162.211 116.815 177.209 168.003 206.786C267.143 264.071 336.338 332.346 403.26 398.372C441.36 435.964 477.336 471.462 518.56 505.241C532.008 516.261 546.883 525.973 562.752 534.108C579.466 542.676 596.942 549.293 614.695 553.786C632.814 558.369 651.12 560.702 669.097 560.702H669.082Z" fill="url(#paint9_linear_1549_6750)" fill-opacity="0.5"/>
<path d="M642.883 568.216C643.952 568.216 645.021 568.208 646.089 568.186C666.017 567.864 685.706 564.515 704.603 558.227C739.854 546.504 769.791 524.972 796.118 492.396C819.088 463.978 836.385 430.76 851.649 401.444C852.889 399.059 854.123 396.689 855.349 394.349C870.538 365.281 888.664 334.582 914.124 294.814C916.889 290.493 919.722 285.992 922.458 281.641L922.548 281.499C938.589 255.996 955.176 229.634 976.748 208.879C1001.1 185.448 1031.8 174.053 1070.6 174.053C1097.59 174.053 1124.82 179.257 1151.15 184.289L1151.29 184.319C1155.91 185.201 1160.68 186.113 1165.29 186.965C1188.86 191.309 1213.37 197.448 1238.49 203.885C1407.85 247.279 1573.45 340.488 1670.65 447.126L1670.78 447.268L1671.4 446.849L1671.22 446.662C1646.07 419.067 1616.26 392.144 1582.63 366.656C1550.34 342.178 1514.55 319.038 1476.27 297.872C1401.72 256.654 1319.56 223.914 1238.68 203.189C1213.54 196.752 1189.03 190.606 1165.44 186.263C1160.86 185.418 1156.12 184.513 1151.52 183.638L1151.3 183.601C1124.92 178.562 1097.65 173.351 1070.57 173.351C1031.58 173.351 1000.71 184.812 976.21 208.386C954.578 229.2 937.969 255.6 921.905 281.132C919.139 285.536 916.276 290.074 913.481 294.455C888.014 334.238 869.88 364.952 854.676 394.05C853.51 396.278 852.336 398.529 851.163 400.794L850.983 401.145C819.193 462.191 783.164 531.372 704.349 557.577C684.592 564.149 664.059 567.476 643.331 567.476C615.248 567.476 587.172 561.524 559.889 549.779C536.552 539.73 514.988 525.884 497.511 509.719C460.376 475.372 427.001 437.683 394.732 401.243C332.301 330.754 267.756 257.865 168.706 198.218C131.758 175.967 95.3027 161.575 60.3651 155.437C47.5457 153.186 34.7635 152.043 22.3777 152.043C-4.71875 152.043 -30.791 157.463 -55.1293 168.162C-82.4873 180.184 -110.877 199.511 -137.219 224.056C-159.71 245.006 -179.87 268.931 -193.983 291.427L-194.117 291.644L-193.445 291.958L-193.34 291.786C-166.557 249.103 -113.336 194.524 -54.8154 168.805C-30.709 158.211 -4.85327 152.835 22.0264 152.835C68.423 152.835 117.638 168.304 168.295 198.808C267.247 258.396 331.763 331.247 394.156 401.691C426.455 438.162 459.838 475.858 496.988 510.22C509.628 521.906 523.89 532.194 539.378 540.792C555.479 549.719 572.522 556.605 590.043 561.248C607.511 565.876 625.287 568.223 642.883 568.223V568.216Z" fill="url(#paint10_linear_1549_6750)" fill-opacity="0.5"/>
<path d="M616.608 575.775C637.74 575.775 658.64 572.238 678.717 565.255C712.698 553.577 742.201 532.59 768.917 501.099C792.253 473.585 810.604 441.392 826.795 412.988L827.019 412.599C829.246 408.689 831.541 404.667 833.776 400.786C854.773 364.301 878.573 328.496 896.961 301.379C900.459 296.22 903.995 290.867 907.419 285.7C923.781 260.961 940.697 235.376 962.374 215.436C985.501 194.165 1013.61 183.825 1048.32 183.825C1078.88 183.825 1109.85 191.549 1139.8 199.01L1139.94 199.048C1145.48 200.431 1150.71 201.732 1155.96 202.988C1180.66 208.909 1206.65 216.707 1229.59 223.593C1399.72 274.665 1564.27 367.224 1669.8 471.185L1669.94 471.32L1670.53 470.871L1670.34 470.692C1643.08 443.829 1611.66 417.474 1576.97 392.346C1543.58 368.166 1507.04 345.042 1468.36 323.614C1393.4 282.082 1310.91 247.264 1229.83 222.92C1206.87 216.027 1180.86 208.221 1156.14 202.292C1150.85 201.021 1145.58 199.713 1139.99 198.322C1110.23 190.898 1079.45 183.227 1048.72 183.182H1048.46C1013.4 183.182 985.068 193.56 961.843 214.92C940.099 234.92 923.161 260.534 906.776 285.312C903.315 290.545 899.779 295.898 896.318 300.99C877.923 328.115 854.115 363.935 833.103 400.443C830.801 404.45 828.424 408.607 826.129 412.637C792.5 471.627 754.385 538.489 678.448 564.582C658.55 571.498 637.717 575.004 616.526 575.004C563.88 575.004 512.648 553.023 475.976 514.691C442.332 479.537 412.716 441.018 384.072 403.77C326.65 329.102 267.285 251.906 169.005 190.203C133.365 167.826 97.6422 153.104 62.8317 146.435C48.8685 143.759 34.9578 142.405 21.4955 142.405C-3.98633 142.405 -28.6011 147.235 -51.6686 156.753C-79.991 168.439 -108.418 187.362 -133.885 211.473C-157.102 233.447 -175.968 258.03 -187.016 280.676L-187.129 280.9L-186.426 281.155L-186.336 280.975C-165.735 238.748 -112.761 182.741 -51.3696 157.403C-28.2349 147.856 -3.66492 143.011 21.6749 143.011C80.2032 143.011 133.873 168.992 168.586 190.786C266.747 252.415 326.075 329.565 383.452 404.166C412.118 441.436 441.749 479.97 475.423 515.162C487.263 527.536 500.92 538.407 515.996 547.461C531.499 556.777 548.124 563.932 565.398 568.732C582.164 573.39 599.394 575.752 616.601 575.752L616.608 575.775Z" fill="url(#paint11_linear_1549_6750)" fill-opacity="0.5"/>
<path d="M590.499 583.318C611.563 583.318 632.537 579.602 652.839 572.276C685.609 560.575 714.679 540.059 741.708 509.555C765.358 482.871 783.836 452.988 801.709 424.091C805.312 418.267 808.713 412.771 812.204 407.209C834.546 371.695 858.914 337.094 879.806 307.928C883.933 302.164 887.946 296.369 892.2 290.231C908.899 266.127 926.166 241.208 948.007 221.978C969.901 202.703 996.131 193.328 1028.19 193.328C1062.63 193.328 1097.96 204.161 1129.15 213.716L1129.25 213.746C1135.28 215.593 1140.96 217.335 1146.62 219.002C1168.9 225.559 1191 233.133 1214.4 241.148L1220.73 243.316C1392.25 302.642 1555.62 394.469 1668.94 495.245L1669.09 495.372L1669.65 494.901L1669.45 494.729C1640.1 468.629 1607.08 442.842 1571.28 418.08C1536.83 394.245 1499.52 371.157 1460.41 349.468C1422.42 328.399 1382.57 308.549 1341.94 290.47C1302.04 272.706 1261.34 256.624 1220.97 242.666L1214.64 240.497C1191.22 232.482 1169.11 224.909 1146.84 218.344C1141.19 216.677 1135.5 214.935 1129.47 213.096L1129.38 213.066C1100.74 204.289 1068.29 194.345 1036.88 192.73C1033.93 192.58 1030.98 192.498 1028.12 192.498C996.018 192.498 969.64 201.978 947.491 221.477C925.583 240.766 908.293 265.723 891.572 289.857C887.319 295.988 883.305 301.782 879.186 307.539C858.294 336.713 833.918 371.322 811.561 406.857C808.115 412.33 804.721 417.826 801.126 423.642L801.066 423.747C765.777 480.808 725.786 545.48 652.577 571.625C632.455 578.885 611.75 582.571 591.044 582.571C564.224 582.571 537.023 576.238 512.401 564.246C489.849 553.27 469.817 537.869 454.471 519.716C423.898 483.552 397.669 443.963 372.307 405.684C346.391 366.559 319.594 326.118 287.549 288.108C270.275 267.622 252.963 249.544 234.627 232.841C214.011 214.068 192.656 197.515 169.341 182.248C153.031 171.564 136.25 162.413 119.469 155.048C101.365 147.101 83.1411 141.194 65.321 137.486C50.1844 134.338 35.1223 132.746 20.5613 132.746C-3.29102 132.746 -26.4183 137.007 -48.1777 145.403C-62.963 151.108 -77.7258 158.779 -92.0477 168.192C-105.704 177.164 -118.651 187.511 -130.521 198.935C-154 221.529 -171.573 246.763 -180.02 269.985L-180.102 270.217L-179.384 270.411L-179.317 270.217C-161.318 220.722 -106.048 168.506 -47.8937 146.054C-26.2539 137.703 -3.28357 133.463 20.3894 133.463C80.8538 133.463 134.523 160.304 168.9 182.816C265.82 246.292 319.624 327.509 371.656 406.05C397.034 444.352 423.271 483.955 453.873 520.149C464.921 533.211 477.942 544.665 492.585 554.175C507.49 563.857 523.688 571.274 540.716 576.223C556.921 580.933 573.673 583.318 590.491 583.318H590.499Z" fill="url(#paint12_linear_1549_6750)" fill-opacity="0.5"/>
<path d="M564.426 590.862C585.408 590.862 606.45 586.974 626.961 579.296C697.726 553.046 739.413 490.4 776.205 435.126L776.279 435.014C781.228 427.582 785.899 420.562 790.631 413.639C814.394 378.873 840.376 344.002 862.652 314.485C867.406 308.19 872.018 301.812 876.906 295.061C893.956 271.51 911.59 247.151 933.641 228.535C954.682 210.778 979.275 202.143 1008.83 202.143C1046.35 202.143 1084.97 216.146 1119.05 228.497L1119.16 228.542C1125.46 230.823 1131.41 232.983 1137.29 235.032C1158.93 242.583 1180.25 250.822 1202.82 259.547C1205.82 260.706 1208.83 261.873 1211.85 263.039C1384.32 330.163 1546.35 421.175 1668.09 519.297L1668.24 519.416L1668.78 518.916L1668.58 518.751C1606.31 468.561 1533.62 420.263 1452.51 375.179C1375.85 332.571 1294.97 294.62 1212.13 262.374L1203.1 258.882C1180.53 250.157 1159.2 241.91 1137.55 234.359C1131.61 232.288 1125.64 230.12 1119.32 227.832C1090.34 217.328 1057.51 205.425 1025.33 202.203C1019.71 201.642 1014.17 201.35 1008.87 201.35C979.155 201.35 954.383 210.068 933.14 227.997C911.021 246.665 893.366 271.054 876.293 294.642C871.405 301.394 866.793 307.771 862.046 314.059C839.763 343.591 813.773 378.469 790.003 413.242C785.249 420.195 780.555 427.253 775.584 434.722C738.845 489.922 697.225 552.463 626.692 578.631C606.458 586.197 585.52 590.04 564.471 590.04C511.811 590.04 463.867 566.219 432.943 524.695C405.136 487.35 382.062 446.505 359.749 406.999C336.584 365.991 312.635 323.599 282.922 283.958C266.903 262.59 250.593 243.787 233.05 226.464C213.331 206.995 192.596 189.911 169.663 174.233C137.057 151.945 101.836 136.125 67.8025 128.477C51.4698 124.806 35.2344 122.944 19.5596 122.944C-2.64832 122.944 -24.2582 126.667 -44.6721 134.002C-74.2203 144.618 -103.514 163.205 -127.142 186.337C-150.658 209.358 -166.946 235.249 -173.001 259.241L-173.061 259.473L-172.321 259.607L-172.268 259.405C-159.8 210.001 -104.822 156.371 -44.3954 134.66C-23.817 127.265 -2.15491 123.512 19.9932 123.512C81.332 123.512 135.017 151.4 169.244 174.801C264.586 239.974 312.642 325.049 359.114 407.328C381.441 446.849 404.524 487.716 432.353 525.099C442.601 538.863 454.994 550.893 469.181 560.851C483.496 570.907 499.268 578.586 516.041 583.677C531.716 588.432 548.004 590.847 564.449 590.847L564.426 590.862Z" fill="url(#paint13_linear_1549_6750)" fill-opacity="0.5"/>
<path d="M538.391 598.413C559.284 598.413 580.378 594.346 601.083 586.316C669.209 560.096 712.294 499.536 750.304 446.102C756.77 437.018 762.877 428.427 769.059 420.061C790.444 391.112 814.02 360.57 845.497 321.034C850.714 314.433 855.775 307.719 861.134 300.609C878.67 277.342 896.812 253.29 919.274 235.084C939.598 218.614 962.867 210.606 990.42 210.606C1030.87 210.606 1072.58 228.019 1109.38 243.376C1115.84 246.075 1121.95 248.624 1127.97 251.047C1149.08 259.547 1169.76 268.452 1191.66 277.88C1195.43 279.502 1199.2 281.125 1202.98 282.755C1373.97 356.682 1538.85 449.227 1667.24 543.349L1667.4 543.461L1667.91 542.938L1667.7 542.781C1601.32 494.116 1526.26 446.378 1444.62 400.906C1367.55 357.983 1286.36 318.014 1203.29 282.104C1199.59 280.512 1191.96 277.229 1191.96 277.229C1170.07 267.802 1149.39 258.897 1128.26 250.389C1122.22 247.959 1116.13 245.417 1109.69 242.725C1072.82 227.331 1031.02 209.881 990.42 209.881C962.695 209.881 939.269 217.948 918.795 234.531C896.259 252.796 878.095 276.886 860.536 300.182C855.177 307.285 850.124 313.999 844.906 320.593C813.422 360.137 789.846 390.686 768.453 419.642C762.279 427.994 756.187 436.562 749.729 445.638C711.734 499.043 668.716 559.506 600.807 585.651C580.138 593.658 558.985 597.726 537.943 597.726C485.776 597.726 439.656 572.926 411.423 529.697C386.173 491.036 366.088 448.756 346.661 407.874C326.321 365.071 305.295 320.81 277.989 279.614C263.271 257.417 248 237.918 231.301 220.019C212.539 199.907 192.476 182.315 169.977 166.255C138.62 143.871 104.138 127.699 70.2543 119.497C52.7032 115.243 35.2719 113.09 18.4534 113.09C-2.09509 113.09 -22.165 116.297 -41.2036 122.63C-71.4769 132.701 -100.808 150.861 -123.808 173.769C-147.242 197.111 -162.237 223.66 -166.027 248.535L-166.064 248.766L-165.317 248.849L-165.287 248.632C-157.61 198.195 -104.157 144.312 -40.957 123.295C-22.1726 117.052 -2.16235 113.882 18.5206 113.882C68.7892 113.882 121.001 132.185 169.513 166.816C263.009 233.567 305.182 322.32 345.958 408.158C365.393 449.062 385.485 491.357 410.765 530.063C420.206 544.523 431.956 557.135 445.68 567.55C459.412 577.973 474.758 585.92 491.277 591.154C506.444 595.961 522.29 598.398 538.384 598.398L538.391 598.413Z" fill="url(#paint14_linear_1549_6750)" fill-opacity="0.5"/>
<path d="M512.349 605.927C514.449 605.927 516.587 605.883 518.702 605.793C537.502 605.023 556.51 600.828 575.198 593.337C604.469 581.651 632.022 562.541 659.417 534.908C683.494 510.617 704.087 483.38 724.007 457.04C732.088 446.348 739.727 436.248 747.479 426.491C770.15 397.96 795.086 367.464 828.334 327.591C834.165 320.556 839.831 313.341 845.826 305.7C863.743 282.859 882.228 259.301 904.907 241.634C924.559 226.329 946.714 218.89 972.659 218.89C982.108 218.89 992.214 219.914 1002.69 221.941C1036.55 228.483 1070.29 244.385 1100.06 258.411C1106.53 261.461 1112.64 264.34 1118.64 267.069C1139.27 276.474 1160.35 286.47 1180.75 296.138C1185.21 298.253 1189.66 300.362 1194.11 302.47C1366.19 384.241 1529.51 475.851 1666.4 567.393L1666.56 567.498L1667.05 566.952L1666.83 566.81C1596.33 519.663 1518.91 472.501 1436.72 426.625C1359.25 383.396 1277.74 341.401 1194.45 301.827C1190.21 299.824 1185.99 297.82 1181.77 295.824L1181.1 295.51C1160.71 285.842 1139.63 275.839 1118.97 266.426C1113.02 263.712 1106.92 260.841 1100.46 257.805C1070.59 243.727 1036.8 227.802 1002.84 221.245C992.318 219.212 982.16 218.18 972.659 218.18C946.542 218.18 924.23 225.671 904.444 241.088C881.69 258.807 863.182 282.403 845.28 305.229C839.278 312.885 833.604 320.115 827.766 327.158C794.503 367.052 769.567 397.557 746.903 426.072C739.167 435.807 731.527 445.907 723.439 456.606C684.443 508.187 640.266 566.616 574.928 592.694C554.47 600.896 533.533 605.06 512.693 605.06C487.465 605.06 462.985 598.765 441.898 586.855C420.393 574.705 402.408 556.68 389.895 534.714C367.037 494.587 349.837 450.737 333.198 408.33C315.729 363.808 297.67 317.767 272.831 275.091C259.451 252.101 245.249 231.952 229.432 213.5C211.657 192.767 192.312 174.704 170.306 158.285C140.174 135.804 106.425 119.28 72.7212 110.51C54.2358 105.703 35.7952 103.236 17.9227 103.176H17.3098C-1.64648 103.176 -20.1616 105.897 -37.7052 111.266C-68.6437 120.723 -98.0275 138.458 -120.452 161.186C-131.777 172.67 -140.844 184.939 -147.392 197.657C-154.283 211.04 -158.2 224.55 -159.015 237.821L-159.03 238.045L-158.283 238.082L-158.268 237.866C-155.083 186.158 -103.155 132.02 -37.4735 111.939C-20.3784 106.712 -2.10999 104.058 16.8314 104.058C68.1539 104.058 122.496 123.512 169.842 158.839C261.297 227.069 297.491 319.337 332.503 408.577C349.15 451.006 366.357 494.879 389.245 535.05C397.878 550.205 408.971 563.401 422.209 574.264C435.365 585.06 450.285 593.262 466.543 598.645C481.149 603.483 496.562 605.927 512.371 605.935L512.349 605.927Z" fill="url(#paint15_linear_1549_6750)" fill-opacity="0.5"/>
<path d="M486.374 613.464C489.05 613.464 491.77 613.389 494.469 613.239C512.663 612.245 531.118 607.909 549.334 600.357C577.485 588.709 604.454 570.07 631.79 543.356C655.844 519.85 676.938 493.465 697.337 467.948C707.189 455.627 716.488 443.993 725.921 432.913C756.568 396.921 787.589 361.221 811.195 334.141C817.675 326.687 823.924 319.023 830.532 310.911C848.771 288.534 867.63 265.402 890.548 248.183C909.624 233.918 930.845 226.987 955.407 226.987C966.739 226.987 978.961 228.527 991.728 231.563C1026.57 239.847 1060.85 257.805 1091.1 273.648C1097.47 276.983 1103.46 280.123 1109.31 283.099C1129.66 293.439 1150.23 304.085 1170.12 314.373L1185.24 322.193C1358.45 411.882 1520.05 502.475 1665.55 591.453L1665.72 591.557L1666.18 590.997L1665.96 590.862C1520.45 501.884 1358.83 411.276 1185.6 321.573C1180.56 318.963 1170.4 313.707 1170.4 313.707C1150.48 303.405 1129.89 292.743 1109.67 282.471C1103.75 279.465 1097.5 276.19 1091.47 273.028C1061.18 257.162 1026.84 239.181 991.915 230.875C979.08 227.825 966.799 226.277 955.4 226.277C930.666 226.277 909.302 233.26 890.084 247.63C867.092 264.901 848.21 288.07 829.942 310.478C823.319 318.605 817.07 326.268 810.619 333.692C787.043 360.742 756.045 396.42 725.346 432.472C715.905 443.56 706.599 455.201 696.754 467.522C656.95 517.308 611.847 573.733 549.043 599.714C528.106 608.395 507.049 612.798 486.463 612.798C471.925 612.798 457.715 610.578 444.238 606.189C411.154 595.423 384.207 571.812 368.375 539.708C347.804 498.004 333.423 452.457 319.512 408.405C304.921 362.208 289.844 314.448 267.509 270.374C255.474 246.628 242.371 225.858 227.459 206.89C210.7 185.575 192.11 167.07 170.627 150.301C141.699 127.729 108.69 110.854 75.1729 101.509C56.9341 96.4247 38.688 93.621 20.9501 93.1874C19.328 93.15 17.6836 93.1276 16.069 93.1276C-1.22791 93.1276 -18.1437 95.4004 -34.2296 99.8864C-49.8522 104.245 -65.0111 110.712 -79.2957 119.101C-93.5652 127.49 -106.287 137.411 -117.111 148.581C-128.301 160.132 -136.987 172.558 -142.944 185.515C-149.26 199.257 -152.31 213.245 -152.026 227.092V227.316L-151.271 227.309V227.084C-152.542 166.502 -91.8086 116.686 -34.0203 100.559C-18.1212 96.1257 -1.27271 93.8752 16.069 93.8752C68.3408 93.8752 123.057 114.107 170.134 150.839C259.376 220.475 289.575 316.107 318.772 408.585C332.69 452.666 347.079 498.243 367.68 539.999C375.678 556.223 386.404 570.257 399.545 581.711C412.529 593.023 427.479 601.486 443.976 606.854C457.446 611.236 471.708 613.456 486.374 613.456V613.464Z" fill="url(#paint16_linear_1549_6750)" fill-opacity="0.5"/>
<path d="M460.428 621C463.127 621 465.87 620.918 468.583 620.761C486.71 619.714 505.165 615.213 523.449 607.385C550.493 595.797 576.849 577.629 604.028 551.835C627.985 529.099 649.468 503.566 670.241 478.879C682.014 464.89 693.091 451.717 704.341 439.35L794.032 340.705C801.126 332.907 807.965 324.803 815.208 316.22C833.776 294.224 852.979 271.488 876.174 254.74C894.719 241.35 915.11 234.845 938.499 234.845C951.595 234.845 965.827 236.976 980.799 241.185C1016.66 251.256 1051.52 271.323 1082.28 289.027C1088.49 292.601 1094.31 295.951 1099.96 299.121L1664.86 615.602L1665.29 615.019L1100.35 298.508C1094.65 295.308 1088.83 291.966 1082.67 288.422C1051.87 270.695 1016.96 250.606 981.016 240.505C965.969 236.273 951.662 234.135 938.492 234.135C914.931 234.135 894.397 240.692 875.718 254.179C852.456 270.972 833.223 293.745 814.625 315.771C807.382 324.347 800.543 332.444 793.457 340.242L703.773 438.887C692.508 451.283 681.416 464.464 669.68 478.415C629.263 526.459 583.45 580.911 523.142 606.75C502.056 615.781 480.992 620.365 460.54 620.365C446.076 620.365 432.024 618.047 418.771 613.471C386.404 602.301 360.855 577.883 346.825 544.717C328.459 501.301 316.866 453.93 305.653 408.113C293.963 360.331 281.868 310.926 262.052 265.506C251.378 241.043 239.381 219.683 225.388 200.214C209.668 178.345 191.856 159.407 170.926 142.316C143.187 119.662 110.918 102.436 77.6021 92.4995C59.61 87.1314 41.5656 83.9987 23.9697 83.1838C20.8976 83.0417 17.7955 82.967 14.7457 82.967C-0.861816 82.967 -16.1703 84.8286 -30.7463 88.5071C-46.5557 92.4921 -61.8196 98.6453 -76.1116 106.802C-90.5007 115.011 -103.163 124.821 -113.762 135.976C-124.803 147.594 -133.122 160.177 -138.482 173.381C-144.208 187.474 -146.405 201.941 -145.015 216.378L-144.993 216.595L-144.245 216.543L-144.267 216.311C-150.27 153.882 -90.1567 104.223 -30.552 89.1949C-16.0807 85.5464 -0.921509 83.6922 14.4917 83.6922C42.7543 83.6922 71.8539 89.7407 100.991 101.673C125.957 111.894 149.974 126.136 170.44 142.854C257.351 213.836 281.539 312.676 304.928 408.263C316.148 454.102 327.749 501.503 346.13 544.979C353.246 561.801 363.202 576.343 375.73 588.208C388.026 599.856 402.423 608.574 418.516 614.129C431.732 618.69 445.837 621.008 460.436 621.008L460.428 621Z" fill="url(#paint17_linear_1549_6750)" fill-opacity="0.5"/>
<defs>
<linearGradient id="paint0_linear_1549_6750" x1="1436" y1="426.682" x2="-2.86072" y2="412.44" gradientUnits="userSpaceOnUse">
<stop stop-color="#FB99FF" stop-opacity="0"/>
<stop offset="0.198748" stop-color="#B78BFF" stop-opacity="0.327629"/>
<stop offset="0.498137" stop-color="#1B4DFF" stop-opacity="0.51"/>
<stop offset="0.835327" stop-color="#B78BFF" stop-opacity="0.327629"/>
<stop offset="0.999631" stop-color="white" stop-opacity="0"/>
</linearGradient>
<linearGradient id="paint1_linear_1549_6750" x1="1436" y1="426.682" x2="-2.86072" y2="412.44" gradientUnits="userSpaceOnUse">
<stop stop-color="#FB99FF" stop-opacity="0"/>
<stop offset="0.198748" stop-color="#B78BFF" stop-opacity="0.327629"/>
<stop offset="0.498137" stop-color="#1B4DFF" stop-opacity="0.51"/>
<stop offset="0.835327" stop-color="#B78BFF" stop-opacity="0.327629"/>
<stop offset="0.999631" stop-color="white" stop-opacity="0"/>
</linearGradient>
<linearGradient id="paint2_linear_1549_6750" x1="1436" y1="426.682" x2="-2.86072" y2="412.44" gradientUnits="userSpaceOnUse">
<stop stop-color="#FB99FF" stop-opacity="0"/>
<stop offset="0.198748" stop-color="#B78BFF" stop-opacity="0.327629"/>
<stop offset="0.498137" stop-color="#1B4DFF" stop-opacity="0.51"/>
<stop offset="0.835327" stop-color="#B78BFF" stop-opacity="0.327629"/>
<stop offset="0.999631" stop-color="white" stop-opacity="0"/>
</linearGradient>
<linearGradient id="paint3_linear_1549_6750" x1="1436" y1="426.682" x2="-2.86072" y2="412.44" gradientUnits="userSpaceOnUse">
<stop stop-color="#FB99FF" stop-opacity="0"/>
<stop offset="0.198748" stop-color="#B78BFF" stop-opacity="0.327629"/>
<stop offset="0.498137" stop-color="#1B4DFF" stop-opacity="0.51"/>
<stop offset="0.835327" stop-color="#B78BFF" stop-opacity="0.327629"/>
<stop offset="0.999631" stop-color="white" stop-opacity="0"/>
</linearGradient>
<linearGradient id="paint4_linear_1549_6750" x1="1436" y1="426.682" x2="-2.86072" y2="412.44" gradientUnits="userSpaceOnUse">
<stop stop-color="#FB99FF" stop-opacity="0"/>
<stop offset="0.198748" stop-color="#B78BFF" stop-opacity="0.327629"/>
<stop offset="0.498137" stop-color="#1B4DFF" stop-opacity="0.51"/>
<stop offset="0.835327" stop-color="#B78BFF" stop-opacity="0.327629"/>
<stop offset="0.999631" stop-color="white" stop-opacity="0"/>
</linearGradient>
<linearGradient id="paint5_linear_1549_6750" x1="1436" y1="426.682" x2="-2.86072" y2="412.44" gradientUnits="userSpaceOnUse">
<stop stop-color="#FB99FF" stop-opacity="0"/>
<stop offset="0.198748" stop-color="#B78BFF" stop-opacity="0.327629"/>
<stop offset="0.498137" stop-color="#1B4DFF" stop-opacity="0.51"/>
<stop offset="0.835327" stop-color="#B78BFF" stop-opacity="0.327629"/>
<stop offset="0.999631" stop-color="white" stop-opacity="0"/>
</linearGradient>
<linearGradient id="paint6_linear_1549_6750" x1="1436" y1="426.682" x2="-2.86072" y2="412.44" gradientUnits="userSpaceOnUse">
<stop stop-color="#FB99FF" stop-opacity="0"/>
<stop offset="0.198748" stop-color="#B78BFF" stop-opacity="0.327629"/>
<stop offset="0.498137" stop-color="#1B4DFF" stop-opacity="0.51"/>
<stop offset="0.835327" stop-color="#B78BFF" stop-opacity="0.327629"/>
<stop offset="0.999631" stop-color="white" stop-opacity="0"/>
</linearGradient>
<linearGradient id="paint7_linear_1549_6750" x1="1436" y1="426.682" x2="-2.86072" y2="412.44" gradientUnits="userSpaceOnUse">
<stop stop-color="#FB99FF" stop-opacity="0"/>
<stop offset="0.198748" stop-color="#B78BFF" stop-opacity="0.327629"/>
<stop offset="0.498137" stop-color="#1B4DFF" stop-opacity="0.51"/>
<stop offset="0.835327" stop-color="#B78BFF" stop-opacity="0.327629"/>
<stop offset="0.999631" stop-color="white" stop-opacity="0"/>
</linearGradient>
<linearGradient id="paint8_linear_1549_6750" x1="1436" y1="426.682" x2="-2.86072" y2="412.44" gradientUnits="userSpaceOnUse">
<stop stop-color="#FB99FF" stop-opacity="0"/>
<stop offset="0.198748" stop-color="#B78BFF" stop-opacity="0.327629"/>
<stop offset="0.498137" stop-color="#1B4DFF" stop-opacity="0.51"/>
<stop offset="0.835327" stop-color="#B78BFF" stop-opacity="0.327629"/>
<stop offset="0.999631" stop-color="white" stop-opacity="0"/>
</linearGradient>
<linearGradient id="paint9_linear_1549_6750" x1="1436" y1="426.682" x2="-2.86072" y2="412.44" gradientUnits="userSpaceOnUse">
<stop stop-color="#FB99FF" stop-opacity="0"/>
<stop offset="0.198748" stop-color="#B78BFF" stop-opacity="0.327629"/>
<stop offset="0.498137" stop-color="#1B4DFF" stop-opacity="0.51"/>
<stop offset="0.835327" stop-color="#B78BFF" stop-opacity="0.327629"/>
<stop offset="0.999631" stop-color="white" stop-opacity="0"/>
</linearGradient>
<linearGradient id="paint10_linear_1549_6750" x1="1436" y1="426.682" x2="-2.86072" y2="412.44" gradientUnits="userSpaceOnUse">
<stop stop-color="#FB99FF" stop-opacity="0"/>
<stop offset="0.198748" stop-color="#B78BFF" stop-opacity="0.327629"/>
<stop offset="0.498137" stop-color="#1B4DFF" stop-opacity="0.51"/>
<stop offset="0.835327" stop-color="#B78BFF" stop-opacity="0.327629"/>
<stop offset="0.999631" stop-color="white" stop-opacity="0"/>
</linearGradient>
<linearGradient id="paint11_linear_1549_6750" x1="1436" y1="426.682" x2="-2.86072" y2="412.44" gradientUnits="userSpaceOnUse">
<stop stop-color="#FB99FF" stop-opacity="0"/>
<stop offset="0.198748" stop-color="#B78BFF" stop-opacity="0.327629"/>
<stop offset="0.498137" stop-color="#1B4DFF" stop-opacity="0.51"/>
<stop offset="0.835327" stop-color="#B78BFF" stop-opacity="0.327629"/>
<stop offset="0.999631" stop-color="white" stop-opacity="0"/>
</linearGradient>
<linearGradient id="paint12_linear_1549_6750" x1="1436" y1="426.682" x2="-2.86072" y2="412.44" gradientUnits="userSpaceOnUse">
<stop stop-color="#FB99FF" stop-opacity="0"/>
<stop offset="0.198748" stop-color="#B78BFF" stop-opacity="0.327629"/>
<stop offset="0.498137" stop-color="#1B4DFF" stop-opacity="0.51"/>
<stop offset="0.835327" stop-color="#B78BFF" stop-opacity="0.327629"/>
<stop offset="0.999631" stop-color="white" stop-opacity="0"/>
</linearGradient>
<linearGradient id="paint13_linear_1549_6750" x1="1436" y1="426.682" x2="-2.86072" y2="412.44" gradientUnits="userSpaceOnUse">
<stop stop-color="#FB99FF" stop-opacity="0"/>
<stop offset="0.198748" stop-color="#B78BFF" stop-opacity="0.327629"/>
<stop offset="0.498137" stop-color="#1B4DFF" stop-opacity="0.51"/>
<stop offset="0.835327" stop-color="#B78BFF" stop-opacity="0.327629"/>
<stop offset="0.999631" stop-color="white" stop-opacity="0"/>
</linearGradient>
<linearGradient id="paint14_linear_1549_6750" x1="1436" y1="426.682" x2="-2.86072" y2="412.44" gradientUnits="userSpaceOnUse">
<stop stop-color="#FB99FF" stop-opacity="0"/>
<stop offset="0.198748" stop-color="#B78BFF" stop-opacity="0.327629"/>
<stop offset="0.498137" stop-color="#1B4DFF" stop-opacity="0.51"/>
<stop offset="0.835327" stop-color="#B78BFF" stop-opacity="0.327629"/>
<stop offset="0.999631" stop-color="white" stop-opacity="0"/>
</linearGradient>
<linearGradient id="paint15_linear_1549_6750" x1="1436" y1="426.682" x2="-2.86072" y2="412.44" gradientUnits="userSpaceOnUse">
<stop stop-color="#FB99FF" stop-opacity="0"/>
<stop offset="0.198748" stop-color="#B78BFF" stop-opacity="0.327629"/>
<stop offset="0.498137" stop-color="#1B4DFF" stop-opacity="0.51"/>
<stop offset="0.835327" stop-color="#B78BFF" stop-opacity="0.327629"/>
<stop offset="0.999631" stop-color="white" stop-opacity="0"/>
</linearGradient>
<linearGradient id="paint16_linear_1549_6750" x1="1436" y1="426.682" x2="-2.86072" y2="412.44" gradientUnits="userSpaceOnUse">
<stop stop-color="#FB99FF" stop-opacity="0"/>
<stop offset="0.198748" stop-color="#B78BFF" stop-opacity="0.327629"/>
<stop offset="0.498137" stop-color="#1B4DFF" stop-opacity="0.51"/>
<stop offset="0.835327" stop-color="#B78BFF" stop-opacity="0.327629"/>
<stop offset="0.999631" stop-color="white" stop-opacity="0"/>
</linearGradient>
<linearGradient id="paint17_linear_1549_6750" x1="1436" y1="426.682" x2="-2.86072" y2="412.44" gradientUnits="userSpaceOnUse">
<stop stop-color="#FB99FF" stop-opacity="0"/>
<stop offset="0.198748" stop-color="#B78BFF" stop-opacity="0.327629"/>
<stop offset="0.498137" stop-color="#1B4DFF" stop-opacity="0.51"/>
<stop offset="0.835327" stop-color="#B78BFF" stop-opacity="0.327629"/>
<stop offset="0.999631" stop-color="white" stop-opacity="0"/>
</linearGradient>
</defs>
</svg>
