<svg width="210" height="47" viewBox="0 0 210 47" fill="none" xmlns="http://www.w3.org/2000/svg">
<path d="M186.396 15.6958C186.396 9.69576 191.196 4.79575 197.196 4.69576C201.296 4.69576 204.996 6.89575 206.896 10.5957L202.896 11.8958C200.796 8.79575 196.596 7.99575 193.496 10.0957C190.396 12.1957 189.596 16.3958 191.696 19.4958C193.796 22.5958 197.996 23.3958 201.096 21.2958C201.596 20.8958 202.096 20.4958 202.496 19.9958L200.096 20.3958L197.196 17.4958L203.396 16.4958L209.596 15.4958L208.596 21.6958L207.596 27.8958L204.596 24.8958L204.896 23.1958C200.696 27.4958 193.796 27.4958 189.496 23.1958C187.596 21.2958 186.396 18.4958 186.396 15.6958ZM60.5958 18.8958C60.4958 20.0958 60.7958 21.1958 61.2958 22.2958C61.7958 23.1958 62.4958 23.9957 63.2958 24.5957C64.1958 25.1957 65.1958 25.6958 66.1958 25.9958C67.2958 26.2957 68.4958 26.4958 69.5958 26.3958C70.8958 26.3958 72.1958 26.2958 73.3958 25.8958C74.3958 25.5958 75.2958 25.0958 76.1958 24.4958C76.8958 23.8958 77.4958 23.1958 77.8958 22.2958C78.2958 21.3958 78.4958 20.4957 78.4958 19.5957C78.4958 18.5957 78.2958 17.5958 77.6958 16.6958C77.1958 15.9958 76.5958 15.2958 75.8958 14.8958C75.2958 14.4958 74.4958 14.0958 73.7958 13.8958C73.2958 13.6958 72.6958 13.5958 72.1958 13.4958L68.9958 12.6958C68.2958 12.4958 67.6958 12.2957 67.0958 12.0957C66.6958 11.9957 66.3958 11.6958 66.1958 11.3958C65.9958 11.0958 65.8958 10.6958 65.9958 10.3958C65.9958 9.99575 66.0958 9.59575 66.2958 9.29575C66.4958 8.99575 66.6958 8.79575 66.9958 8.59575C67.2958 8.39575 67.5958 8.29575 67.9958 8.19576C68.3958 8.09576 68.7958 8.09575 69.0958 8.09575C69.5958 8.09575 70.1958 8.09576 70.6958 8.19576C71.1958 8.29575 71.5958 8.49576 71.9958 8.69576C72.3958 8.89575 72.6958 9.29575 72.8958 9.69576C73.0958 10.1958 73.2958 10.6958 73.2958 11.1958H77.7958C77.7958 10.0958 77.5958 8.99575 77.0958 8.09575C76.6958 7.19575 75.9958 6.49575 75.1958 5.99575C74.3958 5.39575 73.3958 4.99575 72.4958 4.79575C71.4958 4.49575 70.3958 4.39575 69.2958 4.39575C68.2958 4.39575 67.3958 4.49575 66.3958 4.79575C65.4958 4.99575 64.5958 5.39575 63.7958 5.99575C62.9958 6.49575 62.3958 7.19575 61.9958 7.99575C61.4958 8.89575 61.2958 9.79575 61.2958 10.7958C61.2958 11.6958 61.4958 12.4958 61.7958 13.2958C62.1958 13.9958 62.6958 14.4958 63.2958 14.9958C63.8958 15.4958 64.5958 15.7957 65.2958 16.0957C66.0958 16.3957 66.7958 16.5958 67.5958 16.7958C68.3958 16.9958 69.0958 17.1958 69.8958 17.3958C70.5958 17.5958 71.1958 17.7958 71.8958 17.9958C72.3958 18.1958 72.8958 18.4958 73.2958 18.8958C73.6958 19.2958 73.8958 19.7958 73.8958 20.2958C73.8958 20.7958 73.7958 21.2957 73.4958 21.5957C73.1958 21.8957 72.8958 22.1958 72.4958 22.3958C72.0958 22.5958 71.5958 22.6958 71.1958 22.7958C70.7958 22.8958 70.2958 22.8958 69.8958 22.8958C69.2958 22.8958 68.6958 22.8958 68.0958 22.6958C67.5958 22.5958 66.9958 22.2957 66.5958 21.9958C66.1958 21.6958 65.7958 21.2958 65.5958 20.7958C65.2958 20.1958 65.1958 19.5958 65.1958 18.9958L60.5958 18.8958ZM112.496 9.89575L115.196 17.6958H109.696L112.496 9.89575ZM102.096 25.6958V4.69576H95.4958L90.6958 19.2958L85.6958 4.69576H79.1958V25.8958H83.5958L83.6958 10.9958L88.8958 25.8958H92.4958L97.7958 10.7958V25.8958H106.796L108.496 21.1958H116.396L117.996 25.8958H122.796L114.796 4.69576H109.996L102.096 25.6958ZM121.296 18.8958C121.296 20.0958 121.496 21.1958 121.996 22.2958C122.496 23.1958 123.196 23.9957 123.996 24.5957C124.896 25.1957 125.896 25.6958 126.896 25.9958C127.996 26.2957 129.196 26.4958 130.296 26.3958C131.596 26.3958 132.896 26.2958 134.096 25.8958C135.096 25.5958 135.996 25.0958 136.896 24.4958C137.596 23.8958 138.196 23.1958 138.596 22.2958C138.996 21.3958 139.196 20.4957 139.196 19.5957C139.196 18.5957 138.996 17.5958 138.396 16.6958C137.896 15.9958 137.296 15.2958 136.596 14.8958C135.996 14.4958 135.196 14.0958 134.496 13.8958C133.996 13.6958 133.396 13.5958 132.896 13.4958L129.696 12.6958C128.996 12.4958 128.396 12.2958 127.796 11.9958C127.396 11.8958 127.096 11.5958 126.896 11.2958C126.696 10.9958 126.596 10.5958 126.696 10.2958C126.696 9.89575 126.796 9.49576 126.996 9.19576C127.196 8.89575 127.396 8.69575 127.696 8.49575C127.996 8.29575 128.296 8.19575 128.696 8.09575C129.096 7.99575 129.496 7.99575 129.796 7.99575C130.296 7.99575 130.896 7.99575 131.396 8.19576C131.896 8.29575 132.296 8.49576 132.696 8.69576C133.096 8.89575 133.396 9.29575 133.596 9.69576C133.896 10.1958 133.996 10.6958 133.996 11.1958H138.496C138.496 10.0958 138.296 8.99575 137.796 8.09575C137.396 7.19575 136.696 6.49575 135.896 5.99575C135.096 5.39575 134.096 4.99575 133.196 4.79575C132.196 4.49575 131.096 4.39575 129.996 4.49575C128.996 4.49575 128.096 4.59575 127.096 4.89575C126.196 5.09575 125.296 5.49575 124.496 6.09575C123.796 6.59575 123.096 7.29575 122.696 8.09575C122.196 8.99575 121.996 9.89575 121.996 10.8958C121.996 11.7958 122.196 12.5958 122.496 13.3958C122.896 14.0958 123.396 14.5957 123.996 15.0957C124.596 15.5957 125.296 15.8958 125.996 16.1958C126.796 16.4958 127.496 16.6958 128.296 16.8958C129.096 17.0958 129.796 17.2958 130.596 17.4958C131.296 17.6958 131.896 17.8957 132.596 18.0957C133.096 18.2957 133.596 18.5958 133.996 18.9958C134.396 19.3958 134.596 19.8958 134.596 20.3958C134.596 20.8958 134.496 21.3958 134.196 21.6958C133.896 21.9958 133.596 22.2957 133.196 22.4958C132.796 22.6958 132.296 22.7958 131.896 22.8958C131.496 22.9958 130.996 22.9958 130.596 22.9958C129.996 22.9958 129.396 22.8958 128.796 22.7958C128.296 22.6958 127.696 22.3957 127.296 22.0957C126.896 21.7957 126.496 21.3958 126.296 20.8958C125.996 20.2958 125.896 19.6957 125.896 19.0957L121.296 18.8958ZM139.996 25.8958H144.696V16.7958H153.296V25.9958H157.996V4.79575H153.296V12.9958H144.696V4.79575H139.996V25.8958ZM160.096 25.8958H164.796V4.69576H160.096V25.8958ZM166.896 25.8958H171.296L171.396 11.6958L180.196 25.8958H184.896V4.69576H180.496L180.396 18.9958L171.496 4.69576H166.896V25.8958Z" fill="#D63A2B"/>
<path d="M27.4958 30.0958C25.3958 28.4958 22.9958 27.1958 20.4958 26.2958C18.5958 25.4958 16.7958 24.5958 15.0958 23.3958C11.0958 20.5958 9.0958 17.1958 9.0958 12.9958C8.9958 10.4958 9.7958 8.09579 11.2958 6.09579C11.5958 5.79579 11.8958 5.4958 12.1958 5.1958L3.5958 7.1958C1.0958 7.7958 -0.404199 10.2958 0.0958009 12.6958L7.1958 43.2958C7.7958 45.7958 10.1958 47.2958 12.6958 46.7958L16.1958 45.9958L15.8958 45.8958C13.4958 45.1958 11.2958 44.1958 9.0958 42.9958L12.7958 34.7958C15.6958 37.1958 19.3958 38.4958 23.1958 38.4958C27.1958 38.4958 29.1958 37.0958 29.1958 34.1958C29.3958 32.6958 28.6958 31.1958 27.4958 30.0958Z" fill="#D63A2B"/>
<path d="M46.8958 34.1958L39.7958 3.5958C39.1958 1.0958 36.7958 -0.404199 34.2958 0.0958009L29.1958 1.29581C29.7958 1.39581 30.3958 1.4958 30.9958 1.5958C33.2958 2.0958 35.4958 2.8958 37.6958 3.9958L34.6958 11.9958C32.4958 10.0958 29.2958 9.0958 25.2958 9.0958C21.6958 9.0958 19.8958 10.4958 19.8958 13.3958C19.9958 14.5958 20.5958 15.6958 21.6958 16.3958C24.0958 17.8958 26.5958 19.0958 29.2958 20.0958C31.5958 20.8958 33.7958 22.0958 35.6958 23.5958C36.3958 24.1958 37.0958 24.8958 37.6958 25.5958C39.3958 27.7958 40.2958 30.5958 40.1958 33.3958C40.2958 36.0958 39.3958 38.7958 37.7958 40.9958L43.5958 39.5958C45.8958 39.1958 47.4958 36.6958 46.8958 34.1958Z" fill="#D63A2B"/>
<path d="M63.4958 32.9956H65.1958L69.3958 43.8956L73.5958 32.9956H75.2959V45.4956H74.1958V34.6956L69.9958 45.4956H68.8958L64.6958 34.6956V45.4956H63.4958V32.9956Z" fill="#9D9D9C"/>
<path d="M84.7959 32.9956H86.0959L90.8959 45.4956H89.5959L88.0959 41.5956H82.4959L80.9959 45.4956H79.7959L84.7959 32.9956ZM82.9959 40.5956H87.7959L85.3959 34.1956L82.9959 40.5956Z" fill="#9D9D9C"/>
<path d="M105.996 45.4956H105.196L104.996 43.1956C104.196 44.7956 102.596 45.7956 100.796 45.6956C96.8959 45.6956 94.9958 42.5956 94.9958 39.1956C94.9958 35.7956 96.8959 32.6956 100.796 32.6956C103.296 32.4956 105.596 34.2956 105.896 36.7956H104.696C104.296 34.8956 102.696 33.5956 100.796 33.6956C97.5959 33.6956 96.1958 36.4956 96.1958 39.1956C96.1958 41.8956 97.5959 44.6956 100.796 44.6956C103.496 44.6956 105.096 42.7956 104.996 40.0956H100.796V39.0956H105.996V45.4956Z" fill="#9D9D9C"/>
<path d="M115.196 32.9956H116.496L121.296 45.4956H120.096L118.596 41.5956H112.996L111.496 45.4956H110.196L115.196 32.9956ZM113.396 40.5956H118.196L115.796 34.1956L113.396 40.5956Z" fill="#9D9D9C"/>
<path d="M125.296 32.9956H134.096V33.9956L125.996 44.3956H134.196V45.3956H124.696V44.3956L132.796 33.9956H125.296V32.9956Z" fill="#9D9D9C"/>
<path d="M139.296 32.9956H140.496V45.4956H139.296V32.9956Z" fill="#9D9D9C"/>
<path d="M146.396 32.9956H147.696L154.796 43.5956V32.9956H155.996V45.4956H154.696L147.596 34.9956V45.4956H146.396V32.9956Z" fill="#9D9D9C"/>
<path d="M161.996 32.9956H170.496V33.9956H163.196V38.4956H169.996V39.4956H163.196V44.3956H170.596V45.3956H161.996V32.9956Z" fill="#9D9D9C"/>
</svg>
